<?xml version="1.0" encoding="utf-8" standalone="no"?>
<!DOCTYPE svg PUBLIC "-//W3C//DTD SVG 1.1//EN"
  "http://www.w3.org/Graphics/SVG/1.1/DTD/svg11.dtd">
<svg xmlns:xlink="http://www.w3.org/1999/xlink" width="360pt" height="288pt" viewBox="0 0 360 288" xmlns="http://www.w3.org/2000/svg" version="1.1">
 <metadata>
  <rdf:RDF xmlns:dc="http://purl.org/dc/elements/1.1/" xmlns:cc="http://creativecommons.org/ns#" xmlns:rdf="http://www.w3.org/1999/02/22-rdf-syntax-ns#">
   <cc:Work>
    <dc:type rdf:resource="http://purl.org/dc/dcmitype/StillImage"/>
    <dc:date>2022-05-19T20:59:04.189386</dc:date>
    <dc:format>image/svg+xml</dc:format>
    <dc:creator>
     <cc:Agent>
      <dc:title>Matplotlib v3.5.0, https://matplotlib.org/</dc:title>
     </cc:Agent>
    </dc:creator>
   </cc:Work>
  </rdf:RDF>
 </metadata>
 <defs>
  <style type="text/css">*{stroke-linejoin: round; stroke-linecap: butt}</style>
 </defs>
 <g id="figure_1">
  <g id="patch_1">
   <path d="M 0 288 
L 360 288 
L 360 0 
L 0 0 
z
" style="fill: #ffffff"/>
  </g>
  <g id="axes_1">
   <g id="patch_2">
    <path d="M 54 256.32 
L 324 256.32 
L 324 34.56 
L 54 34.56 
z
" style="fill: #ffffff"/>
   </g>
   <g id="matplotlib.axis_1">
    <g id="xtick_1">
     <g id="line2d_1">
      <path d="M 66.272727 256.32 
L 66.272727 34.56 
" clip-path="url(#p6d60f003dc)" style="fill: none; stroke: #b0b0b0; stroke-width: 0.8; stroke-linecap: square"/>
     </g>
     <g id="line2d_2">
      <defs>
       <path id="m416b6370ed" d="M 0 0 
L 0 3.5 
" style="stroke: #000000; stroke-width: 0.8"/>
      </defs>
      <g>
       <use xlink:href="#m416b6370ed" x="66.272727" y="256.32" style="stroke: #000000; stroke-width: 0.8"/>
      </g>
     </g>
     <g id="text_1">
      <!-- 0.00 -->
      <g transform="translate(55.139915 270.918437)scale(0.1 -0.1)">
       <defs>
        <path id="DejaVuSans-30" d="M 2034 4250 
Q 1547 4250 1301 3770 
Q 1056 3291 1056 2328 
Q 1056 1369 1301 889 
Q 1547 409 2034 409 
Q 2525 409 2770 889 
Q 3016 1369 3016 2328 
Q 3016 3291 2770 3770 
Q 2525 4250 2034 4250 
z
M 2034 4750 
Q 2819 4750 3233 4129 
Q 3647 3509 3647 2328 
Q 3647 1150 3233 529 
Q 2819 -91 2034 -91 
Q 1250 -91 836 529 
Q 422 1150 422 2328 
Q 422 3509 836 4129 
Q 1250 4750 2034 4750 
z
" transform="scale(0.015625)"/>
        <path id="DejaVuSans-2e" d="M 684 794 
L 1344 794 
L 1344 0 
L 684 0 
L 684 794 
z
" transform="scale(0.015625)"/>
       </defs>
       <use xlink:href="#DejaVuSans-30"/>
       <use xlink:href="#DejaVuSans-2e" x="63.623047"/>
       <use xlink:href="#DejaVuSans-30" x="95.410156"/>
       <use xlink:href="#DejaVuSans-30" x="159.033203"/>
      </g>
     </g>
    </g>
    <g id="xtick_2">
     <g id="line2d_3">
      <path d="M 96.954545 256.32 
L 96.954545 34.56 
" clip-path="url(#p6d60f003dc)" style="fill: none; stroke: #b0b0b0; stroke-width: 0.8; stroke-linecap: square"/>
     </g>
     <g id="line2d_4">
      <g>
       <use xlink:href="#m416b6370ed" x="96.954545" y="256.32" style="stroke: #000000; stroke-width: 0.8"/>
      </g>
     </g>
     <g id="text_2">
      <!-- 0.05 -->
      <g transform="translate(85.821733 270.918437)scale(0.1 -0.1)">
       <defs>
        <path id="DejaVuSans-35" d="M 691 4666 
L 3169 4666 
L 3169 4134 
L 1269 4134 
L 1269 2991 
Q 1406 3038 1543 3061 
Q 1681 3084 1819 3084 
Q 2600 3084 3056 2656 
Q 3513 2228 3513 1497 
Q 3513 744 3044 326 
Q 2575 -91 1722 -91 
Q 1428 -91 1123 -41 
Q 819 9 494 109 
L 494 744 
Q 775 591 1075 516 
Q 1375 441 1709 441 
Q 2250 441 2565 725 
Q 2881 1009 2881 1497 
Q 2881 1984 2565 2268 
Q 2250 2553 1709 2553 
Q 1456 2553 1204 2497 
Q 953 2441 691 2322 
L 691 4666 
z
" transform="scale(0.015625)"/>
       </defs>
       <use xlink:href="#DejaVuSans-30"/>
       <use xlink:href="#DejaVuSans-2e" x="63.623047"/>
       <use xlink:href="#DejaVuSans-30" x="95.410156"/>
       <use xlink:href="#DejaVuSans-35" x="159.033203"/>
      </g>
     </g>
    </g>
    <g id="xtick_3">
     <g id="line2d_5">
      <path d="M 127.636364 256.32 
L 127.636364 34.56 
" clip-path="url(#p6d60f003dc)" style="fill: none; stroke: #b0b0b0; stroke-width: 0.8; stroke-linecap: square"/>
     </g>
     <g id="line2d_6">
      <g>
       <use xlink:href="#m416b6370ed" x="127.636364" y="256.32" style="stroke: #000000; stroke-width: 0.8"/>
      </g>
     </g>
     <g id="text_3">
      <!-- 0.10 -->
      <g transform="translate(116.503551 270.918437)scale(0.1 -0.1)">
       <defs>
        <path id="DejaVuSans-31" d="M 794 531 
L 1825 531 
L 1825 4091 
L 703 3866 
L 703 4441 
L 1819 4666 
L 2450 4666 
L 2450 531 
L 3481 531 
L 3481 0 
L 794 0 
L 794 531 
z
" transform="scale(0.015625)"/>
       </defs>
       <use xlink:href="#DejaVuSans-30"/>
       <use xlink:href="#DejaVuSans-2e" x="63.623047"/>
       <use xlink:href="#DejaVuSans-31" x="95.410156"/>
       <use xlink:href="#DejaVuSans-30" x="159.033203"/>
      </g>
     </g>
    </g>
    <g id="xtick_4">
     <g id="line2d_7">
      <path d="M 158.318182 256.32 
L 158.318182 34.56 
" clip-path="url(#p6d60f003dc)" style="fill: none; stroke: #b0b0b0; stroke-width: 0.8; stroke-linecap: square"/>
     </g>
     <g id="line2d_8">
      <g>
       <use xlink:href="#m416b6370ed" x="158.318182" y="256.32" style="stroke: #000000; stroke-width: 0.8"/>
      </g>
     </g>
     <g id="text_4">
      <!-- 0.15 -->
      <g transform="translate(147.185369 270.918437)scale(0.1 -0.1)">
       <use xlink:href="#DejaVuSans-30"/>
       <use xlink:href="#DejaVuSans-2e" x="63.623047"/>
       <use xlink:href="#DejaVuSans-31" x="95.410156"/>
       <use xlink:href="#DejaVuSans-35" x="159.033203"/>
      </g>
     </g>
    </g>
    <g id="xtick_5">
     <g id="line2d_9">
      <path d="M 189 256.32 
L 189 34.56 
" clip-path="url(#p6d60f003dc)" style="fill: none; stroke: #b0b0b0; stroke-width: 0.8; stroke-linecap: square"/>
     </g>
     <g id="line2d_10">
      <g>
       <use xlink:href="#m416b6370ed" x="189" y="256.32" style="stroke: #000000; stroke-width: 0.8"/>
      </g>
     </g>
     <g id="text_5">
      <!-- 0.20 -->
      <g transform="translate(177.867188 270.918437)scale(0.1 -0.1)">
       <defs>
        <path id="DejaVuSans-32" d="M 1228 531 
L 3431 531 
L 3431 0 
L 469 0 
L 469 531 
Q 828 903 1448 1529 
Q 2069 2156 2228 2338 
Q 2531 2678 2651 2914 
Q 2772 3150 2772 3378 
Q 2772 3750 2511 3984 
Q 2250 4219 1831 4219 
Q 1534 4219 1204 4116 
Q 875 4013 500 3803 
L 500 4441 
Q 881 4594 1212 4672 
Q 1544 4750 1819 4750 
Q 2544 4750 2975 4387 
Q 3406 4025 3406 3419 
Q 3406 3131 3298 2873 
Q 3191 2616 2906 2266 
Q 2828 2175 2409 1742 
Q 1991 1309 1228 531 
z
" transform="scale(0.015625)"/>
       </defs>
       <use xlink:href="#DejaVuSans-30"/>
       <use xlink:href="#DejaVuSans-2e" x="63.623047"/>
       <use xlink:href="#DejaVuSans-32" x="95.410156"/>
       <use xlink:href="#DejaVuSans-30" x="159.033203"/>
      </g>
     </g>
    </g>
    <g id="xtick_6">
     <g id="line2d_11">
      <path d="M 219.681818 256.32 
L 219.681818 34.56 
" clip-path="url(#p6d60f003dc)" style="fill: none; stroke: #b0b0b0; stroke-width: 0.8; stroke-linecap: square"/>
     </g>
     <g id="line2d_12">
      <g>
       <use xlink:href="#m416b6370ed" x="219.681818" y="256.32" style="stroke: #000000; stroke-width: 0.8"/>
      </g>
     </g>
     <g id="text_6">
      <!-- 0.25 -->
      <g transform="translate(208.549006 270.918437)scale(0.1 -0.1)">
       <use xlink:href="#DejaVuSans-30"/>
       <use xlink:href="#DejaVuSans-2e" x="63.623047"/>
       <use xlink:href="#DejaVuSans-32" x="95.410156"/>
       <use xlink:href="#DejaVuSans-35" x="159.033203"/>
      </g>
     </g>
    </g>
    <g id="xtick_7">
     <g id="line2d_13">
      <path d="M 250.363636 256.32 
L 250.363636 34.56 
" clip-path="url(#p6d60f003dc)" style="fill: none; stroke: #b0b0b0; stroke-width: 0.8; stroke-linecap: square"/>
     </g>
     <g id="line2d_14">
      <g>
       <use xlink:href="#m416b6370ed" x="250.363636" y="256.32" style="stroke: #000000; stroke-width: 0.8"/>
      </g>
     </g>
     <g id="text_7">
      <!-- 0.30 -->
      <g transform="translate(239.230824 270.918437)scale(0.1 -0.1)">
       <defs>
        <path id="DejaVuSans-33" d="M 2597 2516 
Q 3050 2419 3304 2112 
Q 3559 1806 3559 1356 
Q 3559 666 3084 287 
Q 2609 -91 1734 -91 
Q 1441 -91 1130 -33 
Q 819 25 488 141 
L 488 750 
Q 750 597 1062 519 
Q 1375 441 1716 441 
Q 2309 441 2620 675 
Q 2931 909 2931 1356 
Q 2931 1769 2642 2001 
Q 2353 2234 1838 2234 
L 1294 2234 
L 1294 2753 
L 1863 2753 
Q 2328 2753 2575 2939 
Q 2822 3125 2822 3475 
Q 2822 3834 2567 4026 
Q 2313 4219 1838 4219 
Q 1578 4219 1281 4162 
Q 984 4106 628 3988 
L 628 4550 
Q 988 4650 1302 4700 
Q 1616 4750 1894 4750 
Q 2613 4750 3031 4423 
Q 3450 4097 3450 3541 
Q 3450 3153 3228 2886 
Q 3006 2619 2597 2516 
z
" transform="scale(0.015625)"/>
       </defs>
       <use xlink:href="#DejaVuSans-30"/>
       <use xlink:href="#DejaVuSans-2e" x="63.623047"/>
       <use xlink:href="#DejaVuSans-33" x="95.410156"/>
       <use xlink:href="#DejaVuSans-30" x="159.033203"/>
      </g>
     </g>
    </g>
    <g id="xtick_8">
     <g id="line2d_15">
      <path d="M 281.045455 256.32 
L 281.045455 34.56 
" clip-path="url(#p6d60f003dc)" style="fill: none; stroke: #b0b0b0; stroke-width: 0.8; stroke-linecap: square"/>
     </g>
     <g id="line2d_16">
      <g>
       <use xlink:href="#m416b6370ed" x="281.045455" y="256.32" style="stroke: #000000; stroke-width: 0.8"/>
      </g>
     </g>
     <g id="text_8">
      <!-- 0.35 -->
      <g transform="translate(269.912642 270.918437)scale(0.1 -0.1)">
       <use xlink:href="#DejaVuSans-30"/>
       <use xlink:href="#DejaVuSans-2e" x="63.623047"/>
       <use xlink:href="#DejaVuSans-33" x="95.410156"/>
       <use xlink:href="#DejaVuSans-35" x="159.033203"/>
      </g>
     </g>
    </g>
    <g id="xtick_9">
     <g id="line2d_17">
      <path d="M 311.727273 256.32 
L 311.727273 34.56 
" clip-path="url(#p6d60f003dc)" style="fill: none; stroke: #b0b0b0; stroke-width: 0.8; stroke-linecap: square"/>
     </g>
     <g id="line2d_18">
      <g>
       <use xlink:href="#m416b6370ed" x="311.727273" y="256.32" style="stroke: #000000; stroke-width: 0.8"/>
      </g>
     </g>
     <g id="text_9">
      <!-- 0.40 -->
      <g transform="translate(300.59446 270.918437)scale(0.1 -0.1)">
       <defs>
        <path id="DejaVuSans-34" d="M 2419 4116 
L 825 1625 
L 2419 1625 
L 2419 4116 
z
M 2253 4666 
L 3047 4666 
L 3047 1625 
L 3713 1625 
L 3713 1100 
L 3047 1100 
L 3047 0 
L 2419 0 
L 2419 1100 
L 313 1100 
L 313 1709 
L 2253 4666 
z
" transform="scale(0.015625)"/>
       </defs>
       <use xlink:href="#DejaVuSans-30"/>
       <use xlink:href="#DejaVuSans-2e" x="63.623047"/>
       <use xlink:href="#DejaVuSans-34" x="95.410156"/>
       <use xlink:href="#DejaVuSans-30" x="159.033203"/>
      </g>
     </g>
    </g>
    <g id="text_10">
     <!-- Deletion Rate -->
     <g transform="translate(148.174688 286.11625)scale(0.12 -0.12)">
      <defs>
       <path id="DejaVuSans-44" d="M 1259 4147 
L 1259 519 
L 2022 519 
Q 2988 519 3436 956 
Q 3884 1394 3884 2338 
Q 3884 3275 3436 3711 
Q 2988 4147 2022 4147 
L 1259 4147 
z
M 628 4666 
L 1925 4666 
Q 3281 4666 3915 4102 
Q 4550 3538 4550 2338 
Q 4550 1131 3912 565 
Q 3275 0 1925 0 
L 628 0 
L 628 4666 
z
" transform="scale(0.015625)"/>
       <path id="DejaVuSans-65" d="M 3597 1894 
L 3597 1613 
L 953 1613 
Q 991 1019 1311 708 
Q 1631 397 2203 397 
Q 2534 397 2845 478 
Q 3156 559 3463 722 
L 3463 178 
Q 3153 47 2828 -22 
Q 2503 -91 2169 -91 
Q 1331 -91 842 396 
Q 353 884 353 1716 
Q 353 2575 817 3079 
Q 1281 3584 2069 3584 
Q 2775 3584 3186 3129 
Q 3597 2675 3597 1894 
z
M 3022 2063 
Q 3016 2534 2758 2815 
Q 2500 3097 2075 3097 
Q 1594 3097 1305 2825 
Q 1016 2553 972 2059 
L 3022 2063 
z
" transform="scale(0.015625)"/>
       <path id="DejaVuSans-6c" d="M 603 4863 
L 1178 4863 
L 1178 0 
L 603 0 
L 603 4863 
z
" transform="scale(0.015625)"/>
       <path id="DejaVuSans-74" d="M 1172 4494 
L 1172 3500 
L 2356 3500 
L 2356 3053 
L 1172 3053 
L 1172 1153 
Q 1172 725 1289 603 
Q 1406 481 1766 481 
L 2356 481 
L 2356 0 
L 1766 0 
Q 1100 0 847 248 
Q 594 497 594 1153 
L 594 3053 
L 172 3053 
L 172 3500 
L 594 3500 
L 594 4494 
L 1172 4494 
z
" transform="scale(0.015625)"/>
       <path id="DejaVuSans-69" d="M 603 3500 
L 1178 3500 
L 1178 0 
L 603 0 
L 603 3500 
z
M 603 4863 
L 1178 4863 
L 1178 4134 
L 603 4134 
L 603 4863 
z
" transform="scale(0.015625)"/>
       <path id="DejaVuSans-6f" d="M 1959 3097 
Q 1497 3097 1228 2736 
Q 959 2375 959 1747 
Q 959 1119 1226 758 
Q 1494 397 1959 397 
Q 2419 397 2687 759 
Q 2956 1122 2956 1747 
Q 2956 2369 2687 2733 
Q 2419 3097 1959 3097 
z
M 1959 3584 
Q 2709 3584 3137 3096 
Q 3566 2609 3566 1747 
Q 3566 888 3137 398 
Q 2709 -91 1959 -91 
Q 1206 -91 779 398 
Q 353 888 353 1747 
Q 353 2609 779 3096 
Q 1206 3584 1959 3584 
z
" transform="scale(0.015625)"/>
       <path id="DejaVuSans-6e" d="M 3513 2113 
L 3513 0 
L 2938 0 
L 2938 2094 
Q 2938 2591 2744 2837 
Q 2550 3084 2163 3084 
Q 1697 3084 1428 2787 
Q 1159 2491 1159 1978 
L 1159 0 
L 581 0 
L 581 3500 
L 1159 3500 
L 1159 2956 
Q 1366 3272 1645 3428 
Q 1925 3584 2291 3584 
Q 2894 3584 3203 3211 
Q 3513 2838 3513 2113 
z
" transform="scale(0.015625)"/>
       <path id="DejaVuSans-20" transform="scale(0.015625)"/>
       <path id="DejaVuSans-52" d="M 2841 2188 
Q 3044 2119 3236 1894 
Q 3428 1669 3622 1275 
L 4263 0 
L 3584 0 
L 2988 1197 
Q 2756 1666 2539 1819 
Q 2322 1972 1947 1972 
L 1259 1972 
L 1259 0 
L 628 0 
L 628 4666 
L 2053 4666 
Q 2853 4666 3247 4331 
Q 3641 3997 3641 3322 
Q 3641 2881 3436 2590 
Q 3231 2300 2841 2188 
z
M 1259 4147 
L 1259 2491 
L 2053 2491 
Q 2509 2491 2742 2702 
Q 2975 2913 2975 3322 
Q 2975 3731 2742 3939 
Q 2509 4147 2053 4147 
L 1259 4147 
z
" transform="scale(0.015625)"/>
       <path id="DejaVuSans-61" d="M 2194 1759 
Q 1497 1759 1228 1600 
Q 959 1441 959 1056 
Q 959 750 1161 570 
Q 1363 391 1709 391 
Q 2188 391 2477 730 
Q 2766 1069 2766 1631 
L 2766 1759 
L 2194 1759 
z
M 3341 1997 
L 3341 0 
L 2766 0 
L 2766 531 
Q 2569 213 2275 61 
Q 1981 -91 1556 -91 
Q 1019 -91 701 211 
Q 384 513 384 1019 
Q 384 1609 779 1909 
Q 1175 2209 1959 2209 
L 2766 2209 
L 2766 2266 
Q 2766 2663 2505 2880 
Q 2244 3097 1772 3097 
Q 1472 3097 1187 3025 
Q 903 2953 641 2809 
L 641 3341 
Q 956 3463 1253 3523 
Q 1550 3584 1831 3584 
Q 2591 3584 2966 3190 
Q 3341 2797 3341 1997 
z
" transform="scale(0.015625)"/>
      </defs>
      <use xlink:href="#DejaVuSans-44"/>
      <use xlink:href="#DejaVuSans-65" x="77.001953"/>
      <use xlink:href="#DejaVuSans-6c" x="138.525391"/>
      <use xlink:href="#DejaVuSans-65" x="166.308594"/>
      <use xlink:href="#DejaVuSans-74" x="227.832031"/>
      <use xlink:href="#DejaVuSans-69" x="267.041016"/>
      <use xlink:href="#DejaVuSans-6f" x="294.824219"/>
      <use xlink:href="#DejaVuSans-6e" x="356.005859"/>
      <use xlink:href="#DejaVuSans-20" x="419.384766"/>
      <use xlink:href="#DejaVuSans-52" x="451.171875"/>
      <use xlink:href="#DejaVuSans-61" x="518.404297"/>
      <use xlink:href="#DejaVuSans-74" x="579.683594"/>
      <use xlink:href="#DejaVuSans-65" x="618.892578"/>
     </g>
    </g>
   </g>
   <g id="matplotlib.axis_2">
    <g id="ytick_1">
     <g id="line2d_19">
      <path d="M 54 249.563557 
L 324 249.563557 
" clip-path="url(#p6d60f003dc)" style="fill: none; stroke: #b0b0b0; stroke-width: 0.8; stroke-linecap: square"/>
     </g>
     <g id="line2d_20">
      <defs>
       <path id="m3c164054c3" d="M 0 0 
L -3.5 0 
" style="stroke: #000000; stroke-width: 0.8"/>
      </defs>
      <g>
       <use xlink:href="#m3c164054c3" x="54" y="249.563557" style="stroke: #000000; stroke-width: 0.8"/>
      </g>
     </g>
     <g id="text_11">
      <!-- 0.25 -->
      <g transform="translate(24.734375 253.362776)scale(0.1 -0.1)">
       <use xlink:href="#DejaVuSans-30"/>
       <use xlink:href="#DejaVuSans-2e" x="63.623047"/>
       <use xlink:href="#DejaVuSans-32" x="95.410156"/>
       <use xlink:href="#DejaVuSans-35" x="159.033203"/>
      </g>
     </g>
    </g>
    <g id="ytick_2">
     <g id="line2d_21">
      <path d="M 54 205.832538 
L 324 205.832538 
" clip-path="url(#p6d60f003dc)" style="fill: none; stroke: #b0b0b0; stroke-width: 0.8; stroke-linecap: square"/>
     </g>
     <g id="line2d_22">
      <g>
       <use xlink:href="#m3c164054c3" x="54" y="205.832538" style="stroke: #000000; stroke-width: 0.8"/>
      </g>
     </g>
     <g id="text_12">
      <!-- 0.30 -->
      <g transform="translate(24.734375 209.631757)scale(0.1 -0.1)">
       <use xlink:href="#DejaVuSans-30"/>
       <use xlink:href="#DejaVuSans-2e" x="63.623047"/>
       <use xlink:href="#DejaVuSans-33" x="95.410156"/>
       <use xlink:href="#DejaVuSans-30" x="159.033203"/>
      </g>
     </g>
    </g>
    <g id="ytick_3">
     <g id="line2d_23">
      <path d="M 54 162.101518 
L 324 162.101518 
" clip-path="url(#p6d60f003dc)" style="fill: none; stroke: #b0b0b0; stroke-width: 0.8; stroke-linecap: square"/>
     </g>
     <g id="line2d_24">
      <g>
       <use xlink:href="#m3c164054c3" x="54" y="162.101518" style="stroke: #000000; stroke-width: 0.8"/>
      </g>
     </g>
     <g id="text_13">
      <!-- 0.35 -->
      <g transform="translate(24.734375 165.900737)scale(0.1 -0.1)">
       <use xlink:href="#DejaVuSans-30"/>
       <use xlink:href="#DejaVuSans-2e" x="63.623047"/>
       <use xlink:href="#DejaVuSans-33" x="95.410156"/>
       <use xlink:href="#DejaVuSans-35" x="159.033203"/>
      </g>
     </g>
    </g>
    <g id="ytick_4">
     <g id="line2d_25">
      <path d="M 54 118.370499 
L 324 118.370499 
" clip-path="url(#p6d60f003dc)" style="fill: none; stroke: #b0b0b0; stroke-width: 0.8; stroke-linecap: square"/>
     </g>
     <g id="line2d_26">
      <g>
       <use xlink:href="#m3c164054c3" x="54" y="118.370499" style="stroke: #000000; stroke-width: 0.8"/>
      </g>
     </g>
     <g id="text_14">
      <!-- 0.40 -->
      <g transform="translate(24.734375 122.169718)scale(0.1 -0.1)">
       <use xlink:href="#DejaVuSans-30"/>
       <use xlink:href="#DejaVuSans-2e" x="63.623047"/>
       <use xlink:href="#DejaVuSans-34" x="95.410156"/>
       <use xlink:href="#DejaVuSans-30" x="159.033203"/>
      </g>
     </g>
    </g>
    <g id="ytick_5">
     <g id="line2d_27">
      <path d="M 54 74.639479 
L 324 74.639479 
" clip-path="url(#p6d60f003dc)" style="fill: none; stroke: #b0b0b0; stroke-width: 0.8; stroke-linecap: square"/>
     </g>
     <g id="line2d_28">
      <g>
       <use xlink:href="#m3c164054c3" x="54" y="74.639479" style="stroke: #000000; stroke-width: 0.8"/>
      </g>
     </g>
     <g id="text_15">
      <!-- 0.45 -->
      <g transform="translate(24.734375 78.438698)scale(0.1 -0.1)">
       <use xlink:href="#DejaVuSans-30"/>
       <use xlink:href="#DejaVuSans-2e" x="63.623047"/>
       <use xlink:href="#DejaVuSans-34" x="95.410156"/>
       <use xlink:href="#DejaVuSans-35" x="159.033203"/>
      </g>
     </g>
    </g>
    <g id="text_16">
     <!-- Accuracy -->
     <g transform="translate(18.23875 172.83375)rotate(-90)scale(0.12 -0.12)">
      <defs>
       <path id="DejaVuSans-41" d="M 2188 4044 
L 1331 1722 
L 3047 1722 
L 2188 4044 
z
M 1831 4666 
L 2547 4666 
L 4325 0 
L 3669 0 
L 3244 1197 
L 1141 1197 
L 716 0 
L 50 0 
L 1831 4666 
z
" transform="scale(0.015625)"/>
       <path id="DejaVuSans-63" d="M 3122 3366 
L 3122 2828 
Q 2878 2963 2633 3030 
Q 2388 3097 2138 3097 
Q 1578 3097 1268 2742 
Q 959 2388 959 1747 
Q 959 1106 1268 751 
Q 1578 397 2138 397 
Q 2388 397 2633 464 
Q 2878 531 3122 666 
L 3122 134 
Q 2881 22 2623 -34 
Q 2366 -91 2075 -91 
Q 1284 -91 818 406 
Q 353 903 353 1747 
Q 353 2603 823 3093 
Q 1294 3584 2113 3584 
Q 2378 3584 2631 3529 
Q 2884 3475 3122 3366 
z
" transform="scale(0.015625)"/>
       <path id="DejaVuSans-75" d="M 544 1381 
L 544 3500 
L 1119 3500 
L 1119 1403 
Q 1119 906 1312 657 
Q 1506 409 1894 409 
Q 2359 409 2629 706 
Q 2900 1003 2900 1516 
L 2900 3500 
L 3475 3500 
L 3475 0 
L 2900 0 
L 2900 538 
Q 2691 219 2414 64 
Q 2138 -91 1772 -91 
Q 1169 -91 856 284 
Q 544 659 544 1381 
z
M 1991 3584 
L 1991 3584 
z
" transform="scale(0.015625)"/>
       <path id="DejaVuSans-72" d="M 2631 2963 
Q 2534 3019 2420 3045 
Q 2306 3072 2169 3072 
Q 1681 3072 1420 2755 
Q 1159 2438 1159 1844 
L 1159 0 
L 581 0 
L 581 3500 
L 1159 3500 
L 1159 2956 
Q 1341 3275 1631 3429 
Q 1922 3584 2338 3584 
Q 2397 3584 2469 3576 
Q 2541 3569 2628 3553 
L 2631 2963 
z
" transform="scale(0.015625)"/>
       <path id="DejaVuSans-79" d="M 2059 -325 
Q 1816 -950 1584 -1140 
Q 1353 -1331 966 -1331 
L 506 -1331 
L 506 -850 
L 844 -850 
Q 1081 -850 1212 -737 
Q 1344 -625 1503 -206 
L 1606 56 
L 191 3500 
L 800 3500 
L 1894 763 
L 2988 3500 
L 3597 3500 
L 2059 -325 
z
" transform="scale(0.015625)"/>
      </defs>
      <use xlink:href="#DejaVuSans-41"/>
      <use xlink:href="#DejaVuSans-63" x="66.658203"/>
      <use xlink:href="#DejaVuSans-63" x="121.638672"/>
      <use xlink:href="#DejaVuSans-75" x="176.619141"/>
      <use xlink:href="#DejaVuSans-72" x="239.998047"/>
      <use xlink:href="#DejaVuSans-61" x="281.111328"/>
      <use xlink:href="#DejaVuSans-63" x="342.390625"/>
      <use xlink:href="#DejaVuSans-79" x="397.371094"/>
     </g>
    </g>
   </g>
   <g id="line2d_29">
    <path d="M 66.272727 229.797137 
L 96.954545 227.435662 
L 127.636364 233.995315 
L 158.318182 239.505423 
L 189 223.06256 
L 219.681818 233.82039 
L 250.363636 234.520087 
L 281.045455 238.368416 
L 311.727273 246.24 
" clip-path="url(#p6d60f003dc)" style="fill: none; stroke-dasharray: 5.55,2.4; stroke-dashoffset: 0; stroke: #3976af; stroke-width: 1.5"/>
    <defs>
     <path id="m432d4e2da7" d="M 0 -3 
L -2.85317 -0.927051 
L -1.763356 2.427051 
L 1.763356 2.427051 
L 2.85317 -0.927051 
z
" style="stroke: #3976af; stroke-linejoin: miter"/>
    </defs>
    <g clip-path="url(#p6d60f003dc)">
     <use xlink:href="#m432d4e2da7" x="66.272727" y="229.797137" style="fill: #3976af; stroke: #3976af; stroke-linejoin: miter"/>
     <use xlink:href="#m432d4e2da7" x="96.954545" y="227.435662" style="fill: #3976af; stroke: #3976af; stroke-linejoin: miter"/>
     <use xlink:href="#m432d4e2da7" x="127.636364" y="233.995315" style="fill: #3976af; stroke: #3976af; stroke-linejoin: miter"/>
     <use xlink:href="#m432d4e2da7" x="158.318182" y="239.505423" style="fill: #3976af; stroke: #3976af; stroke-linejoin: miter"/>
     <use xlink:href="#m432d4e2da7" x="189" y="223.06256" style="fill: #3976af; stroke: #3976af; stroke-linejoin: miter"/>
     <use xlink:href="#m432d4e2da7" x="219.681818" y="233.82039" style="fill: #3976af; stroke: #3976af; stroke-linejoin: miter"/>
     <use xlink:href="#m432d4e2da7" x="250.363636" y="234.520087" style="fill: #3976af; stroke: #3976af; stroke-linejoin: miter"/>
     <use xlink:href="#m432d4e2da7" x="281.045455" y="238.368416" style="fill: #3976af; stroke: #3976af; stroke-linejoin: miter"/>
     <use xlink:href="#m432d4e2da7" x="311.727273" y="246.24" style="fill: #3976af; stroke: #3976af; stroke-linejoin: miter"/>
    </g>
   </g>
   <g id="line2d_30">
    <path d="M 66.272727 90.819957 
L 96.954545 102.889718 
L 127.636364 99.041388 
L 158.318182 100.528243 
L 189 119.68243 
L 219.681818 110.936226 
L 250.363636 125.28 
L 281.045455 134.813362 
L 311.727273 135.16321 
" clip-path="url(#p6d60f003dc)" style="fill: none; stroke-dasharray: 5.55,2.4; stroke-dashoffset: 0; stroke: #a64b2a; stroke-width: 1.5"/>
    <defs>
     <path id="m318cd49068" d="M -0 3 
L 3 -3 
L -3 -3 
z
" style="stroke: #a64b2a; stroke-linejoin: miter"/>
    </defs>
    <g clip-path="url(#p6d60f003dc)">
     <use xlink:href="#m318cd49068" x="66.272727" y="90.819957" style="fill: #a64b2a; stroke: #a64b2a; stroke-linejoin: miter"/>
     <use xlink:href="#m318cd49068" x="96.954545" y="102.889718" style="fill: #a64b2a; stroke: #a64b2a; stroke-linejoin: miter"/>
     <use xlink:href="#m318cd49068" x="127.636364" y="99.041388" style="fill: #a64b2a; stroke: #a64b2a; stroke-linejoin: miter"/>
     <use xlink:href="#m318cd49068" x="158.318182" y="100.528243" style="fill: #a64b2a; stroke: #a64b2a; stroke-linejoin: miter"/>
     <use xlink:href="#m318cd49068" x="189" y="119.68243" style="fill: #a64b2a; stroke: #a64b2a; stroke-linejoin: miter"/>
     <use xlink:href="#m318cd49068" x="219.681818" y="110.936226" style="fill: #a64b2a; stroke: #a64b2a; stroke-linejoin: miter"/>
     <use xlink:href="#m318cd49068" x="250.363636" y="125.28" style="fill: #a64b2a; stroke: #a64b2a; stroke-linejoin: miter"/>
     <use xlink:href="#m318cd49068" x="281.045455" y="134.813362" style="fill: #a64b2a; stroke: #a64b2a; stroke-linejoin: miter"/>
     <use xlink:href="#m318cd49068" x="311.727273" y="135.16321" style="fill: #a64b2a; stroke: #a64b2a; stroke-linejoin: miter"/>
    </g>
   </g>
   <g id="line2d_31">
    <path d="M 66.272727 85.747158 
L 96.954545 157.02872 
L 127.636364 155.979176 
L 158.318182 149.332061 
L 189 156.503948 
L 219.681818 153.967549 
L 250.363636 150.469067 
L 281.045455 157.815879 
L 311.727273 150.993839 
" clip-path="url(#p6d60f003dc)" style="fill: none; stroke-dasharray: 5.55,2.4; stroke-dashoffset: 0; stroke: #ef8536; stroke-width: 1.5"/>
    <defs>
     <path id="mb5f85fee24" d="M -3 -0 
L 3 3 
L 3 -3 
z
" style="stroke: #ef8536; stroke-linejoin: miter"/>
    </defs>
    <g clip-path="url(#p6d60f003dc)">
     <use xlink:href="#mb5f85fee24" x="66.272727" y="85.747158" style="fill: #ef8536; stroke: #ef8536; stroke-linejoin: miter"/>
     <use xlink:href="#mb5f85fee24" x="96.954545" y="157.02872" style="fill: #ef8536; stroke: #ef8536; stroke-linejoin: miter"/>
     <use xlink:href="#mb5f85fee24" x="127.636364" y="155.979176" style="fill: #ef8536; stroke: #ef8536; stroke-linejoin: miter"/>
     <use xlink:href="#mb5f85fee24" x="158.318182" y="149.332061" style="fill: #ef8536; stroke: #ef8536; stroke-linejoin: miter"/>
     <use xlink:href="#mb5f85fee24" x="189" y="156.503948" style="fill: #ef8536; stroke: #ef8536; stroke-linejoin: miter"/>
     <use xlink:href="#mb5f85fee24" x="219.681818" y="153.967549" style="fill: #ef8536; stroke: #ef8536; stroke-linejoin: miter"/>
     <use xlink:href="#mb5f85fee24" x="250.363636" y="150.469067" style="fill: #ef8536; stroke: #ef8536; stroke-linejoin: miter"/>
     <use xlink:href="#mb5f85fee24" x="281.045455" y="157.815879" style="fill: #ef8536; stroke: #ef8536; stroke-linejoin: miter"/>
     <use xlink:href="#mb5f85fee24" x="311.727273" y="150.993839" style="fill: #ef8536; stroke: #ef8536; stroke-linejoin: miter"/>
    </g>
   </g>
   <g id="line2d_32">
    <path d="M 66.272727 240.554967 
L 96.954545 236.969024 
L 127.636364 230.146985 
L 158.318182 240.030195 
L 189 235.307245 
L 219.681818 229.972061 
L 250.363636 230.409371 
L 281.045455 232.333536 
L 311.727273 228.572668 
" clip-path="url(#p6d60f003dc)" style="fill: none; stroke-dasharray: 5.55,2.4; stroke-dashoffset: 0; stroke: #8d6bb8; stroke-width: 1.5"/>
    <defs>
     <path id="meeb7f3a168" d="M -3 0 
L 3 0 
M 0 3 
L 0 -3 
" style="stroke: #8d6bb8"/>
    </defs>
    <g clip-path="url(#p6d60f003dc)">
     <use xlink:href="#meeb7f3a168" x="66.272727" y="240.554967" style="fill: #8d6bb8; stroke: #8d6bb8"/>
     <use xlink:href="#meeb7f3a168" x="96.954545" y="236.969024" style="fill: #8d6bb8; stroke: #8d6bb8"/>
     <use xlink:href="#meeb7f3a168" x="127.636364" y="230.146985" style="fill: #8d6bb8; stroke: #8d6bb8"/>
     <use xlink:href="#meeb7f3a168" x="158.318182" y="240.030195" style="fill: #8d6bb8; stroke: #8d6bb8"/>
     <use xlink:href="#meeb7f3a168" x="189" y="235.307245" style="fill: #8d6bb8; stroke: #8d6bb8"/>
     <use xlink:href="#meeb7f3a168" x="219.681818" y="229.972061" style="fill: #8d6bb8; stroke: #8d6bb8"/>
     <use xlink:href="#meeb7f3a168" x="250.363636" y="230.409371" style="fill: #8d6bb8; stroke: #8d6bb8"/>
     <use xlink:href="#meeb7f3a168" x="281.045455" y="232.333536" style="fill: #8d6bb8; stroke: #8d6bb8"/>
     <use xlink:href="#meeb7f3a168" x="311.727273" y="228.572668" style="fill: #8d6bb8; stroke: #8d6bb8"/>
    </g>
   </g>
   <g id="line2d_33">
    <path d="M 66.272727 44.64 
L 96.954545 55.397831 
L 127.636364 62.21987 
L 158.318182 66.0682 
L 189 74.814403 
L 219.681818 83.735531 
L 250.363636 94.668286 
L 281.045455 101.227939 
L 311.727273 102.364946 
" clip-path="url(#p6d60f003dc)" style="fill: none; stroke-dasharray: 5.55,2.4; stroke-dashoffset: 0; stroke: #519d3e; stroke-width: 1.5"/>
    <defs>
     <path id="m85928b9e80" d="M 3 0 
L -3 -3 
L -3 3 
z
" style="stroke: #519d3e; stroke-linejoin: miter"/>
    </defs>
    <g clip-path="url(#p6d60f003dc)">
     <use xlink:href="#m85928b9e80" x="66.272727" y="44.64" style="fill: #519d3e; stroke: #519d3e; stroke-linejoin: miter"/>
     <use xlink:href="#m85928b9e80" x="96.954545" y="55.397831" style="fill: #519d3e; stroke: #519d3e; stroke-linejoin: miter"/>
     <use xlink:href="#m85928b9e80" x="127.636364" y="62.21987" style="fill: #519d3e; stroke: #519d3e; stroke-linejoin: miter"/>
     <use xlink:href="#m85928b9e80" x="158.318182" y="66.0682" style="fill: #519d3e; stroke: #519d3e; stroke-linejoin: miter"/>
     <use xlink:href="#m85928b9e80" x="189" y="74.814403" style="fill: #519d3e; stroke: #519d3e; stroke-linejoin: miter"/>
     <use xlink:href="#m85928b9e80" x="219.681818" y="83.735531" style="fill: #519d3e; stroke: #519d3e; stroke-linejoin: miter"/>
     <use xlink:href="#m85928b9e80" x="250.363636" y="94.668286" style="fill: #519d3e; stroke: #519d3e; stroke-linejoin: miter"/>
     <use xlink:href="#m85928b9e80" x="281.045455" y="101.227939" style="fill: #519d3e; stroke: #519d3e; stroke-linejoin: miter"/>
     <use xlink:href="#m85928b9e80" x="311.727273" y="102.364946" style="fill: #519d3e; stroke: #519d3e; stroke-linejoin: miter"/>
    </g>
   </g>
   <g id="line2d_34">
    <path d="M 66.272727 183.704642 
L 96.954545 211.867419 
L 127.636364 210.380564 
L 158.318182 231.721302 
L 189 216.415445 
L 219.681818 228.135358 
L 250.363636 227.435662 
L 281.045455 208.368937 
L 311.727273 213.879046 
" clip-path="url(#p6d60f003dc)" style="fill: none; stroke-dasharray: 5.55,2.4; stroke-dashoffset: 0; stroke: #c53932; stroke-width: 1.5"/>
    <defs>
     <path id="mebf85d5b27" d="M 0 -3 
L -0.673542 -0.927051 
L -2.85317 -0.927051 
L -1.089814 0.354102 
L -1.763356 2.427051 
L -0 1.145898 
L 1.763356 2.427051 
L 1.089814 0.354102 
L 2.85317 -0.927051 
L 0.673542 -0.927051 
z
" style="stroke: #c53932; stroke-linejoin: bevel"/>
    </defs>
    <g clip-path="url(#p6d60f003dc)">
     <use xlink:href="#mebf85d5b27" x="66.272727" y="183.704642" style="fill: #c53932; stroke: #c53932; stroke-linejoin: bevel"/>
     <use xlink:href="#mebf85d5b27" x="96.954545" y="211.867419" style="fill: #c53932; stroke: #c53932; stroke-linejoin: bevel"/>
     <use xlink:href="#mebf85d5b27" x="127.636364" y="210.380564" style="fill: #c53932; stroke: #c53932; stroke-linejoin: bevel"/>
     <use xlink:href="#mebf85d5b27" x="158.318182" y="231.721302" style="fill: #c53932; stroke: #c53932; stroke-linejoin: bevel"/>
     <use xlink:href="#mebf85d5b27" x="189" y="216.415445" style="fill: #c53932; stroke: #c53932; stroke-linejoin: bevel"/>
     <use xlink:href="#mebf85d5b27" x="219.681818" y="228.135358" style="fill: #c53932; stroke: #c53932; stroke-linejoin: bevel"/>
     <use xlink:href="#mebf85d5b27" x="250.363636" y="227.435662" style="fill: #c53932; stroke: #c53932; stroke-linejoin: bevel"/>
     <use xlink:href="#mebf85d5b27" x="281.045455" y="208.368937" style="fill: #c53932; stroke: #c53932; stroke-linejoin: bevel"/>
     <use xlink:href="#mebf85d5b27" x="311.727273" y="213.879046" style="fill: #c53932; stroke: #c53932; stroke-linejoin: bevel"/>
    </g>
   </g>
   <g id="patch_3">
    <path d="M 54 256.32 
L 54 34.56 
" style="fill: none; stroke: #000000; stroke-width: 0.8; stroke-linejoin: miter; stroke-linecap: square"/>
   </g>
   <g id="patch_4">
    <path d="M 324 256.32 
L 324 34.56 
" style="fill: none; stroke: #000000; stroke-width: 0.8; stroke-linejoin: miter; stroke-linecap: square"/>
   </g>
   <g id="patch_5">
    <path d="M 54 256.32 
L 324 256.32 
" style="fill: none; stroke: #000000; stroke-width: 0.8; stroke-linejoin: miter; stroke-linecap: square"/>
   </g>
   <g id="patch_6">
    <path d="M 54 34.56 
L 324 34.56 
" style="fill: none; stroke: #000000; stroke-width: 0.8; stroke-linejoin: miter; stroke-linecap: square"/>
   </g>
   <g id="legend_1">
    <g id="patch_7">
     <path d="M 77.998437 30.91625 
L 300.001562 30.91625 
Q 302.001562 30.91625 302.001562 28.91625 
L 302.001562 0.56 
Q 302.001562 -1.44 300.001562 -1.44 
Q 75.998437 -1.44 75.998437 0.56 
L 75.998437 28.91625 
Q 75.998437 30.91625 77.998437 30.91625 
L 77.998437 30.91625 
" style="fill: none; opacity: 0"/>
    </g>
    <g id="line2d_35">
     <path d="M 79.998437 6.658437 
L 89.998437 6.658437 
L 99.998437 6.658437 
" style="fill: none; stroke-dasharray: 5.55,2.4; stroke-dashoffset: 0; stroke: #3976af; stroke-width: 1.5"/>
     <g>
      <use xlink:href="#m432d4e2da7" x="89.998437" y="6.658437" style="fill: #3976af; stroke: #3976af; stroke-linejoin: miter"/>
     </g>
    </g>
    <g id="text_17">
     <!-- ADC -->
     <g transform="translate(107.998437 10.158437)scale(0.1 -0.1)">
      <defs>
       <path id="DejaVuSans-43" d="M 4122 4306 
L 4122 3641 
Q 3803 3938 3442 4084 
Q 3081 4231 2675 4231 
Q 1875 4231 1450 3742 
Q 1025 3253 1025 2328 
Q 1025 1406 1450 917 
Q 1875 428 2675 428 
Q 3081 428 3442 575 
Q 3803 722 4122 1019 
L 4122 359 
Q 3791 134 3420 21 
Q 3050 -91 2638 -91 
Q 1578 -91 968 557 
Q 359 1206 359 2328 
Q 359 3453 968 4101 
Q 1578 4750 2638 4750 
Q 3056 4750 3426 4639 
Q 3797 4528 4122 4306 
z
" transform="scale(0.015625)"/>
      </defs>
      <use xlink:href="#DejaVuSans-41"/>
      <use xlink:href="#DejaVuSans-44" x="68.408203"/>
      <use xlink:href="#DejaVuSans-43" x="145.410156"/>
     </g>
    </g>
    <g id="line2d_36">
     <path d="M 79.998437 21.336563 
L 89.998437 21.336563 
L 99.998437 21.336563 
" style="fill: none; stroke-dasharray: 5.55,2.4; stroke-dashoffset: 0; stroke: #a64b2a; stroke-width: 1.5"/>
     <g>
      <use xlink:href="#m318cd49068" x="89.998437" y="21.336563" style="fill: #a64b2a; stroke: #a64b2a; stroke-linejoin: miter"/>
     </g>
    </g>
    <g id="text_18">
     <!-- APPNP -->
     <g transform="translate(107.998437 24.836563)scale(0.1 -0.1)">
      <defs>
       <path id="DejaVuSans-50" d="M 1259 4147 
L 1259 2394 
L 2053 2394 
Q 2494 2394 2734 2622 
Q 2975 2850 2975 3272 
Q 2975 3691 2734 3919 
Q 2494 4147 2053 4147 
L 1259 4147 
z
M 628 4666 
L 2053 4666 
Q 2838 4666 3239 4311 
Q 3641 3956 3641 3272 
Q 3641 2581 3239 2228 
Q 2838 1875 2053 1875 
L 1259 1875 
L 1259 0 
L 628 0 
L 628 4666 
z
" transform="scale(0.015625)"/>
       <path id="DejaVuSans-4e" d="M 628 4666 
L 1478 4666 
L 3547 763 
L 3547 4666 
L 4159 4666 
L 4159 0 
L 3309 0 
L 1241 3903 
L 1241 0 
L 628 0 
L 628 4666 
z
" transform="scale(0.015625)"/>
      </defs>
      <use xlink:href="#DejaVuSans-41"/>
      <use xlink:href="#DejaVuSans-50" x="68.408203"/>
      <use xlink:href="#DejaVuSans-50" x="128.710938"/>
      <use xlink:href="#DejaVuSans-4e" x="189.013672"/>
      <use xlink:href="#DejaVuSans-50" x="263.818359"/>
     </g>
    </g>
    <g id="line2d_37">
     <path d="M 160.409375 6.658437 
L 170.409375 6.658437 
L 180.409375 6.658437 
" style="fill: none; stroke-dasharray: 5.55,2.4; stroke-dashoffset: 0; stroke: #ef8536; stroke-width: 1.5"/>
     <g>
      <use xlink:href="#mb5f85fee24" x="170.409375" y="6.658437" style="fill: #ef8536; stroke: #ef8536; stroke-linejoin: miter"/>
     </g>
    </g>
    <g id="text_19">
     <!-- DGC -->
     <g transform="translate(188.409375 10.158437)scale(0.1 -0.1)">
      <defs>
       <path id="DejaVuSans-47" d="M 3809 666 
L 3809 1919 
L 2778 1919 
L 2778 2438 
L 4434 2438 
L 4434 434 
Q 4069 175 3628 42 
Q 3188 -91 2688 -91 
Q 1594 -91 976 548 
Q 359 1188 359 2328 
Q 359 3472 976 4111 
Q 1594 4750 2688 4750 
Q 3144 4750 3555 4637 
Q 3966 4525 4313 4306 
L 4313 3634 
Q 3963 3931 3569 4081 
Q 3175 4231 2741 4231 
Q 1884 4231 1454 3753 
Q 1025 3275 1025 2328 
Q 1025 1384 1454 906 
Q 1884 428 2741 428 
Q 3075 428 3337 486 
Q 3600 544 3809 666 
z
" transform="scale(0.015625)"/>
      </defs>
      <use xlink:href="#DejaVuSans-44"/>
      <use xlink:href="#DejaVuSans-47" x="77.001953"/>
      <use xlink:href="#DejaVuSans-43" x="154.492188"/>
     </g>
    </g>
    <g id="line2d_38">
     <path d="M 160.409375 21.336563 
L 170.409375 21.336563 
L 180.409375 21.336563 
" style="fill: none; stroke-dasharray: 5.55,2.4; stroke-dashoffset: 0; stroke: #8d6bb8; stroke-width: 1.5"/>
     <g>
      <use xlink:href="#meeb7f3a168" x="170.409375" y="21.336563" style="fill: #8d6bb8; stroke: #8d6bb8"/>
     </g>
    </g>
    <g id="text_20">
     <!-- GCN -->
     <g transform="translate(188.409375 24.836563)scale(0.1 -0.1)">
      <use xlink:href="#DejaVuSans-47"/>
      <use xlink:href="#DejaVuSans-43" x="77.490234"/>
      <use xlink:href="#DejaVuSans-4e" x="147.314453"/>
     </g>
    </g>
    <g id="line2d_39">
     <path d="M 230.840625 6.658437 
L 240.840625 6.658437 
L 250.840625 6.658437 
" style="fill: none; stroke-dasharray: 5.55,2.4; stroke-dashoffset: 0; stroke: #519d3e; stroke-width: 1.5"/>
     <g>
      <use xlink:href="#m85928b9e80" x="240.840625" y="6.658437" style="fill: #519d3e; stroke: #519d3e; stroke-linejoin: miter"/>
     </g>
    </g>
    <g id="text_21">
     <!-- HiD-Net -->
     <g transform="translate(258.840625 10.158437)scale(0.1 -0.1)">
      <defs>
       <path id="DejaVuSans-48" d="M 628 4666 
L 1259 4666 
L 1259 2753 
L 3553 2753 
L 3553 4666 
L 4184 4666 
L 4184 0 
L 3553 0 
L 3553 2222 
L 1259 2222 
L 1259 0 
L 628 0 
L 628 4666 
z
" transform="scale(0.015625)"/>
       <path id="DejaVuSans-2d" d="M 313 2009 
L 1997 2009 
L 1997 1497 
L 313 1497 
L 313 2009 
z
" transform="scale(0.015625)"/>
      </defs>
      <use xlink:href="#DejaVuSans-48"/>
      <use xlink:href="#DejaVuSans-69" x="75.195312"/>
      <use xlink:href="#DejaVuSans-44" x="102.978516"/>
      <use xlink:href="#DejaVuSans-2d" x="179.980469"/>
      <use xlink:href="#DejaVuSans-4e" x="216.064453"/>
      <use xlink:href="#DejaVuSans-65" x="290.869141"/>
      <use xlink:href="#DejaVuSans-74" x="352.392578"/>
     </g>
    </g>
    <g id="line2d_40">
     <path d="M 230.840625 21.336563 
L 240.840625 21.336563 
L 250.840625 21.336563 
" style="fill: none; stroke-dasharray: 5.55,2.4; stroke-dashoffset: 0; stroke: #c53932; stroke-width: 1.5"/>
     <g>
      <use xlink:href="#mebf85d5b27" x="240.840625" y="21.336563" style="fill: #c53932; stroke: #c53932; stroke-linejoin: bevel"/>
     </g>
    </g>
    <g id="text_22">
     <!-- GRAND -->
     <g transform="translate(258.840625 24.836563)scale(0.1 -0.1)">
      <use xlink:href="#DejaVuSans-47"/>
      <use xlink:href="#DejaVuSans-52" x="77.490234"/>
      <use xlink:href="#DejaVuSans-41" x="142.972656"/>
      <use xlink:href="#DejaVuSans-4e" x="211.380859"/>
      <use xlink:href="#DejaVuSans-44" x="286.185547"/>
     </g>
    </g>
   </g>
  </g>
 </g>
 <defs>
  <clipPath id="p6d60f003dc">
   <rect x="54" y="34.56" width="270" height="221.76"/>
  </clipPath>
 </defs>
</svg>
