<svg width="1128" height="604" xmlns="http://www.w3.org/2000/svg" xmlns:xlink="http://www.w3.org/1999/xlink" overflow="hidden"><defs><clipPath id="clip0"><rect x="40" y="56" width="1128" height="604"/></clipPath><clipPath id="clip1"><rect x="320" y="579" width="35" height="34"/></clipPath><clipPath id="clip2"><rect x="320" y="579" width="35" height="34"/></clipPath><clipPath id="clip3"><rect x="320" y="579" width="35" height="34"/></clipPath></defs><g clip-path="url(#clip0)" transform="translate(-40 -56)"><path d="M595 294.646C595 281.586 605.586 271 618.645 271L1138.35 271C1151.41 271 1162 281.586 1162 294.646L1162 629.354C1162 642.414 1151.41 653 1138.35 653L618.645 653C605.586 653 595 642.414 595 629.354Z" stroke="#7F7F7F" stroke-width="2" stroke-miterlimit="8" stroke-dasharray="6 2" fill="#DAE3F3" fill-rule="evenodd"/><path d="M595 83.8468C595 69.572 606.572 58 620.847 58L1136.15 58C1150.43 58 1162 69.572 1162 83.8468L1162 233.153C1162 247.428 1150.43 259 1136.15 259L620.847 259C606.572 259 595 247.428 595 233.153Z" stroke="#7F7F7F" stroke-width="2" stroke-miterlimit="8" stroke-dasharray="6 2" fill="#FFF2CC" fill-rule="evenodd"/><path d="M52 90.8688C52 72.7159 66.7159 58 84.8688 58L550.131 58C568.284 58 583 72.7159 583 90.8688L583 620.131C583 638.284 568.284 653 550.131 653L84.8688 653C66.7159 653 52 638.284 52 620.131Z" stroke="#7F7F7F" stroke-width="2" stroke-miterlimit="8" stroke-dasharray="6 2" fill="#F2F2F2" fill-rule="evenodd"/><path d="M941 296 1003 305.875 1003 505.125 941 515Z" stroke="#5B9BD5" stroke-width="2" stroke-miterlimit="8" fill="#BDD7EE" fill-rule="evenodd"/><path d="M113 193C113 188.582 116.582 185 121 185L153 185C157.418 185 161 188.582 161 193L161 507C161 511.418 157.418 515 153 515L121 515C116.582 515 113 511.418 113 507Z" stroke="#2F528F" stroke-width="2" stroke-miterlimit="8" fill="none" fill-rule="evenodd"/><path d="M121 210.5C121 201.94 127.94 195 136.5 195 145.06 195 152 201.94 152 210.5 152 219.06 145.06 226 136.5 226 127.94 226 121 219.06 121 210.5Z" stroke="#2F528F" stroke-width="2" stroke-miterlimit="8" fill="#B4C7E7" fill-rule="evenodd"/><path d="M121 249.5C121 240.94 127.94 234 136.5 234 145.06 234 152 240.94 152 249.5 152 258.06 145.06 265 136.5 265 127.94 265 121 258.06 121 249.5Z" stroke="#2F528F" stroke-width="2" stroke-miterlimit="8" fill="#B4C7E7" fill-rule="evenodd"/><path d="M121 289C121 280.716 127.94 274 136.5 274 145.06 274 152 280.716 152 289 152 297.284 145.06 304 136.5 304 127.94 304 121 297.284 121 289Z" stroke="#2F528F" stroke-width="2" stroke-miterlimit="8" fill="#B4C7E7" fill-rule="evenodd"/><path d="M121 328.5C121 319.94 127.94 313 136.5 313 145.06 313 152 319.94 152 328.5 152 337.06 145.06 344 136.5 344 127.94 344 121 337.06 121 328.5Z" stroke="#2F528F" stroke-width="2" stroke-miterlimit="8" fill="#B4C7E7" fill-rule="evenodd"/><path d="M121 367.5C121 358.94 127.94 352 136.5 352 145.06 352 152 358.94 152 367.5 152 376.06 145.06 383 136.5 383 127.94 383 121 376.06 121 367.5Z" stroke="#2F528F" stroke-width="2" stroke-miterlimit="8" fill="#B4C7E7" fill-rule="evenodd"/><path d="M121 407C121 398.716 127.94 392 136.5 392 145.06 392 152 398.716 152 407 152 415.284 145.06 422 136.5 422 127.94 422 121 415.284 121 407Z" stroke="#2F528F" stroke-width="2" stroke-miterlimit="8" fill="#B4C7E7" fill-rule="evenodd"/><path d="M121 446.5C121 437.94 127.94 431 136.5 431 145.06 431 152 437.94 152 446.5 152 455.06 145.06 462 136.5 462 127.94 462 121 455.06 121 446.5Z" stroke="#2F528F" stroke-width="2" stroke-miterlimit="8" fill="#B4C7E7" fill-rule="evenodd"/><path d="M121 485.5C121 476.94 127.94 470 136.5 470 145.06 470 152 476.94 152 485.5 152 494.06 145.06 501 136.5 501 127.94 501 121 494.06 121 485.5Z" stroke="#2F528F" stroke-width="2" stroke-miterlimit="8" fill="#B4C7E7" fill-rule="evenodd"/><path d="M510 133.5C510 129.358 513.358 126 517.5 126L517.5 126C521.642 126 525 129.358 525 133.5L525 206.5C525 210.642 521.642 214 517.5 214L517.5 214C513.358 214 510 210.642 510 206.5Z" stroke="#A5A5A5" stroke-width="2" stroke-miterlimit="8" fill="#DBDBDB" fill-rule="evenodd"/><path d="M510 242.5C510 238.358 513.358 235 517.5 235L517.5 235C521.642 235 525 238.358 525 242.5L525 310.5C525 314.642 521.642 318 517.5 318L517.5 318C513.358 318 510 314.642 510 310.5Z" stroke="#A5A5A5" stroke-width="2" stroke-miterlimit="8" fill="#DBDBDB" fill-rule="evenodd"/><path d="M510 349.5C510 345.358 513.358 342 517.5 342L517.5 342C521.642 342 525 345.358 525 349.5L525 416.5C525 420.642 521.642 424 517.5 424L517.5 424C513.358 424 510 420.642 510 416.5Z" stroke="#A5A5A5" stroke-width="2" stroke-miterlimit="8" fill="#DBDBDB" fill-rule="evenodd"/><path d="M510 494.5C510 490.358 513.358 487 517.5 487L517.5 487C521.642 487 525 490.358 525 494.5L525 561.5C525 565.642 521.642 569 517.5 569L517.5 569C513.358 569 510 565.642 510 561.5Z" stroke="#A5A5A5" stroke-width="2" stroke-miterlimit="8" fill="#DBDBDB" fill-rule="evenodd"/><path d="M161 349 201.105 349 201.105 527.382 200.105 526.382 232.543 526.382 232.543 528.382 199.105 528.382 199.105 350 200.105 351 161 351ZM231.21 523.382 239.21 527.382 231.21 531.382Z" fill="#4472C4"/><path d="M161 349 201.105 349 201.105 383.82 200.105 382.82 232.543 382.82 232.543 384.82 199.105 384.82 199.105 350 200.105 351 161 351ZM231.21 379.82 239.21 383.82 231.21 387.82Z" fill="#4472C4"/><path d="M0-1 39.705-1 39.705 73.36 38.705 72.36 70.7434 72.36 70.7434 74.36 37.705 74.36 37.705 0 38.705 1 0 1ZM69.4101 69.36 77.4101 73.36 69.4101 77.36Z" fill="#4472C4" transform="matrix(1 0 0 -1 161 350.36)"/><path d="M0-1 39.925-1 39.925 180.04 38.925 179.04 71.1834 179.04 71.1834 181.04 37.925 181.04 37.925 0 38.925 1 0 1ZM69.8501 176.04 77.8501 180.04 69.8501 184.04Z" fill="#4472C4" transform="matrix(1 0 0 -1 161 350.04)"/><path d="M433.008 526 503.322 526.571 503.305 528.571 432.992 528ZM502.013 523.561 509.98 527.625 501.948 531.56Z" fill="#4472C4"/><path d="M737 303C737 299.134 740.134 296 744 296L744 296C747.866 296 751 299.134 751 303L751 509C751 512.866 747.866 516 744 516L744 516C740.134 516 737 512.866 737 509Z" stroke="#A5A5A5" stroke-width="2" stroke-miterlimit="8" fill="#DBDBDB" fill-rule="evenodd"/><path d="M848 302.5C848 298.358 851.358 295 855.5 295L855.5 295C859.642 295 863 298.358 863 302.5L863 508.5C863 512.642 859.642 516 855.5 516L855.5 516C851.358 516 848 512.642 848 508.5Z" stroke="#A5A5A5" stroke-width="2" stroke-miterlimit="8" fill="#DBDBDB" fill-rule="evenodd"/><path d="M1062 310C1062 305.582 1065.58 302 1070 302L1102 302C1106.42 302 1110 305.582 1110 310L1110 501C1110 505.418 1106.42 509 1102 509L1070 509C1065.58 509 1062 505.418 1062 501Z" stroke="#2F528F" stroke-width="2" stroke-miterlimit="8" fill="#FFFFFF" fill-rule="evenodd"/><path d="M1070 328.5C1070 319.94 1076.72 313 1085 313 1093.28 313 1100 319.94 1100 328.5 1100 337.06 1093.28 344 1085 344 1076.72 344 1070 337.06 1070 328.5Z" stroke="#2F528F" stroke-width="2" stroke-miterlimit="8" fill="#B4C7E7" fill-rule="evenodd"/><path d="M1070 367.5C1070 358.94 1076.72 352 1085 352 1093.28 352 1100 358.94 1100 367.5 1100 376.06 1093.28 383 1085 383 1076.72 383 1070 376.06 1070 367.5Z" stroke="#2F528F" stroke-width="2" stroke-miterlimit="8" fill="#B4C7E7" fill-rule="evenodd"/><path d="M1070 407C1070 398.716 1076.72 392 1085 392 1093.28 392 1100 398.716 1100 407 1100 415.284 1093.28 422 1085 422 1076.72 422 1070 415.284 1070 407Z" stroke="#2F528F" stroke-width="2" stroke-miterlimit="8" fill="#B4C7E7" fill-rule="evenodd"/><path d="M1070 446.5C1070 437.94 1076.72 431 1085 431 1093.28 431 1100 437.94 1100 446.5 1100 455.06 1093.28 462 1085 462 1076.72 462 1070 455.06 1070 446.5Z" stroke="#2F528F" stroke-width="2" stroke-miterlimit="8" fill="#B4C7E7" fill-rule="evenodd"/><path d="M1070 485.5C1070 476.94 1076.72 470 1085 470 1093.28 470 1100 476.94 1100 485.5 1100 494.06 1093.28 501 1085 501 1076.72 501 1070 494.06 1070 485.5Z" stroke="#2F528F" stroke-width="2" stroke-miterlimit="8" fill="#B4C7E7" fill-rule="evenodd"/><path d="M433.001 169 503.674 169.073 503.672 171.073 432.999 171ZM502.344 166.072 510.34 170.08 502.336 174.072Z" fill="#4472C4"/><path d="M0.00148747-0.999999 71.1149-0.89422 71.1119 1.10578-0.00148747 0.999999ZM69.786-3.8962 77.7801 0.115696 69.7741 4.10379Z" fill="#4472C4" transform="matrix(1 0 0 -1 433 276.116)"/><path d="M0.00698258-0.999976 70.3206-0.508993 70.3066 1.49096-0.00698258 0.999976ZM69.0082-3.51823 76.98 0.537533 68.9523 4.48157Z" fill="#4472C4" transform="matrix(1 0 0 -1 433 383.538)"/><path d="M1062.06 407.226 1009.66 407.026 1009.67 405.026 1062.07 405.226ZM1010.98 410.031 1003 406 1011.02 402.031Z" fill="#4472C4"/><path d="M941.514 406.234 869.664 406.02 869.67 404.02 941.52 404.234ZM870.988 409.024 863 405 871.012 401.024Z" fill="#4472C4"/><g clip-path="url(#clip1)"><g clip-path="url(#clip2)"><g clip-path="url(#clip3)"><path d="M17.7083 24.5083 17.7083 26.3854 16.2917 26.3854 16.2917 24.5083C15.4771 24.225 14.875 23.4458 14.875 22.4896 14.875 21.3208 15.8313 20.3646 17 20.3646 18.1687 20.3646 19.125 21.3208 19.125 22.4896 19.125 23.4104 18.5229 24.1896 17.7083 24.5083ZM11.6875 11.5104C11.6875 8.57083 14.0604 6.19792 17 6.19792 19.9396 6.19792 22.3125 8.57083 22.3125 11.5104L22.3125 15.4417 17 15.0521 11.6875 15.4417 11.6875 11.5104ZM24.4375 15.5833 24.4375 11.5104C24.4375 7.40208 21.1083 4.07292 17 4.07292 12.8917 4.07292 9.5625 7.40208 9.5625 11.5104L9.5625 15.5833 7.08333 15.7604 7.08333 29.2188 17 29.9271 26.9167 29.2188 26.9167 15.7604 24.4375 15.5833Z" fill="#C0504D" transform="matrix(1.02941 0 -0 1 320 579)"/></g></g></g><path d="M226 121.556C226 114.069 232.069 108 239.556 108L431.444 108C438.931 108 445 114.069 445 121.556L445 585.444C445 592.931 438.931 599 431.444 599L239.556 599C232.069 599 226 592.931 226 585.444Z" stroke="#C0504D" stroke-width="2" stroke-miterlimit="8" stroke-dasharray="6 2" fill="none" fill-rule="evenodd"/><path d="M239 125 433 142.725 433 197.275 239 215Z" stroke="#5B9BD5" stroke-width="2" stroke-miterlimit="8" fill="#BDD7EE" fill-rule="evenodd"/><path d="M239 231 433 248.923 433 304.078 239 322Z" stroke="#5B9BD5" stroke-width="2" stroke-miterlimit="8" fill="#BDD7EE" fill-rule="evenodd"/><path d="M239 339 433 356.725 433 411.275 239 429Z" stroke="#5B9BD5" stroke-width="2" stroke-miterlimit="8" fill="#BDD7EE" fill-rule="evenodd"/><text fill="#262626" font-family="Calibri,Calibri_MSFontService,sans-serif" font-weight="400" font-size="21" transform="translate(608.92 640)">Target Classifier </text><path d="M239 482 433 499.923 433 555.078 239 573Z" stroke="#5B9BD5" stroke-width="2" stroke-miterlimit="8" fill="#BDD7EE" fill-rule="evenodd"/><text fill="#262626" font-family="Calibri,Calibri_MSFontService,sans-serif" font-style="italic" font-weight="700" font-size="24" transform="translate(330.273 442)">.<tspan x="0" y="13">.</tspan><tspan x="0" y="27">. </tspan><tspan font-family="Cambria Math,Cambria Math_MSFontService,sans-serif" font-style="normal" font-weight="400" font-size="21" x="-10.2014" y="-267">ğ’‡</tspan><tspan font-family="Cambria Math,Cambria Math_MSFontService,sans-serif" font-style="normal" font-weight="400" font-size="15" x="-0.201416" y="-263">ğ‘†</tspan><tspan font-family="Cambria Math,Cambria Math_MSFontService,sans-serif" font-style="normal" font-weight="400" font-size="13" x="10.7053" y="-260">1</tspan><tspan font-style="normal" font-weight="400" font-size="21" x="-104.221" y="186">Source Feature Extractors </tspan><tspan font-style="normal" font-weight="400" font-size="21" x="-222.319" y="103">Target</tspan><tspan font-style="normal" font-weight="400" font-size="21" x="-215.632" y="129">Data</tspan></text><path d="M0.00859512-0.999963 59.2625-0.49065 59.2453 1.50928-0.00859512 0.999963ZM57.955-3.502 65.9203 0.566614 57.8862 4.49771Z" fill="#4472C4" transform="matrix(1 0 0 -1 671 406.567)"/><path d="M765.5 389.834C765.5 385.231 769.231 381.5 773.834 381.5L823.167 381.5C827.769 381.5 831.5 385.231 831.5 389.834L831.5 423.167C831.5 427.769 827.769 431.5 823.167 431.5L773.834 431.5C769.231 431.5 765.5 427.769 765.5 423.167Z" stroke="#5B9BD5" stroke-width="1.33333" stroke-miterlimit="8" fill="#5B9BD5" fill-rule="evenodd"/><text fill="#FFFFFF" font-family="Calibri,Calibri_MSFontService,sans-serif" font-weight="400" font-size="24" transform="translate(777.101 414)">MCR</text><path d="M751.007 405 758.424 405.055 758.409 407.055 750.993 407ZM757.114 402.046 765.083 406.105 757.054 410.045Z" fill="#4472C4"/><path d="M0.0286975-0.999588 10.724-0.692532 10.6666 1.30664-0.0286975 0.999588ZM9.47735-3.72956 17.3593 0.498373 9.24777 4.26715Z" fill="#4472C4" transform="matrix(-1 -8.74228e-08 -8.74228e-08 1 848.359 405)"/><path d="M854.911 170 854.911 164 856.911 164 856.911 170ZM854.911 162 854.911 156 856.911 156 856.911 162ZM854.911 154 854.911 148 856.911 148 856.911 154ZM854.911 146 854.911 146 855.911 147 849.911 147 849.911 145 856.911 145 856.911 146ZM847.911 147 841.911 147 841.911 145 847.911 145ZM839.911 147 833.911 147 833.911 145 839.911 145ZM831.911 147 825.911 147 825.911 145 831.911 145ZM823.911 147 817.911 147 817.911 145 823.911 145ZM815.911 147 809.911 147 809.911 145 815.911 145ZM807.911 147 801.911 147 801.911 145 807.911 145ZM799.911 147 793.911 147 793.911 145 799.911 145ZM791.911 147 785.911 147 785.911 145 791.911 145ZM783.911 147 777.911 147 777.911 145 783.911 145ZM775.911 147 769.911 147 769.911 145 775.911 145ZM767.911 147 761.911 147 761.911 145 767.911 145ZM759.911 147 753.911 147 753.911 145 759.911 145ZM751.911 147 745.911 147 745.911 145 751.911 145ZM743.911 147 737.911 147 737.911 145 743.911 145ZM735.911 147 729.911 147 729.911 145 735.911 145ZM727.911 147 721.911 147 721.911 145 727.911 145ZM719.911 147 713.911 147 713.911 145 719.911 145ZM711.911 147 705.911 147 705.911 145 711.911 145ZM703.911 147 697.911 147 697.911 145 703.911 145ZM695.911 147 689.911 147 689.911 145 695.911 145ZM687.911 147 681.911 147 681.911 145 687.911 145ZM679.911 147 673.911 147 673.911 145 679.911 145ZM671.911 147 665.911 147 665.911 145 671.911 145ZM663.911 147 657.911 147 657.911 145 663.911 145ZM655.911 147 649.911 147 649.911 145 655.911 145ZM647.911 147 644 147 645 146 645 148.088 643 148.088 643 145 647.911 145ZM645 150.088 645 156.088 643 156.088 643 150.088ZM645 158.088 645 164.088 643 164.088 643 158.088ZM645 166.088 645 172.088 643 172.088 643 166.088ZM645 174.088 645 180.088 643 180.088 643 174.088ZM645 182.088 645 188.088 643 188.088 643 182.088ZM645 190.088 645 196.088 643 196.088 643 190.088ZM645 198.088 645 204.088 643 204.088 643 198.088ZM645 206.088 645 212.088 643 212.088 643 206.088ZM645 214.088 645 220.088 643 220.088 643 214.088ZM645 222.088 645 228.088 643 228.088 643 222.088ZM645 230.088 645 236.088 643 236.088 643 230.088ZM645 238.088 645 244.088 643 244.088 643 238.088ZM645 246.088 645 252.088 643 252.088 643 246.088ZM645 254.088 645 260.088 643 260.088 643 254.088ZM645 262.088 645 268.088 643 268.088 643 262.088ZM645 270.088 645 276.088 643 276.088 643 270.088ZM645 278.088 645 284.088 643 284.088 643 278.088ZM645 286.088 645 292.088 643 292.088 643 286.088ZM645 294.088 645 300.088 643 300.088 643 294.088ZM645 302.088 645 308.088 643 308.088 643 302.088ZM645 310.088 645 316.088 643 316.088 643 310.088ZM645 318.088 645 324.088 643 324.088 643 318.088ZM645 326.088 645 332.088 643 332.088 643 326.088ZM645 334.088 645 340.088 643 340.088 643 334.088ZM645 342.088 645 348.088 643 348.088 643 342.088ZM645 350.088 645 356.088 643 356.088 643 350.088ZM645 358.088 645 364.088 643 364.088 643 358.088ZM645 366.088 645 372.088 643 372.088 643 366.088ZM648 371.426 644 379.426 640 371.426Z" fill="#2F5597"/><text fill="#262626" font-family="Calibri,Calibri_MSFontService,sans-serif" font-weight="400" font-size="21" transform="translate(1060.02 541)">Target <tspan x="3.87341" y="26">Label </tspan></text><path d="M820 177.167C820 173.209 823.209 170 827.167 170L883.833 170C887.791 170 891 173.209 891 177.167L891 205.833C891 209.791 887.791 213 883.833 213L827.167 213C823.209 213 820 209.791 820 205.833Z" stroke="#2F5597" stroke-width="2" stroke-miterlimit="8" fill="#2F5597" fill-rule="evenodd"/><rect x="827.5" y="173.5" width="52" height="39" stroke="#2F5597" stroke-linejoin="round" stroke-miterlimit="10" fill="#2F5597"/><text fill="#FFFFFF" font-family="Calibri,Calibri_MSFontService,sans-serif" font-style="italic" font-weight="400" font-size="24" transform="translate(836.942 200)">H(f)</text><path d="M0-1 112.18-1 112.18 188.305 110.18 188.305 110.18 0 111.18 1 0 1ZM115.18 186.972 111.18 194.972 107.18 186.972Z" fill="#2F5597" transform="matrix(-4.37114e-08 -1 -1 4.37114e-08 1085.97 302.18)"/><path d="M743 295.266 743 190 813.542 190 813.542 192 744 192 745 191 745 295.266ZM812.209 187 820.209 191 812.209 195Z" fill="#2F5597"/><path d="M616 406.5C616 391.312 628.312 379 643.5 379 658.688 379 671 391.312 671 406.5 671 421.688 658.688 434 643.5 434 628.312 434 616 421.688 616 406.5Z" stroke="#2F5597" stroke-width="2" stroke-miterlimit="8" fill="#8FAADC" fill-rule="evenodd"/><text fill="#FFFFFF" font-family="Calibri,Calibri_MSFontService,sans-serif" font-weight="400" font-size="37" transform="translate(634.491 416)">+</text><path d="M525 169 571.555 169 571.555 406.386 570.555 405.386 609.444 405.386 609.444 407.386 569.555 407.386 569.555 170 570.555 171 525 171ZM608.111 402.386 616.111 406.386 608.111 410.386Z" fill="#4472C4"/><path d="M525 275 571.555 275 571.555 405.902 570.555 404.902 609.444 404.902 609.444 406.902 569.555 406.902 569.555 276 570.555 277 525 277ZM608.111 401.902 616.111 405.902 608.111 409.902Z" fill="#4472C4"/><path d="M525 382 571.555 382 571.555 406.144 570.555 405.144 609.444 405.144 609.444 407.144 569.555 407.144 569.555 383 570.555 384 525 384ZM608.111 402.144 616.111 406.144 608.111 410.144Z" fill="#4472C4"/><path d="M0-1 46.5553-1 46.5553 121.582 45.5553 120.582 84.444 120.582 84.444 122.582 44.5553 122.582 44.5553 0 45.5553 1 0 1ZM83.1107 117.582 91.1107 121.582 83.1107 125.582Z" fill="#4472C4" transform="matrix(1 0 0 -1 525 527.582)"/><text fill="#262626" font-family="Cambria Math,Cambria Math_MSFontService,sans-serif" font-weight="400" font-size="21" transform="translate(536.242 160)">ğ›¼<tspan font-size="15" x="12.34" y="4">1</tspan><tspan x="-0.380432" y="109">ğ›¼</tspan><tspan font-size="15" x="12.4529" y="113">2</tspan><tspan x="0.259583" y="215">ğ›¼</tspan><tspan font-size="15" x="13.0929" y="220">3</tspan><tspan x="-3.19641" y="359">ğ›¼</tspan><tspan font-size="15" x="9.63696" y="363">ğ‘€</tspan><tspan font-family="Calibri,Calibri_MSFontService,sans-serif" font-style="italic" font-weight="700" font-size="24" x="-20.1036" y="282">.</tspan><tspan font-family="Calibri,Calibri_MSFontService,sans-serif" font-style="italic" font-weight="700" font-size="24" x="-20.1036" y="295">.</tspan><tspan font-family="Calibri,Calibri_MSFontService,sans-serif" font-style="italic" font-weight="700" font-size="24" x="-20.1036" y="309">. </tspan><tspan x="-217.382" y="120">ğ’‡</tspan><tspan font-size="15" x="-207.382" y="125">ğ‘†</tspan><tspan font-size="13" x="-196.475" y="128">2</tspan><tspan x="-216.53" y="229">ğ’‡</tspan><tspan font-size="15" x="-206.53" y="234">ğ‘†</tspan><tspan font-size="13" x="-195.624" y="237">3</tspan><tspan x="-216.624" y="373">ğ’‡</tspan><tspan font-size="15" x="-206.624" y="377">ğ‘†</tspan><tspan font-size="13" x="-197.957" y="380">ğ‘€</tspan><tspan fill="#000000" font-family="Calibri,Calibri_MSFontService,sans-serif" x="67.5789" y="303">Weighted</tspan><tspan fill="#000000" font-family="Calibri,Calibri_MSFontService,sans-serif" x="72.4122" y="329">Sum</tspan><tspan fill="#000000" font-size="19" x="72.3456" y="373">ğ’‡</tspan><tspan fill="#000000" font-size="14" x="81.5122" y="376">ğ‘‡</tspan><tspan fill="#000000" font-size="19" x="96.2189" y="373">=</tspan></text><path d="M4.33252-22.3491 15.4004-7.31982 15.4004-6.19727 3.45117 10.0195 19.5474 10.0195C20.2586 10.0195 20.8029 9.76904 21.1802 9.26807 21.5575 8.76709 21.8822 7.64762 22.1543 5.90967L23.5273 5.90967 23.0542 12.71 0.241211 12.71 0.241211 11.7915 13.2388-5.82617 0.621582-22.6831 0.621582-23.5645 23.0264-23.5645 23.0264-18.0723 21.8018-18.0723C21.6595-19.3896 21.3719-20.4318 20.939-21.1987 20.506-21.9657 19.8504-22.3491 18.9722-22.3491Z" transform="translate(651.648 533)"/><text font-family="Cambria Math,Cambria Math_MSFontService,sans-serif" font-weight="400" font-size="19" transform="translate(679.508 533)">ğ›¼<tspan font-size="14" x="9.50665" y="3">ğ‘—</tspan><tspan x="21.2267" y="0">âˆ™</tspan><tspan x="30.7067" y="0">ğ’‡</tspan><tspan font-size="14" x="39.2067" y="3">ğ‘†</tspan><tspan font-size="11" x="46.7067" y="6">ğ‘—</tspan><tspan font-size="14" x="-21.6533" y="-28">ğ‘€</tspan><tspan font-size="14" x="-27.72" y="23">ğ‘—</tspan><tspan font-size="14" x="-20.92" y="23">=</tspan><tspan font-size="14" x="-11.0867" y="23">1</tspan><tspan fill="#262626" font-size="21" x="-229.777" y="-267">ğ’‡</tspan><tspan fill="#262626" font-size="15" x="-219.777" y="-263">ğ‘†</tspan><tspan fill="#262626" font-size="13" x="-208.871" y="-259">2</tspan><tspan fill="#262626" font-size="21" x="-197.271" y="-267">(</tspan><tspan fill="#262626" font-size="21" x="-190.437" y="-267">ğ‘¥</tspan><tspan fill="#262626" font-size="21" x="-180.457" y="-267">)</tspan><tspan fill="#262626" font-size="21" x="-230.632" y="-18">ğ’‡</tspan><tspan fill="#262626" font-size="15" x="-220.632" y="-13">ğ‘†</tspan><tspan fill="#262626" font-size="13" x="-211.966" y="-10">ğ‘€</tspan><tspan fill="#262626" font-size="21" x="-197.932" y="-18">(</tspan><tspan fill="#262626" font-size="21" x="-191.099" y="-18">ğ‘¥</tspan><tspan fill="#262626" font-size="21" x="-181.119" y="-18">)</tspan><tspan font-family="Calibri,Calibri_MSFontService,sans-serif" x="95.3641" y="18">Training Mode: </tspan><tspan x="130.004" y="44">ğ’ˆ</tspan><tspan font-size="14" x="141.337" y="47">ğ‘‡</tspan></text><path d="M848.075 562.4C849.881 562.876 851.268 563.904 852.236 565.485 853.204 567.065 853.688 568.971 853.688 571.204 853.688 573.443 853.205 575.349 852.24 576.924 851.275 578.498 849.887 579.523 848.075 579.999L847.852 579.285C849.281 578.808 850.343 577.868 851.039 576.464 851.735 575.06 852.083 573.276 852.083 571.111 852.083 569.021 851.736 567.284 851.043 565.902 850.351 564.52 849.278 563.59 847.824 563.114ZM836.188 562.4 836.438 563.114C834.991 563.59 833.919 564.52 833.224 565.902 832.528 567.284 832.18 569.021 832.18 571.111 832.18 573.276 832.528 575.06 833.224 576.464 833.919 577.868 834.982 578.808 836.41 579.285L836.188 579.999C834.376 579.523 832.987 578.498 832.022 576.924 831.057 575.349 830.575 573.443 830.575 571.204 830.575 568.971 831.059 567.065 832.027 565.485 832.995 563.904 834.382 562.876 836.188 562.4Z" fill-rule="evenodd"/><text font-family="Cambria Math,Cambria Math_MSFontService,sans-serif" font-weight="400" font-size="19" transform="translate(836.652 577)">ğ‘¦<tspan x="23.7533" y="0">=</tspan><tspan x="42.94" y="0">ğ”¼</tspan><tspan font-size="14" x="54.7733" y="3">ğ‘ƒ</tspan><tspan font-size="11" x="63.6066" y="6">ğ‘‹</tspan><tspan font-size="11" x="72.44" y="6">|</tspan><tspan font-size="11" x="75.94" y="6">ğ‘Œ</tspan></text><path d="M975.763 562.563 977.192 562.563 977.192 579.828 975.763 579.828ZM923.88 562.356 928.018 562.356 928.018 563.07 925.42 563.07 925.42 579.334 928.018 579.334 928.018 580.048 923.88 580.048ZM1026.59 562.356 1030.73 562.356 1030.73 580.048 1026.59 580.048 1026.59 579.334 1029.19 579.334 1029.19 563.07 1026.59 563.07Z" fill-rule="evenodd"/><text font-family="Cambria Math,Cambria Math_MSFontService,sans-serif" font-weight="400" font-size="19" transform="translate(928.298 577)">ğ’‡<tspan font-size="14" x="9.16663" y="3">ğ‘‡</tspan></text><path d="M966.328 562.4C968.134 562.876 969.521 563.904 970.489 565.485 971.457 567.065 971.941 568.971 971.941 571.204 971.941 573.443 971.458 575.349 970.494 576.924 969.529 578.498 968.14 579.523 966.328 579.999L966.105 579.285C967.534 578.808 968.596 577.868 969.292 576.464 969.988 575.06 970.336 573.276 970.336 571.111 970.336 569.021 969.99 567.284 969.297 565.902 968.604 564.52 967.531 563.59 966.078 563.114ZM952.808 562.4 953.058 563.114C951.611 563.59 950.539 564.52 949.844 565.902 949.148 567.284 948.8 569.021 948.8 571.111 948.8 573.276 949.148 575.06 949.844 576.464 950.539 577.868 951.602 578.808 953.03 579.285L952.808 579.999C950.996 579.523 949.607 578.498 948.642 576.924 947.677 575.349 947.195 573.443 947.195 571.204 947.195 568.971 947.679 567.065 948.647 565.485 949.615 563.904 951.002 562.876 952.808 562.4Z" fill-rule="evenodd"/><text font-family="Cambria Math,Cambria Math_MSFontService,sans-serif" font-weight="400" font-size="19" transform="translate(953.272 577)">ğ‘‹<tspan x="26.1066" y="0">ğ‘Œ</tspan><tspan x="42.9133" y="0">=</tspan><tspan x="62.1" y="0">ğ‘¦</tspan><tspan x="79.4534" y="0"> </tspan><tspan font-family="Calibri,Calibri_MSFontService,sans-serif" x="-173.567" y="30">Testing Mode:</tspan><tspan x="-141.793" y="59">ğ‘¦</tspan></text><path d="M4.55518-13.3779 7.70947-10.4556 7.2085-9.92676 3.93359-12.1812 3.83154-12.1812 0.500977-9.92676 0-10.4556 3.31201-13.3779Z" transform="translate(813.925 636)"/><text font-family="Cambria Math,Cambria Math_MSFontService,sans-serif" font-weight="400" font-size="19" transform="translate(822.298 636)">(<tspan x="7.66663" y="0">ğ‘¥</tspan><tspan x="18.2333" y="0">)</tspan><tspan x="31.0867" y="0">=</tspan><tspan x="50.2733" y="0">arg</tspan><tspan x="79.3867" y="0">max</tspan><tspan font-size="14" x="91.72" y="11">ğ‘¦</tspan><tspan x="116.167" y="0">ğ’‡</tspan><tspan font-size="14" x="127.333" y="4">ğ‘‡</tspan><tspan font-size="14" x="126.667" y="-8">T</tspan><tspan x="136.853" y="0"> </tspan></text><path d="M982.235 621.4C984.041 621.876 985.428 622.904 986.396 624.485 987.364 626.065 987.848 627.971 987.848 630.204 987.848 632.443 987.365 634.349 986.4 635.924 985.435 637.498 984.047 638.523 982.235 638.999L982.012 638.285C983.441 637.808 984.503 636.868 985.199 635.464 985.895 634.06 986.243 632.276 986.243 630.111 986.243 628.021 985.896 626.284 985.203 624.902 984.511 623.52 983.438 622.59 981.984 622.114ZM970.601 621.4 970.852 622.114C969.404 622.59 968.333 623.52 967.637 624.902 966.941 626.284 966.593 628.021 966.593 630.111 966.593 632.276 966.941 634.06 967.637 635.464 968.333 636.868 969.395 637.808 970.824 638.285L970.601 638.999C968.789 638.523 967.4 637.498 966.436 635.924 965.471 634.349 964.988 632.443 964.988 630.204 964.988 627.971 965.472 626.065 966.44 624.485 967.408 622.904 968.795 621.876 970.601 621.4Z" fill-rule="evenodd"/><text font-family="Cambria Math,Cambria Math_MSFontService,sans-serif" font-weight="400" font-size="19" transform="translate(971.065 636)">ğ‘¥<tspan x="18.3133" y="0">ğ’ˆ</tspan><tspan font-size="14" x="29.6467" y="3">ğ‘‡</tspan><tspan x="37.7067" y="0">(</tspan><tspan x="45.3733" y="0">ğ‘¦</tspan><tspan x="56.1934" y="0">)</tspan><tspan x="-206.59" y="-400">ğ»</tspan><tspan x="-192.377" y="-400"> </tspan></text><path d="M811.892 222.239C813.698 222.715 815.085 223.743 816.052 225.323 817.02 226.904 817.504 228.81 817.504 231.043 817.504 233.282 817.022 235.188 816.057 236.762 815.092 238.336 813.704 239.361 811.892 239.838L811.669 239.123C813.098 238.647 814.16 237.707 814.856 236.303 815.551 234.899 815.899 233.115 815.899 230.95 815.899 228.86 815.553 227.123 814.86 225.741 814.168 224.358 813.095 223.429 811.641 222.953ZM790.138 222.239 790.388 222.953C788.941 223.429 787.87 224.358 787.174 225.741 786.478 227.123 786.13 228.86 786.13 230.95 786.13 233.115 786.478 234.899 787.174 236.303 787.87 237.707 788.932 238.647 790.361 239.123L790.138 239.838C788.326 239.361 786.937 238.336 785.972 236.762 785.008 235.188 784.525 233.282 784.525 231.043 784.525 228.81 785.009 226.904 785.977 225.323 786.945 223.743 788.332 222.715 790.138 222.239Z" fill-rule="evenodd"/><text font-family="Cambria Math,Cambria Math_MSFontService,sans-serif" font-weight="400" font-size="19" transform="translate(790.602 236)">ğ’‡<tspan font-size="14" x="11.1666" y="4">ğ‘‡</tspan><tspan x="33.62" y="0">=</tspan><tspan x="52.8066" y="0">ğ‘¡ğ‘Ÿ</tspan><tspan x="69.3867" y="0">(</tspan><tspan x="77.0533" y="0">ğ‘ğ‘œğ‘£</tspan><tspan x="106.433" y="0">(</tspan><tspan x="114.1" y="0">ğ”¼</tspan><tspan font-size="14" x="125.933" y="4">ğ‘ƒ</tspan><tspan font-size="11" x="134.767" y="7">ğ‘‹</tspan><tspan font-size="11" x="143.6" y="7">|</tspan><tspan font-size="11" x="147.1" y="7">ğ‘Œ</tspan><tspan x="156.273" y="0">[</tspan>ğ’‡<tspan font-size="14" x="173.94" y="4">ğ‘‡</tspan><tspan x="183.46" y="0">(</tspan><tspan x="191.127" y="0">ğ‘‹</tspan><tspan font-size="14" x="202.973" y="4">ğ‘‡</tspan><tspan x="212.493" y="0">)</tspan><tspan x="220.16" y="0">|</tspan><tspan x="225.993" y="0">ğ‘Œ</tspan><tspan font-size="14" x="234.767" y="4">ğ‘‡</tspan><tspan x="244.287" y="0">]</tspan>)<tspan x="258.453" y="0">)</tspan><tspan x="-120.745" y="-110">ğœ¶</tspan><tspan x="-103.058" y="-110">=</tspan><tspan x="-83.8713" y="-110">arg</tspan><tspan x="-54.7579" y="-110">max</tspan><tspan font-size="14" x="-42.5113" y="-99">ğœ¶</tspan><tspan x="-17.9779" y="-110">ğ»</tspan><tspan x="-3.76459" y="-110"> </tspan><tspan x="0.4021" y="-110">(</tspan><tspan x="8.06873" y="-110">ğ’‡</tspan><tspan font-size="14" x="19.2354" y="-107">ğ‘‡</tspan><tspan x="28.7554" y="-110">)</tspan><tspan fill="#262626" font-size="21" x="-111.88" y="160">ğ’‡</tspan><tspan fill="#262626" font-size="15" x="-101.12" y="165">ğ‘‡</tspan><tspan fill="#262626" font-size="21" x="-91.72" y="160">(</tspan><tspan fill="#262626" font-size="21" x="-82.8867" y="160">ğ‘¥</tspan><tspan fill="#262626" font-size="21" x="-70.9066" y="160">)</tspan><tspan fill="#262626" font-size="21" x="80.249" y="160">ğ’ˆ</tspan><tspan fill="#262626" font-size="15" x="93.509" y="164">ğ‘‡</tspan><tspan fill="#262626" font-size="21" x="102.909" y="160">(</tspan><tspan fill="#262626" font-size="21" x="111.742" y="160">ğ‘¦</tspan><tspan fill="#262626" font-size="21" x="124.109" y="160">)</tspan><tspan fill="#262626" font-size="21" x="170.18" y="174">ğ’ˆ</tspan><tspan fill="#262626" font-size="15" x="183.44" y="178">ğ‘‡</tspan><tspan fill="#262626" font-size="21" x="334.878" y="179">ğ‘Œ</tspan><tspan fill="#262626" font-size="15" x="344.972" y="183">ğ‘‡</tspan><tspan fill="#262626" font-size="21" x="-711.276" y="121">ğ‘‹</tspan><tspan fill="#262626" font-size="15" x="-697.623" y="126">ğ‘‡</tspan><tspan fill="#262626" font-family="Calibri,Calibri_MSFontService,sans-serif" font-size="21" x="-716.817" y="-153">Targe</tspan><tspan fill="#262626" font-family="Calibri,Calibri_MSFontService,sans-serif" font-size="21" x="-670.404" y="-153">t</tspan><tspan fill="#262626" font-family="Calibri,Calibri_MSFontService,sans-serif" font-size="21" x="-658.404" y="-153">Feature Extractor </tspan><tspan fill="#262626" font-family="Calibri,Calibri_MSFontService,sans-serif" font-size="21" x="-178.721" y="-153">Weight Optimizer</tspan><tspan fill="#262626" font-size="21" x="-339.269" y="136">ğ’‡</tspan><tspan fill="#262626" font-size="15" x="-329.269" y="140">ğ‘†</tspan><tspan fill="#262626" font-size="13" x="-318.362" y="143">3</tspan><tspan fill="#262626" font-size="21" x="-309.162" y="136">(</tspan><tspan fill="#262626" font-size="21" x="-302.329" y="136">ğ‘¥</tspan><tspan fill="#262626" font-size="21" x="-292.349" y="136">)</tspan><tspan fill="#262626" font-size="21" x="-340.484" y="-78">ğ’‡</tspan><tspan fill="#262626" font-size="15" x="-330.484" y="-73">ğ‘†</tspan><tspan fill="#262626" font-size="13" x="-319.577" y="-70">1</tspan><tspan fill="#262626" font-size="21" x="-307.977" y="-78">(</tspan><tspan fill="#262626" font-size="21" x="-301.144" y="-78">ğ‘¥</tspan><tspan fill="#262626" font-size="21" x="-291.164" y="-78">)</tspan></text></g></svg>