<svg width="396" height="235" xmlns="http://www.w3.org/2000/svg" xmlns:xlink="http://www.w3.org/1999/xlink" overflow="hidden"><defs><clipPath id="clip0"><rect x="393" y="150" width="396" height="235"/></clipPath><clipPath id="clip1"><rect x="448" y="270" width="26" height="26"/></clipPath><clipPath id="clip2"><rect x="448" y="270" width="26" height="26"/></clipPath><clipPath id="clip3"><rect x="448" y="270" width="26" height="26"/></clipPath><clipPath id="clip4"><rect x="451" y="198" width="26" height="25"/></clipPath><clipPath id="clip5"><rect x="451" y="198" width="26" height="25"/></clipPath><clipPath id="clip6"><rect x="451" y="198" width="26" height="25"/></clipPath></defs><g clip-path="url(#clip0)" transform="translate(-393 -150)"><path d="M760.333 260C764.567 260 768 263.433 768 267.667L768 298.333C768 302.568 764.567 306 760.333 306L728.667 306C724.432 306 721 302.568 721 298.333L721 267.667C721 263.433 724.432 260 728.667 260Z" stroke="#5B9BD5" stroke-width="2" stroke-miterlimit="8" fill="#BDD7EE" fill-rule="evenodd"/><path d="M647.333 260C651.567 260 655 263.433 655 267.667L655 298.333C655 302.568 651.567 306 647.333 306L615.667 306C611.432 306 608 302.568 608 298.333L608 267.667C608 263.433 611.432 260 615.667 260Z" stroke="#5B9BD5" stroke-width="2" stroke-miterlimit="8" fill="#BDD7EE" fill-rule="evenodd"/><path d="M584.333 260C588.567 260 592 263.433 592 267.667L592 298.333C592 302.568 588.567 306 584.333 306L552.667 306C548.432 306 545 302.568 545 298.333L545 267.667C545 263.433 548.432 260 552.667 260Z" stroke="#5B9BD5" stroke-width="2" stroke-miterlimit="8" fill="#BDD7EE" fill-rule="evenodd"/><path d="M525.333 260C529.567 260 533 263.433 533 267.667L533 298.333C533 302.567 529.567 306 525.333 306L490.667 306C486.433 306 483 302.567 483 298.333L483 267.667C483 263.433 486.433 260 490.667 260Z" stroke="#5B9BD5" stroke-width="2" stroke-miterlimit="8" fill="#BDD7EE" fill-rule="evenodd"/><text fill="#404040" font-family="Adobe Devanagari,Adobe Devanagari_MSFontService,sans-serif" font-style="italic" font-weight="700" font-size="24" transform="matrix(6.12323e-17 1 -1 6.12323e-17 702.199 283)">.<tspan x="-7.9602e-16" y="13">.</tspan><tspan x="-1.65327e-15" y="27">. </tspan></text><g clip-path="url(#clip1)"><g clip-path="url(#clip2)"><g clip-path="url(#clip3)"><path d="M461.542 288.742 461.542 290.177 460.458 290.177 460.458 288.742C459.835 288.525 459.375 287.929 459.375 287.198 459.375 286.304 460.106 285.573 461 285.573 461.894 285.573 462.625 286.304 462.625 287.198 462.625 287.902 462.165 288.498 461.542 288.742ZM456.938 278.802C456.938 276.554 458.752 274.74 461 274.74 463.248 274.74 465.062 276.554 465.062 278.802L465.062 281.808 461 281.51 456.938 281.808 456.938 278.802ZM466.688 281.917 466.688 278.802C466.688 275.66 464.142 273.115 461 273.115 457.858 273.115 455.312 275.66 455.312 278.802L455.312 281.917 453.417 282.052 453.417 292.344 461 292.885 468.583 292.344 468.583 282.052 466.688 281.917Z" fill="#C0504D"/></g></g></g><path d="M777.194 253C783.162 253 788 257.838 788 263.806L788 303.194C788 309.162 783.162 314 777.194 314L455.806 314C449.838 314 445 309.162 445 303.194L445 263.806C445 257.838 449.838 253 455.806 253Z" stroke="#C0504D" stroke-width="2" stroke-miterlimit="8" stroke-dasharray="6 2" fill="none" fill-rule="evenodd"/><path d="M744.243 253.984 744 233.012 746 232.988 746.243 253.96ZM749.228 252.592 745.321 260.638 741.228 252.685Z" fill="#262626"/><path d="M630.555 254 630 233.026 632 232.974 632.554 253.947ZM635.518 252.535 631.73 260.638 627.52 252.746Z" fill="#262626"/><path d="M1.03255 6.66171 1.135 27.6333-0.864975 27.6431-0.967422 6.67147ZM-3.96087 8.01944 0 0 4.03903 7.98036Z" fill="#262626" transform="matrix(1 0 0 -1 569 260.638)"/><path d="M507.116 253.977 507 233.006 509 232.994 509.116 253.966ZM512.109 252.616 508.153 260.638 504.109 252.66Z" fill="#262626"/><path d="M697 347C700.314 347 703 349.686 703 353L703 377C703 380.314 700.314 383 697 383L549 383C545.686 383 543 380.314 543 377L543 353C543 349.686 545.686 347 549 347Z" stroke="#4472C4" stroke-width="2" stroke-miterlimit="8" fill="#B4C7E7" fill-rule="evenodd"/><text fill="#262626" font-family="Calibri,Calibri_MSFontService,sans-serif" font-weight="400" font-size="16" transform="translate(589.493 370)">Target <tspan x="43.8067" y="0">Task</tspan><tspan x="-140.767" y="-199">Source Data</tspan></text><path d="M605 330.5 613.75 330.5 613.75 315 631.25 315 631.25 330.5 640 330.5 622.5 346Z" fill="#C0504D" fill-rule="evenodd"/><path d="M760.333 187C764.567 187 768 190.433 768 194.667L768 225.333C768 229.568 764.567 233 760.333 233L728.667 233C724.432 233 721 229.568 721 225.333L721 194.667C721 190.433 724.432 187 728.667 187Z" stroke="#A5A5A5" stroke-width="2" stroke-miterlimit="8" fill="#DBDBDB" fill-rule="evenodd"/><path d="M647.333 187C651.567 187 655 190.433 655 194.667L655 225.333C655 229.568 651.567 233 647.333 233L615.667 233C611.432 233 608 229.568 608 225.333L608 194.667C608 190.433 611.432 187 615.667 187Z" stroke="#A5A5A5" stroke-width="2" stroke-miterlimit="8" fill="#DBDBDB" fill-rule="evenodd"/><path d="M584.333 187C588.567 187 592 190.433 592 194.667L592 225.333C592 229.568 588.567 233 584.333 233L552.667 233C548.432 233 545 229.568 545 225.333L545 194.667C545 190.433 548.432 187 552.667 187Z" stroke="#A5A5A5" stroke-width="2" stroke-miterlimit="8" fill="#DBDBDB" fill-rule="evenodd"/><path d="M523.333 187C527.567 187 531 190.433 531 194.667L531 225.333C531 229.568 527.567 233 523.333 233L491.667 233C487.432 233 484 229.568 484 225.333L484 194.667C484 190.433 487.432 187 491.667 187Z" stroke="#A5A5A5" stroke-width="2" stroke-miterlimit="8" fill="#DBDBDB" fill-rule="evenodd"/><text fill="#404040" font-family="Adobe Devanagari,Adobe Devanagari_MSFontService,sans-serif" font-style="italic" font-weight="700" font-size="24" transform="matrix(6.12323e-17 1 -1 6.12323e-17 702.505 208)">.<tspan x="-7.9602e-16" y="13">.</tspan><tspan x="-1.65327e-15" y="27">. </tspan></text><path d="M777.194 180C783.162 180 788 184.838 788 190.806L788 230.194C788 236.162 783.162 241 777.194 241L455.806 241C449.838 241 445 236.162 445 230.194L445 190.806C445 184.838 449.838 180 455.806 180Z" stroke="#767171" stroke-width="2" stroke-miterlimit="8" stroke-dasharray="6 2" fill="none" fill-rule="evenodd"/><g clip-path="url(#clip4)"><g clip-path="url(#clip5)"><g clip-path="url(#clip6)"><path d="M13.1615 9.8724C11.9995 9.497 10.7533 10.1346 10.3779 11.2966 10.3067 11.5171 10.2705 11.7474 10.2708 11.9792 10.2701 12.2091 10.3061 12.4377 10.3776 12.6562Z" fill="#767171" transform="matrix(1.04 0 -0 1 451 198)"/><path d="M6.96094 16.0729 8.10417 14.9297C6.80365 14.1958 5.60727 13.291 4.54687 12.2396 5.11531 11.6119 5.72427 11.0221 6.36979 10.474 7.15646 9.79893 8.01594 9.21372 8.93229 8.72917 7.45266 10.3403 7.25122 12.7488 8.44271 14.5833L9.14062 13.8854C8.08805 12.0369 8.73326 9.68516 10.5817 8.63258 11.765 7.95878 13.2161 7.95984 14.3984 8.63542L16.0339 7C14.9197 6.48734 13.7107 6.21325 12.4844 6.19531 8.17448 6.19531 4.5 9.9401 3.10937 11.5729 2.75208 11.9948 2.76776 12.6175 3.14583 13.0208 4.28018 14.1989 5.56258 15.2248 6.96094 16.0729Z" fill="#767171" transform="matrix(1.04 0 -0 1 451 198)"/><path d="M18.1536 8.19531 22.151 4.19792 21.0469 3.09375 3.33854 20.8021 4.44271 21.9062 9.20052 17.1484C10.2509 17.5431 11.3624 17.7502 12.4844 17.7604 16.7526 17.7604 20.3958 14.4974 21.8229 13.0208 22.2044 12.621 22.2268 11.9991 21.875 11.5729 20.7829 10.2937 19.5324 9.1587 18.1536 8.19531ZM12.4844 15.8333C11.9273 15.8344 11.3769 15.7126 10.8724 15.4766L12.1745 14.1745C12.2754 14.189 12.3772 14.1968 12.4792 14.1979 13.7011 14.1965 14.6913 13.2063 14.6927 11.9844 14.6915 11.8824 14.6836 11.7807 14.6693 11.6797L15.9714 10.3776C16.8659 12.3059 16.0279 14.5943 14.0996 15.4889 13.5903 15.7252 13.0354 15.8472 12.474 15.8464ZM15.8281 15.4427C17.398 13.9346 17.7531 11.5574 16.6927 9.65625L17.0312 9.31771C18.2796 10.1485 19.4172 11.1348 20.4167 12.2526 19.4557 13.1849 17.8099 14.5833 15.8281 15.4427Z" fill="#767171" transform="matrix(1.04 0 -0 1 451 198)"/></g></g></g><text fill="#404040" font-family="Times New Roman,Times New Roman_MSFontService,sans-serif" font-style="italic" font-weight="700" font-size="19" transform="translate(499.593 215)">D<tspan font-size="12" x="13.5" y="4">1</tspan><tspan x="61.5588" y="0">D</tspan><tspan font-size="12" x="75.0588" y="4">2</tspan><tspan x="123.685" y="0">D</tspan><tspan font-size="12" x="137.185" y="4">3</tspan><tspan x="234.12" y="0">D</tspan><tspan font-size="12" x="247.62" y="4">M</tspan><tspan font-size="21" x="0.416992" y="73">θ</tspan><tspan font-size="14" x="11.417" y="77">1</tspan><tspan font-size="21" x="62.4484" y="73">θ</tspan><tspan font-size="14" x="73.4484" y="77">2</tspan><tspan font-size="21" x="125.431" y="73">θ</tspan><tspan font-size="14" x="136.431" y="77">3</tspan><tspan font-size="21" x="234.663" y="73">θ</tspan><tspan font-size="14" x="245.663" y="77">M</tspan><tspan fill="#262626" font-family="Calibri,Calibri_MSFontService,sans-serif" font-style="normal" font-weight="400" font-size="16" x="-45.5284" y="120">Source Model</tspan><tspan fill="#C0504D" font-family="Calibri,Calibri_MSFontService,sans-serif" font-style="normal" font-weight="400" font-size="16" x="148.325" y="119">Transfer</tspan></text></g></svg>