<svg width="687" height="468" xmlns="http://www.w3.org/2000/svg" xmlns:xlink="http://www.w3.org/1999/xlink" overflow="hidden"><defs><clipPath id="clip0"><rect x="279" y="143" width="687" height="468"/></clipPath><clipPath id="clip1"><rect x="279" y="143" width="686" height="467"/></clipPath><clipPath id="clip2"><rect x="279" y="143" width="686" height="467"/></clipPath><clipPath id="clip3"><rect x="351" y="158" width="597" height="400"/></clipPath><clipPath id="clip4"><rect x="351" y="158" width="597" height="400"/></clipPath><clipPath id="clip5"><rect x="351" y="158" width="597" height="400"/></clipPath><clipPath id="clip6"><rect x="351" y="158" width="597" height="400"/></clipPath><clipPath id="clip7"><rect x="351" y="158" width="597" height="400"/></clipPath><clipPath id="clip8"><rect x="351" y="158" width="597" height="400"/></clipPath><clipPath id="clip9"><rect x="351" y="158" width="597" height="400"/></clipPath><clipPath id="clip10"><rect x="351" y="158" width="597" height="400"/></clipPath><clipPath id="clip11"><rect x="351" y="158" width="597" height="400"/></clipPath><clipPath id="clip12"><rect x="351" y="158" width="597" height="400"/></clipPath></defs><g clip-path="url(#clip0)" transform="translate(-279 -143)"><g clip-path="url(#clip1)"><g clip-path="url(#clip2)"><path d="M0 528.412 768.599 528.412 768.599 0 0 0Z" fill="#FFFFFF" transform="matrix(1.00015 0 -0 1 255.477 95.575)"/><path d="M96.0749 462.361 691.739 462.361 691.739 63.4094 96.0749 63.4094Z" fill="#FFFFFF" transform="matrix(1.00015 0 -0 1 255.477 95.575)"/><path d="M0 0 0 8.00624" stroke="#262626" stroke-width="1.33437" stroke-linejoin="round" fill="none" transform="matrix(1.00015 0 -0 1 378.646 557.936)"/><path d="M-3.44018-1.04873-3.60906-0.0125098C-3.27964 0.0569889-2.98427 0.0917382-2.72296 0.0917382-2.29762 0.0917382-1.96751 0.0243245-1.7326-0.110503-1.49909-0.24533-1.33437-0.422552-1.23847-0.642167-1.14256-0.861783-1.0946-1.32325-1.0946-2.02658L-1.0946-6.00677-0.2356-6.00677-0.2356-6.91998-1.0946-6.91998-1.0946-8.63382-2.2601-9.33645-2.2601-6.91998-3.44018-6.91998-3.44018-6.00677-2.2601-6.00677-2.2601-1.96195C-2.2601-1.62696-2.28095-1.41152-2.32264-1.31561-2.36434-1.22109-2.43176-1.14534-2.52489-1.08835-2.61801-1.03136-2.75145-1.00287-2.9252-1.00287-3.05586-1.00287-3.22752-1.01815-3.44018-1.04873Z" fill="#262626" transform="matrix(-1.00015 -0 -0 1 373.082 584.834)"/><path d="M-0.554599-4.70992C-0.554599-5.83997-0.670662-6.74901-0.902787-7.43705-1.13491-8.12648-1.47963-8.65744-1.93693-9.02996-2.39562-9.40386-2.97246-9.59081-3.66744-9.59081-4.18034-9.59081-4.63-9.48726-5.01641-9.28015-5.40282-9.07444-5.72182-8.77698-5.97341-8.38779-6.22638-7.99999-6.42445-7.5267-6.56762-6.96793-6.71079-6.41055-6.78237-5.65788-6.78237-4.70992-6.78237-3.5896-6.667-2.68543-6.43627-1.99739-6.20692-1.30935-5.86291-0.776995-5.40421-0.400312-4.94691-0.0250195-4.36799 0.162627-3.66744 0.162627-2.74728 0.162627-2.0245-0.167492-1.49909-0.827729-0.869428-1.62279-0.554599-2.91686-0.554599-4.70992ZM-1.75971-4.70992C-1.75971-3.14203-1.94318-2.09816-2.31013-1.57831-2.67709-1.05985-3.12952-0.800624-3.66744-0.800624-4.20675-0.800624-4.65988-1.06124-5.02684-1.58248-5.39379-2.10372-5.57727-3.1462-5.57727-4.70992-5.57727-6.28337-5.39379-7.32794-5.02684-7.84362-4.65988-8.36069-4.20258-8.61922-3.65493-8.61922-3.11701-8.61922-2.68682-8.39127-2.36434-7.93535-1.96125-7.35435-1.75971-6.2792-1.75971-4.70992Z" fill="#262626" transform="matrix(-1.00015 -0 -0 1 376.79 584.834)"/><path d="M0 0 0 8.00624" stroke="#262626" stroke-width="1.33437" stroke-linejoin="round" fill="none" transform="matrix(1.00015 0 -0 1 468.912 557.936)"/><path d="M-3.44018-1.04873-3.60906-0.0125098C-3.27964 0.0569889-2.98427 0.0917382-2.72296 0.0917382-2.29762 0.0917382-1.96751 0.0243245-1.7326-0.110503-1.49909-0.24533-1.33437-0.422552-1.23847-0.642167-1.14256-0.861783-1.0946-1.32325-1.0946-2.02658L-1.0946-6.00677-0.2356-6.00677-0.2356-6.91998-1.0946-6.91998-1.0946-8.63382-2.2601-9.33645-2.2601-6.91998-3.44018-6.91998-3.44018-6.00677-2.2601-6.00677-2.2601-1.96195C-2.2601-1.62696-2.28095-1.41152-2.32264-1.31561-2.36434-1.22109-2.43176-1.14534-2.52489-1.08835-2.61801-1.03136-2.75145-1.00287-2.9252-1.00287-3.05586-1.00287-3.22752-1.01815-3.44018-1.04873Z" fill="#262626" transform="matrix(-1.00015 -0 -0 1 463.347 584.834)"/><path d="M-4.97054 0-3.7988 0-3.7988-7.47249C-3.51663-7.20423-3.1462-6.93527-2.68751-6.66561-2.22882-6.39596-1.81739-6.19372-1.45322-6.05889L-1.45322-7.19311C-2.10928-7.50168-2.68265-7.87489-3.17331-8.31273-3.66397-8.75196-4.01146-9.17799-4.21579-9.59081L-4.97054-9.59081Z" fill="#262626" transform="matrix(-1.00015 -0 -0 1 467.055 584.834)"/><path d="M0 0 0 8.00624" stroke="#262626" stroke-width="1.33437" stroke-linejoin="round" fill="none" transform="matrix(1.00015 0 -0 1 559.177 557.936)"/><path d="M-3.44018-1.04873-3.60906-0.0125098C-3.27964 0.0569889-2.98427 0.0917382-2.72296 0.0917382-2.29762 0.0917382-1.96751 0.0243245-1.7326-0.110503-1.49909-0.24533-1.33437-0.422552-1.23847-0.642167-1.14256-0.861783-1.0946-1.32325-1.0946-2.02658L-1.0946-6.00677-0.2356-6.00677-0.2356-6.91998-1.0946-6.91998-1.0946-8.63382-2.2601-9.33645-2.2601-6.91998-3.44018-6.91998-3.44018-6.00677-2.2601-6.00677-2.2601-1.96195C-2.2601-1.62696-2.28095-1.41152-2.32264-1.31561-2.36434-1.22109-2.43176-1.14534-2.52489-1.08835-2.61801-1.03136-2.75145-1.00287-2.9252-1.00287-3.05586-1.00287-3.22752-1.01815-3.44018-1.04873Z" fill="#262626" transform="matrix(-1.00015 -0 -0 1 553.613 584.834)"/><path d="M-6.71774-1.12796-6.71774 0-0.404482 0C-0.396142-0.282164-0.441316-0.553904-0.540004-0.815219-0.701241-1.24472-0.958386-1.66797-1.31144-2.08496-1.66588-2.50195-2.17809-2.98427-2.84805-3.53192-3.88636-4.38258-4.5876-5.05672-4.95178-5.55433-5.31734-6.05194-5.50012-6.52245-5.50012-6.96585-5.50012-7.4301-5.33333-7.82138-4.99973-8.13968-4.66753-8.45937-4.23455-8.61922-3.7008-8.61922-3.13647-8.61922-2.68473-8.44964-2.34558-8.11049-2.00643-7.77273-1.83476-7.30431-1.83059-6.70523L-0.625488-6.82824C-0.707496-7.72755-1.01746-8.41281-1.55538-8.88401-2.09469-9.35521-2.81886-9.59081-3.72791-9.59081-4.6439-9.59081-5.36877-9.33645-5.90252-8.82772-6.43766-8.32038-6.70523-7.69072-6.70523-6.93874-6.70523-6.5565-6.62669-6.18051-6.46963-5.81078-6.31395-5.44244-6.05472-5.05394-5.69194-4.64529-5.32916-4.23664-4.7266-3.67648-3.88428-2.96481-3.17956-2.37407-2.72713-1.97307-2.52697-1.76179-2.3282-1.5519-2.16349-1.34063-2.03284-1.12796Z" fill="#262626" transform="matrix(-1.00015 -0 -0 1 557.321 584.834)"/><path d="M0 0 0 8.00624" stroke="#262626" stroke-width="1.33437" stroke-linejoin="round" fill="none" transform="matrix(1.00015 0 -0 1 649.443 557.936)"/><path d="M-3.44018-1.04873-3.60906-0.0125098C-3.27964 0.0569889-2.98427 0.0917382-2.72296 0.0917382-2.29762 0.0917382-1.96751 0.0243245-1.7326-0.110503-1.49909-0.24533-1.33437-0.422552-1.23847-0.642167-1.14256-0.861783-1.0946-1.32325-1.0946-2.02658L-1.0946-6.00677-0.2356-6.00677-0.2356-6.91998-1.0946-6.91998-1.0946-8.63382-2.2601-9.33645-2.2601-6.91998-3.44018-6.91998-3.44018-6.00677-2.2601-6.00677-2.2601-1.96195C-2.2601-1.62696-2.28095-1.41152-2.32264-1.31561-2.36434-1.22109-2.43176-1.14534-2.52489-1.08835-2.61801-1.03136-2.75145-1.00287-2.9252-1.00287-3.05586-1.00287-3.22752-1.01815-3.44018-1.04873Z" fill="#262626" transform="matrix(-1.00015 -0 -0 1 643.879 584.834)"/><path d="M-0.560854-2.52072-1.7326-2.67709C-1.86743-2.01268-2.09677-1.53383-2.42064-1.24055-2.7445-0.947266-3.13856-0.800624-3.60281-0.800624-4.15463-0.800624-4.62027-0.991746-4.99973-1.37399-5.38058-1.75623-5.57101-2.23021-5.57101-2.79593-5.57101-3.33385-5.39518-3.77725-5.04352-4.12613-4.69185-4.47641-4.24428-4.65154-3.7008-4.65154-3.4798-4.65154-3.20389-4.60845-2.87307-4.52228L-3.00443-5.55225C-3.08226-5.54252-3.14481-5.53765-3.19207-5.53765-3.69246-5.53765-4.14212-5.66761-4.54104-5.92754-4.94135-6.18885-5.14151-6.59125-5.14151-7.13473-5.14151-7.56423-4.99556-7.92006-4.70367-8.20223-4.41316-8.48578-4.03787-8.62756-3.57779-8.62756-3.12188-8.62756-2.74172-8.4837-2.43732-8.19597-2.13291-7.90964-1.93762-7.48014-1.85144-6.90747L-0.677612-7.11597C-0.820779-7.9013-1.14603-8.51011-1.65337-8.94239-2.1621-9.37467-2.79454-9.59081-3.55069-9.59081-4.07193-9.59081-4.55147-9.47892-4.98931-9.25513-5.42854-9.03135-5.76422-8.72625-5.99634-8.33984-6.22986-7.95342-6.34662-7.54269-6.34662-7.10763-6.34662-6.69619-6.23542-6.3209-6.01302-5.98175-5.79202-5.64259-5.46468-5.37294-5.03101-5.17278-5.59534-5.04352-6.03387-4.77317-6.34662-4.36173-6.65936-3.95169-6.81573-3.4381-6.81573-2.82095-6.81573-1.98697-6.51133-1.28016-5.90252-0.700546-5.2951-0.120928-4.52645 0.168882-3.59655 0.168882-2.7584 0.168882-2.06202-0.0806184-1.50743-0.579619-0.954216-1.08001-0.638692-1.72704-0.560854-2.52072Z" fill="#262626" transform="matrix(-1.00015 -0 -0 1 647.586 584.834)"/><path d="M0 0 0 8.00624" stroke="#262626" stroke-width="1.33437" stroke-linejoin="round" fill="none" transform="matrix(1.00015 0 -0 1 739.709 557.936)"/><path d="M-2.80219 0-0.168882-6.91998-1.40735-6.91998-2.89392-2.77508C-3.05377-2.32751-3.20111-1.86326-3.33593-1.38233-3.44018-1.7465-3.58543-2.18504-3.77169-2.69794L-5.31039-6.91998-6.5155-6.91998-3.89679 0Z" fill="#262626" transform="matrix(-1.00015 -0 -0 1 732.661 584.834)"/><path d="M-0.554599-4.70992C-0.554599-5.83997-0.670662-6.74901-0.902787-7.43705-1.13491-8.12648-1.47963-8.65744-1.93693-9.02996-2.39562-9.40386-2.97246-9.59081-3.66744-9.59081-4.18034-9.59081-4.63-9.48726-5.01641-9.28015-5.40282-9.07444-5.72182-8.77698-5.97341-8.38779-6.22638-7.99999-6.42445-7.5267-6.56762-6.96793-6.71079-6.41055-6.78237-5.65788-6.78237-4.70992-6.78237-3.5896-6.667-2.68543-6.43627-1.99739-6.20692-1.30935-5.86291-0.776995-5.40421-0.400312-4.94691-0.0250195-4.36799 0.162627-3.66744 0.162627-2.74728 0.162627-2.0245-0.167492-1.49909-0.827729-0.869428-1.62279-0.554599-2.91686-0.554599-4.70992ZM-1.75971-4.70992C-1.75971-3.14203-1.94318-2.09816-2.31013-1.57831-2.67709-1.05985-3.12952-0.800624-3.66744-0.800624-4.20675-0.800624-4.65988-1.06124-5.02684-1.58248-5.39379-2.10372-5.57727-3.1462-5.57727-4.70992-5.57727-6.28337-5.39379-7.32794-5.02684-7.84362-4.65988-8.36069-4.20258-8.61922-3.65493-8.61922-3.11701-8.61922-2.68682-8.39127-2.36434-7.93535-1.96125-7.35435-1.75971-6.2792-1.75971-4.70992Z" fill="#262626" transform="matrix(-1.00015 -0 -0 1 739.334 584.834)"/><path d="M0 0 0 8.00624" stroke="#262626" stroke-width="1.33437" stroke-linejoin="round" fill="none" transform="matrix(1.00015 0 -0 1 829.974 557.936)"/><path d="M-2.80219 0-0.168882-6.91998-1.40735-6.91998-2.89392-2.77508C-3.05377-2.32751-3.20111-1.86326-3.33593-1.38233-3.44018-1.7465-3.58543-2.18504-3.77169-2.69794L-5.31039-6.91998-6.5155-6.91998-3.89679 0Z" fill="#262626" transform="matrix(-1.00015 -0 -0 1 822.927 584.834)"/><path d="M-4.97054 0-3.7988 0-3.7988-7.47249C-3.51663-7.20423-3.1462-6.93527-2.68751-6.66561-2.22882-6.39596-1.81739-6.19372-1.45322-6.05889L-1.45322-7.19311C-2.10928-7.50168-2.68265-7.87489-3.17331-8.31273-3.66397-8.75196-4.01146-9.17799-4.21579-9.59081L-4.97054-9.59081Z" fill="#262626" transform="matrix(-1.00015 -0 -0 1 829.6 584.834)"/><path d="M0 0 0 8.00624" stroke="#262626" stroke-width="1.33437" stroke-linejoin="round" fill="none" transform="matrix(1.00015 0 -0 1 920.24 557.936)"/><path d="M-2.80219 0-0.168882-6.91998-1.40735-6.91998-2.89392-2.77508C-3.05377-2.32751-3.20111-1.86326-3.33593-1.38233-3.44018-1.7465-3.58543-2.18504-3.77169-2.69794L-5.31039-6.91998-6.5155-6.91998-3.89679 0Z" fill="#262626" transform="matrix(-1.00015 -0 -0 1 913.193 584.834)"/><path d="M-6.71774-1.12796-6.71774 0-0.404482 0C-0.396142-0.282164-0.441316-0.553904-0.540004-0.815219-0.701241-1.24472-0.958386-1.66797-1.31144-2.08496-1.66588-2.50195-2.17809-2.98427-2.84805-3.53192-3.88636-4.38258-4.5876-5.05672-4.95178-5.55433-5.31734-6.05194-5.50012-6.52245-5.50012-6.96585-5.50012-7.4301-5.33333-7.82138-4.99973-8.13968-4.66753-8.45937-4.23455-8.61922-3.7008-8.61922-3.13647-8.61922-2.68473-8.44964-2.34558-8.11049-2.00643-7.77273-1.83476-7.30431-1.83059-6.70523L-0.625488-6.82824C-0.707496-7.72755-1.01746-8.41281-1.55538-8.88401-2.09469-9.35521-2.81886-9.59081-3.72791-9.59081-4.6439-9.59081-5.36877-9.33645-5.90252-8.82772-6.43766-8.32038-6.70523-7.69072-6.70523-6.93874-6.70523-6.5565-6.62669-6.18051-6.46963-5.81078-6.31395-5.44244-6.05472-5.05394-5.69194-4.64529-5.32916-4.23664-4.7266-3.67648-3.88428-2.96481-3.17956-2.37407-2.72713-1.97307-2.52697-1.76179-2.3282-1.5519-2.16349-1.34063-2.03284-1.12796Z" fill="#262626" transform="matrix(-1.00015 -0 -0 1 919.866 584.834)"/><path d="M-0.660515-3.37597-1.97008-3.49064C-2.03277-2.96467-2.17725-2.5335-2.40354-2.19713-2.63136-1.86076-2.98379-1.5886-3.46082-1.38066-3.93939-1.17272-4.47759-1.06875-5.07542-1.06875-5.60444-1.06875-6.07231-1.14749-6.47901-1.30498-6.88572-1.46246-7.18769-1.67804-7.38493-1.95173-7.58369-2.22694-7.68307-2.52739-7.68307-2.85306-7.68307-3.18179-7.58751-3.46923-7.39639-3.7154-7.20527-3.96156-6.8903-4.16874-6.45149-4.33692-6.16863-4.44701-5.54481-4.61749-4.58003-4.84836-3.61525-5.08077-2.93945-5.29941-2.55262-5.50429-2.04958-5.76728-1.67499-6.09295-1.42882-6.4813-1.18419-6.87119-1.06187-7.30771-1.06187-7.79087-1.06187-8.32142-1.21171-8.81681-1.51139-9.27703-1.81259-9.73878-2.25217-10.0889-2.83012-10.3274-3.4096-10.5659-4.05254-10.6852-4.75892-10.6852-5.53717-10.6852-6.22367-10.5598-6.81844-10.3091-7.41474-10.0583-7.87267-9.68908-8.19222-9.20134-8.51178-8.71513-8.68379-8.16394-8.70825-7.54776L-7.37575-7.44685C-7.30389-8.11042-7.06078-8.61192-6.64643-8.95136-6.23361-9.29079-5.62355-9.4605-4.81626-9.4605-3.97532-9.4605-3.36221-9.30608-2.9769-8.99722-2.59313-8.6899-2.40125-8.31913-2.40125-7.8849-2.40125-7.50724-2.53733-7.1961-2.80948-6.95146-3.07705-6.70836-3.77579-6.45913-4.9057-6.2038-6.03561-5.94846-6.8108-5.72523-7.23126-5.53411-7.84285-5.25125-8.2939-4.89347-8.5844-4.46077-8.87644-4.0296-9.02245-3.53192-9.02245-2.96773-9.02245-2.40813-8.86267-1.88063-8.54312-1.38525-8.22357-0.89139-7.76335-0.506854-7.16246-0.231639-6.5631 0.0420467-5.88883 0.178889-5.13963 0.178889-4.18861 0.178889-3.39126 0.0405177-2.74756-0.236226-2.10539-0.512969-1.6016-0.929614-1.23617-1.48616-0.870748-2.04423-0.678863-2.67417-0.660515-3.37597Z" fill="#262626" transform="matrix(-1.00015 -0 -0 1 609.188 603.33)"/><path d="M-0.488506-3.80484C-0.488506-5.21455-0.879922-6.25884-1.66276-6.9377-2.31715-7.50189-3.11528-7.78399-4.05712-7.78399-5.10294-7.78399-5.95763-7.44073-6.62121-6.75423-7.28631-6.06925-7.61886-5.12205-7.61886-3.91263-7.61886-2.93409-7.47208-2.16349-7.17851-1.60083-6.88495-1.0397-6.45684-0.603943-5.89418-0.293562-5.33305 0.0168187-4.7207 0.172009-4.05712 0.172009-2.99143 0.172009-2.12986-0.169716-1.4724-0.853165-0.81647-1.53662-0.488506-2.52051-0.488506-3.80484ZM-1.81412-3.80484C-1.81412-2.83089-2.02665-2.10157-2.4517-1.61689-2.87676-1.1322-3.4119-0.889861-4.05712-0.889861-4.69776-0.889861-5.23061-1.13297-5.65566-1.61918-6.08071-2.10692-6.29324-2.85-6.29324-3.84842-6.29324-4.79026-6.07919-5.50353-5.65107-5.98821-5.22296-6.47289-4.69164-6.71524-4.05712-6.71524-3.4119-6.71524-2.87676-6.47366-2.4517-5.9905-2.02665-5.50888-1.81412-4.78032-1.81412-3.80484Z" fill="#262626" transform="matrix(-1.00015 -0 -0 1 618.98 603.33)"/><path d="M-5.9561 0-5.9561-1.11921C-5.36286-0.258396-4.55786 0.172009-3.54109 0.172009-3.09158 0.172009-2.67188 0.0863868-2.28199-0.0848578-1.89363-0.257631-1.60465-0.473981-1.41506-0.733906-1.227-0.99536-1.09474-1.31491-1.01829-1.69257-0.96478-1.94485-0.938023-2.3462-0.938023-2.89663L-0.938023-7.61198-2.22924-7.61198-2.22924-3.38973C-2.22924-2.71698-2.25523-2.26288-2.30722-2.02741-2.38825-1.68951-2.56026-1.42347-2.82324-1.22929-3.08623-1.03511-3.41113-0.938023-3.79796-0.938023-4.18479-0.938023-4.54792-1.03741-4.88735-1.23617-5.22678-1.43494-5.46683-1.7048-5.6075-2.04576-5.74969-2.38825-5.82079-2.8844-5.82079-3.53421L-5.82079-7.61198-7.10971-7.61198-7.10971 0Z" fill="#262626" transform="matrix(-1.00015 -0 -0 1 627.144 603.33)"/><path d="M-0.954077 0-0.954077-7.61198-2.11457-7.61198-2.11457-6.45837C-2.41119-6.9981-2.68487-7.35358-2.93562-7.52483-3.18637-7.6976-3.46235-7.78399-3.76356-7.78399-4.19779-7.78399-4.63966-7.64562-5.08918-7.36887L-4.64425-6.17169C-4.32928-6.35822-4.01431-6.45149-3.69934-6.45149-3.41648-6.45149-3.16267-6.36663-2.93792-6.19692-2.71316-6.0272-2.55338-5.79174-2.45858-5.49053-2.31486-5.03184-2.243-4.53034-2.243-3.98603L-2.243 0Z" fill="#262626" transform="matrix(-1.00015 -0 -0 1 635.309 603.33)"/><path d="M-5.93546-2.78884-7.20374-2.62371C-7.06461-1.74914-6.70912-1.06416-6.13729-0.568777-5.56698-0.0749195-4.86595 0.172009-4.03419 0.172009-2.99296 0.172009-2.15585-0.168187-1.52285-0.848578-0.889861-1.5305-0.573364-2.50675-0.573364-3.77732-0.573364-4.59838-0.709442-5.31699-0.981599-5.93317-1.25376-6.55087-1.66811-7.01339-2.22465-7.32071-2.7812-7.62956-3.38743-7.78399-4.04336-7.78399-4.86901-7.78399-5.54481-7.57452-6.07078-7.15558-6.59674-6.73817-6.93388-6.14493-7.08219-5.37586L-5.82767-5.18092C-5.70841-5.69312-5.49665-6.07766-5.19238-6.33452-4.88965-6.59292-4.52269-6.72212-4.09152-6.72212-3.44171-6.72212-2.91345-6.48895-2.50675-6.02261-2.10157-5.55781-1.89898-4.82161-1.89898-3.81402-1.89898-2.79114-2.09469-2.04806-2.48611-1.58478-2.87905-1.1215-3.39049-0.889861-4.02043-0.889861-4.52652-0.889861-4.94928-1.04505-5.28871-1.35543-5.62814-1.66581-5.84372-2.14362-5.93546-2.78884Z" fill="#262626" transform="matrix(-1.00015 -0 -0 1 640.197 603.33)"/><path d="M-6.17857-2.4517-7.51107-2.28657C-7.3016-1.50833-6.91247-0.903621-6.3437-0.472452-5.77492-0.0428112-5.04866 0.172009-4.16491 0.172009-3.05182 0.172009-2.16884-0.17048-1.51597-0.855459-0.863104-1.54197-0.536669-2.50369-0.536669-3.74063-0.536669-5.0219-0.866162-6.01573-1.52515-6.72212-2.18566-7.43003-3.04112-7.78399-4.09152-7.78399-5.10982-7.78399-5.94158-7.43767-6.5868-6.74505-7.23203-6.05243-7.55464-5.07771-7.55464-3.8209-7.55464-3.74445-7.55235-3.62978-7.54776-3.47688L-1.87146-3.47688C-1.91886-2.64053-2.15508-1.99989-2.58014-1.55496-3.00519-1.11156-3.53574-0.889861-4.17179-0.889861-4.64425-0.889861-5.04789-1.01371-5.38274-1.2614-5.71758-1.51062-5.98286-1.90739-6.17857-2.4517ZM-1.94256-4.53645-6.19233-4.53645C-6.13576-5.17709-5.97369-5.65719-5.70612-5.97674-5.29482-6.47366-4.76198-6.72212-4.10758-6.72212-3.51434-6.72212-3.01589-6.52412-2.61225-6.12811-2.2086-5.73211-1.98537-5.20156-1.94256-4.53645Z" fill="#262626" transform="matrix(-1.00015 -0 -0 1 647.537 603.33)"/><path d="M-3.80484 0-3.80484-9.26785-0.344018-9.26785-0.344018-10.5063-8.67155-10.5063-8.67155-9.26785-5.19697-9.26785-5.19697 0Z" fill="#262626" transform="matrix(-1.00015 -0 -0 1 659.524 603.33)"/><path d="M-5.93546-0.938023C-5.45689-0.532846-4.99667-0.246164-4.5548-0.0779775-4.11293 0.0886803-3.63895 0.172009-3.13286 0.172009-2.29651 0.172009-1.65358-0.0321084-1.20406-0.440343-0.754547-0.848578-0.529788-1.37072-0.529788-2.00677-0.529788-2.37984-0.614646-2.72004-0.784362-3.02736-0.954077-3.33621-1.17654-3.58391-1.45176-3.77044-1.72697-3.95697-2.03659-4.09764-2.38061-4.19244-2.63289-4.25971-3.01513-4.32469-3.52733-4.38738-4.56856-4.51123-5.33534-4.65877-5.82767-4.83002-5.83226-5.00738-5.83455-5.11976-5.83455-5.16715-5.83455-5.69312-5.71223-6.0639-5.4676-6.27948-5.13887-6.56998-4.6496-6.71524-3.99979-6.71524-3.39278-6.71524-2.9448-6.60897-2.65582-6.39645-2.36685-6.18392-2.15279-5.80779-2.01365-5.26807L-0.752253-5.44008C-0.866926-5.9798-1.05575-6.41556-1.31874-6.74734-1.58172-7.07913-1.96167-7.33447-2.45858-7.51336-2.9555-7.69378-3.53116-7.78399-4.18556-7.78399-4.83537-7.78399-5.36286-7.70754-5.76804-7.55464-6.17475-7.40174-6.47366-7.20909-6.66478-6.97669-6.8559-6.74582-6.98969-6.45302-7.06614-6.0983-7.10895-5.87965-7.13035-5.48365-7.13035-4.91029L-7.13035-3.1902C-7.13035-1.98995-7.15787-1.23082-7.21292-0.912795-7.26796-0.596298-7.37728-0.292033-7.54088 0L-6.19233 0C-6.05931-0.26757-5.97369-0.580244-5.93546-0.938023ZM-5.82767-3.8209C-5.35828-3.62978-4.65571-3.46694-3.71998-3.33239-3.18943-3.25594-2.81407-3.16955-2.5939-3.07323-2.37526-2.97843-2.20554-2.8393-2.08475-2.65582-1.96549-2.47234-1.90586-2.26823-1.90586-2.04347-1.90586-1.69945-2.03582-1.41277-2.29575-1.18342-2.5572-0.954077-2.93868-0.839405-3.44018-0.839405-3.9371-0.839405-4.37897-0.947962-4.7658-1.16508-5.15263-1.38219-5.43702-1.67957-5.61897-2.05723-5.7581-2.34926-5.82767-2.7789-5.82767-3.34615Z" fill="#262626" transform="matrix(-1.00015 -0 -0 1 666.858 603.33)"/><path d="M-0.451811-2.27281-1.72697-2.47234C-1.79883-1.96167-1.99836-1.57025-2.32556-1.2981-2.65276-1.02594-3.11069-0.889861-3.69934-0.889861-4.29105-0.889861-4.72987-1.00988-5.01579-1.24993-5.30323-1.49151-5.44696-1.77513-5.44696-2.10081-5.44696-2.39131-5.32005-2.62065-5.06624-2.78884-4.89041-2.90351-4.45083-3.04877-3.74751-3.2246-2.8026-3.46465-2.14744-3.67182-1.78201-3.84612-1.41659-4.02043-1.13908-4.26124-0.94949-4.56856-0.761427-4.87741-0.667395-5.21837-0.667395-5.59144-0.667395-5.92935-0.744608-6.24278-0.899034-6.53176-1.05499-6.82226-1.26675-7.06308-1.53432-7.2542-1.73462-7.40098-2.00754-7.52559-2.35309-7.62803-2.70016-7.732-3.07247-7.78399-3.47-7.78399-4.0663-7.78399-4.58997-7.6976-5.04101-7.52483-5.49359-7.35358-5.82691-7.12041-6.04096-6.82532-6.25655-6.53176-6.40486-6.13958-6.48589-5.64878L-5.22449-5.47677C-5.16792-5.86819-5.00203-6.17322-4.72681-6.39186-4.4516-6.61203-4.06324-6.72212-3.56174-6.72212-2.97002-6.72212-2.54726-6.62426-2.29346-6.42856-2.03965-6.23285-1.91274-6.0035-1.91274-5.74052-1.91274-5.57386-1.96549-5.42326-2.07099-5.28871-2.17649-5.1511-2.34162-5.03643-2.56638-4.94469-2.69481-4.89729-3.07476-4.78797-3.70622-4.61673-4.61902-4.37209-5.25507-4.17179-5.61438-4.01584-5.97521-3.86141-6.25807-3.63589-6.46296-3.33927-6.66937-3.04418-6.77257-2.67646-6.77257-2.23612-6.77257-1.80648-6.6472-1.4013-6.39645-1.02059-6.1457-0.641403-5.78333-0.347841-5.30935-0.139901-4.8369 0.0680392-4.30252 0.172009-3.70622 0.172009-2.71698 0.172009-1.9632-0.0336373-1.44488-0.44493-0.926556-0.856223-0.595534-1.46552-0.451811-2.27281Z" fill="#262626" transform="matrix(-1.00015 -0 -0 1 675.022 603.33)"/><path d="M-0.974718 0-0.974718-10.5063-2.26593-10.5063-2.26593-4.51581-5.31852-7.61198-6.98816-7.61198-4.07776-4.78873-7.28172 0-5.69006 0-3.17414-3.89199-2.26593-3.01819-2.26593 0Z" fill="#262626" transform="matrix(-1.00015 -0 -0 1 682.362 603.33)"/><path d="M0 0-8.00624 0" stroke="#262626" stroke-width="1.33437" stroke-linejoin="round" fill="none" transform="matrix(1.00015 0 -0 1 351.567 546.202)"/><path d="M-0.554599-4.70992C-0.554599-5.83997-0.670662-6.74901-0.902787-7.43705-1.13491-8.12648-1.47963-8.65744-1.93693-9.02996-2.39562-9.40386-2.97246-9.59081-3.66744-9.59081-4.18034-9.59081-4.63-9.48726-5.01641-9.28015-5.40282-9.07444-5.72182-8.77698-5.97341-8.38779-6.22638-7.99999-6.42445-7.5267-6.56762-6.96793-6.71079-6.41055-6.78237-5.65788-6.78237-4.70992-6.78237-3.5896-6.667-2.68543-6.43627-1.99739-6.20692-1.30935-5.86291-0.776995-5.40421-0.400312-4.94691-0.0250195-4.36799 0.162627-3.66744 0.162627-2.74728 0.162627-2.0245-0.167492-1.49909-0.827729-0.869428-1.62279-0.554599-2.91686-0.554599-4.70992ZM-1.75971-4.70992C-1.75971-3.14203-1.94318-2.09816-2.31013-1.57831-2.67709-1.05985-3.12952-0.800624-3.66744-0.800624-4.20675-0.800624-4.65988-1.06124-5.02684-1.58248-5.39379-2.10372-5.57727-3.1462-5.57727-4.70992-5.57727-6.28337-5.39379-7.32794-5.02684-7.84362-4.65988-8.36069-4.20258-8.61922-3.65493-8.61922-3.11701-8.61922-2.68682-8.39127-2.36434-7.93535-1.96125-7.35435-1.75971-6.2792-1.75971-4.70992Z" fill="#262626" transform="matrix(-1.00015 -0 -0 1 308.245 550.977)"/><path d="M-1.21136 0-1.21136-1.33646-2.54782-1.33646-2.54782 0Z" fill="#262626" transform="matrix(-1.00015 -0 -0 1 315.667 550.977)"/><path d="M-0.554599-4.70992C-0.554599-5.83997-0.670662-6.74901-0.902787-7.43705-1.13491-8.12648-1.47963-8.65744-1.93693-9.02996-2.39562-9.40386-2.97246-9.59081-3.66744-9.59081-4.18034-9.59081-4.63-9.48726-5.01641-9.28015-5.40282-9.07444-5.72182-8.77698-5.97341-8.38779-6.22638-7.99999-6.42445-7.5267-6.56762-6.96793-6.71079-6.41055-6.78237-5.65788-6.78237-4.70992-6.78237-3.5896-6.667-2.68543-6.43627-1.99739-6.20692-1.30935-5.86291-0.776995-5.40421-0.400312-4.94691-0.0250195-4.36799 0.162627-3.66744 0.162627-2.74728 0.162627-2.0245-0.167492-1.49909-0.827729-0.869428-1.62279-0.554599-2.91686-0.554599-4.70992ZM-1.75971-4.70992C-1.75971-3.14203-1.94318-2.09816-2.31013-1.57831-2.67709-1.05985-3.12952-0.800624-3.66744-0.800624-4.20675-0.800624-4.65988-1.06124-5.02684-1.58248-5.39379-2.10372-5.57727-3.1462-5.57727-4.70992-5.57727-6.28337-5.39379-7.32794-5.02684-7.84362-4.65988-8.36069-4.20258-8.61922-3.65493-8.61922-3.11701-8.61922-2.68682-8.39127-2.36434-7.93535-1.96125-7.35435-1.75971-6.2792-1.75971-4.70992Z" fill="#262626" transform="matrix(-1.00015 -0 -0 1 319.375 550.977)"/><path d="M-0.554599-4.70992C-0.554599-5.83997-0.670662-6.74901-0.902787-7.43705-1.13491-8.12648-1.47963-8.65744-1.93693-9.02996-2.39562-9.40386-2.97246-9.59081-3.66744-9.59081-4.18034-9.59081-4.63-9.48726-5.01641-9.28015-5.40282-9.07444-5.72182-8.77698-5.97341-8.38779-6.22638-7.99999-6.42445-7.5267-6.56762-6.96793-6.71079-6.41055-6.78237-5.65788-6.78237-4.70992-6.78237-3.5896-6.667-2.68543-6.43627-1.99739-6.20692-1.30935-5.86291-0.776995-5.40421-0.400312-4.94691-0.0250195-4.36799 0.162627-3.66744 0.162627-2.74728 0.162627-2.0245-0.167492-1.49909-0.827729-0.869428-1.62279-0.554599-2.91686-0.554599-4.70992ZM-1.75971-4.70992C-1.75971-3.14203-1.94318-2.09816-2.31013-1.57831-2.67709-1.05985-3.12952-0.800624-3.66744-0.800624-4.20675-0.800624-4.65988-1.06124-5.02684-1.58248-5.39379-2.10372-5.57727-3.1462-5.57727-4.70992-5.57727-6.28337-5.39379-7.32794-5.02684-7.84362-4.65988-8.36069-4.20258-8.61922-3.65493-8.61922-3.11701-8.61922-2.68682-8.39127-2.36434-7.93535-1.96125-7.35435-1.75971-6.2792-1.75971-4.70992Z" fill="#262626" transform="matrix(-1.00015 -0 -0 1 326.797 550.977)"/><path d="M0 0-8.00624 0" stroke="#262626" stroke-width="1.33437" stroke-linejoin="round" fill="none" transform="matrix(1.00015 0 -0 1 351.567 487.532)"/><path d="M-0.554599-4.70992C-0.554599-5.83997-0.670662-6.74901-0.902787-7.43705-1.13491-8.12648-1.47963-8.65744-1.93693-9.02996-2.39562-9.40386-2.97246-9.59081-3.66744-9.59081-4.18034-9.59081-4.63-9.48726-5.01641-9.28015-5.40282-9.07444-5.72182-8.77698-5.97341-8.38779-6.22638-7.99999-6.42445-7.5267-6.56762-6.96793-6.71079-6.41055-6.78237-5.65788-6.78237-4.70992-6.78237-3.5896-6.667-2.68543-6.43627-1.99739-6.20692-1.30935-5.86291-0.776995-5.40421-0.400312-4.94691-0.0250195-4.36799 0.162627-3.66744 0.162627-2.74728 0.162627-2.0245-0.167492-1.49909-0.827729-0.869428-1.62279-0.554599-2.91686-0.554599-4.70992ZM-1.75971-4.70992C-1.75971-3.14203-1.94318-2.09816-2.31013-1.57831-2.67709-1.05985-3.12952-0.800624-3.66744-0.800624-4.20675-0.800624-4.65988-1.06124-5.02684-1.58248-5.39379-2.10372-5.57727-3.1462-5.57727-4.70992-5.57727-6.28337-5.39379-7.32794-5.02684-7.84362-4.65988-8.36069-4.20258-8.61922-3.65493-8.61922-3.11701-8.61922-2.68682-8.39127-2.36434-7.93535-1.96125-7.35435-1.75971-6.2792-1.75971-4.70992Z" fill="#262626" transform="matrix(-1.00015 -0 -0 1 308.245 492.308)"/><path d="M-1.21136 0-1.21136-1.33646-2.54782-1.33646-2.54782 0Z" fill="#262626" transform="matrix(-1.00015 -0 -0 1 315.667 492.308)"/><path d="M-0.554599-4.70992C-0.554599-5.83997-0.670662-6.74901-0.902787-7.43705-1.13491-8.12648-1.47963-8.65744-1.93693-9.02996-2.39562-9.40386-2.97246-9.59081-3.66744-9.59081-4.18034-9.59081-4.63-9.48726-5.01641-9.28015-5.40282-9.07444-5.72182-8.77698-5.97341-8.38779-6.22638-7.99999-6.42445-7.5267-6.56762-6.96793-6.71079-6.41055-6.78237-5.65788-6.78237-4.70992-6.78237-3.5896-6.667-2.68543-6.43627-1.99739-6.20692-1.30935-5.86291-0.776995-5.40421-0.400312-4.94691-0.0250195-4.36799 0.162627-3.66744 0.162627-2.74728 0.162627-2.0245-0.167492-1.49909-0.827729-0.869428-1.62279-0.554599-2.91686-0.554599-4.70992ZM-1.75971-4.70992C-1.75971-3.14203-1.94318-2.09816-2.31013-1.57831-2.67709-1.05985-3.12952-0.800624-3.66744-0.800624-4.20675-0.800624-4.65988-1.06124-5.02684-1.58248-5.39379-2.10372-5.57727-3.1462-5.57727-4.70992-5.57727-6.28337-5.39379-7.32794-5.02684-7.84362-4.65988-8.36069-4.20258-8.61922-3.65493-8.61922-3.11701-8.61922-2.68682-8.39127-2.36434-7.93535-1.96125-7.35435-1.75971-6.2792-1.75971-4.70992Z" fill="#262626" transform="matrix(-1.00015 -0 -0 1 319.375 492.308)"/><path d="M-0.554599-2.50195-1.78472-2.6062C-1.87646-2.00712-2.08843-1.55607-2.42064-1.25306-2.75284-0.951436-3.15385-0.800624-3.62366-0.800624-4.18799-0.800624-4.66544-1.01329-5.05603-1.43862-5.44661-1.86534-5.6419-2.43037-5.6419-3.13369-5.6419-3.80227-5.45425-4.32977-5.07896-4.71618-4.70367-5.10398-4.21162-5.29788-3.60281-5.29788-3.22474-5.29788-2.8835-5.2117-2.57909-5.03935-2.27608-4.86838-2.0377-4.64598-1.86395-4.37216L-0.763095-4.51602-1.68673-9.42193-6.43835-9.42193-6.43835-8.30022-2.62496-8.30022-2.11206-5.73364C-2.68473-6.13395-3.2859-6.33411-3.91555-6.33411-4.74954-6.33411-5.45286-6.04499-6.02553-5.46676-6.59959-4.88853-6.88662-4.14559-6.88662-3.23794-6.88662-2.37338-6.63503-1.62627-6.13186-0.99661-5.51889-0.223786-4.68282 0.162627-3.62366 0.162627-2.75493 0.162627-2.04534-0.0806184-1.49492-0.567109-0.945876-1.0536-0.632438-1.69855-0.554599-2.50195Z" fill="#262626" transform="matrix(-1.00015 -0 -0 1 326.797 492.308)"/><path d="M0 0-8.00624 0" stroke="#262626" stroke-width="1.33437" stroke-linejoin="round" fill="none" transform="matrix(1.00015 0 -0 1 351.567 428.863)"/><path d="M-0.554599-4.70992C-0.554599-5.83997-0.670662-6.74901-0.902787-7.43705-1.13491-8.12648-1.47963-8.65744-1.93693-9.02996-2.39562-9.40386-2.97246-9.59081-3.66744-9.59081-4.18034-9.59081-4.63-9.48726-5.01641-9.28015-5.40282-9.07444-5.72182-8.77698-5.97341-8.38779-6.22638-7.99999-6.42445-7.5267-6.56762-6.96793-6.71079-6.41055-6.78237-5.65788-6.78237-4.70992-6.78237-3.5896-6.667-2.68543-6.43627-1.99739-6.20692-1.30935-5.86291-0.776995-5.40421-0.400312-4.94691-0.0250195-4.36799 0.162627-3.66744 0.162627-2.74728 0.162627-2.0245-0.167492-1.49909-0.827729-0.869428-1.62279-0.554599-2.91686-0.554599-4.70992ZM-1.75971-4.70992C-1.75971-3.14203-1.94318-2.09816-2.31013-1.57831-2.67709-1.05985-3.12952-0.800624-3.66744-0.800624-4.20675-0.800624-4.65988-1.06124-5.02684-1.58248-5.39379-2.10372-5.57727-3.1462-5.57727-4.70992-5.57727-6.28337-5.39379-7.32794-5.02684-7.84362-4.65988-8.36069-4.20258-8.61922-3.65493-8.61922-3.11701-8.61922-2.68682-8.39127-2.36434-7.93535-1.96125-7.35435-1.75971-6.2792-1.75971-4.70992Z" fill="#262626" transform="matrix(-1.00015 -0 -0 1 308.245 433.639)"/><path d="M-1.21136 0-1.21136-1.33646-2.54782-1.33646-2.54782 0Z" fill="#262626" transform="matrix(-1.00015 -0 -0 1 315.667 433.639)"/><path d="M-4.97054 0-3.7988 0-3.7988-7.47249C-3.51663-7.20423-3.1462-6.93527-2.68751-6.66561-2.22882-6.39596-1.81739-6.19372-1.45322-6.05889L-1.45322-7.19311C-2.10928-7.50168-2.68265-7.87489-3.17331-8.31273-3.66397-8.75196-4.01146-9.17799-4.21579-9.59081L-4.97054-9.59081Z" fill="#262626" transform="matrix(-1.00015 -0 -0 1 319.375 433.639)"/><path d="M-0.554599-4.70992C-0.554599-5.83997-0.670662-6.74901-0.902787-7.43705-1.13491-8.12648-1.47963-8.65744-1.93693-9.02996-2.39562-9.40386-2.97246-9.59081-3.66744-9.59081-4.18034-9.59081-4.63-9.48726-5.01641-9.28015-5.40282-9.07444-5.72182-8.77698-5.97341-8.38779-6.22638-7.99999-6.42445-7.5267-6.56762-6.96793-6.71079-6.41055-6.78237-5.65788-6.78237-4.70992-6.78237-3.5896-6.667-2.68543-6.43627-1.99739-6.20692-1.30935-5.86291-0.776995-5.40421-0.400312-4.94691-0.0250195-4.36799 0.162627-3.66744 0.162627-2.74728 0.162627-2.0245-0.167492-1.49909-0.827729-0.869428-1.62279-0.554599-2.91686-0.554599-4.70992ZM-1.75971-4.70992C-1.75971-3.14203-1.94318-2.09816-2.31013-1.57831-2.67709-1.05985-3.12952-0.800624-3.66744-0.800624-4.20675-0.800624-4.65988-1.06124-5.02684-1.58248-5.39379-2.10372-5.57727-3.1462-5.57727-4.70992-5.57727-6.28337-5.39379-7.32794-5.02684-7.84362-4.65988-8.36069-4.20258-8.61922-3.65493-8.61922-3.11701-8.61922-2.68682-8.39127-2.36434-7.93535-1.96125-7.35435-1.75971-6.2792-1.75971-4.70992Z" fill="#262626" transform="matrix(-1.00015 -0 -0 1 326.797 433.639)"/><path d="M0 0-8.00624 0" stroke="#262626" stroke-width="1.33437" stroke-linejoin="round" fill="none" transform="matrix(1.00015 0 -0 1 351.567 370.194)"/><path d="M-0.554599-4.70992C-0.554599-5.83997-0.670662-6.74901-0.902787-7.43705-1.13491-8.12648-1.47963-8.65744-1.93693-9.02996-2.39562-9.40386-2.97246-9.59081-3.66744-9.59081-4.18034-9.59081-4.63-9.48726-5.01641-9.28015-5.40282-9.07444-5.72182-8.77698-5.97341-8.38779-6.22638-7.99999-6.42445-7.5267-6.56762-6.96793-6.71079-6.41055-6.78237-5.65788-6.78237-4.70992-6.78237-3.5896-6.667-2.68543-6.43627-1.99739-6.20692-1.30935-5.86291-0.776995-5.40421-0.400312-4.94691-0.0250195-4.36799 0.162627-3.66744 0.162627-2.74728 0.162627-2.0245-0.167492-1.49909-0.827729-0.869428-1.62279-0.554599-2.91686-0.554599-4.70992ZM-1.75971-4.70992C-1.75971-3.14203-1.94318-2.09816-2.31013-1.57831-2.67709-1.05985-3.12952-0.800624-3.66744-0.800624-4.20675-0.800624-4.65988-1.06124-5.02684-1.58248-5.39379-2.10372-5.57727-3.1462-5.57727-4.70992-5.57727-6.28337-5.39379-7.32794-5.02684-7.84362-4.65988-8.36069-4.20258-8.61922-3.65493-8.61922-3.11701-8.61922-2.68682-8.39127-2.36434-7.93535-1.96125-7.35435-1.75971-6.2792-1.75971-4.70992Z" fill="#262626" transform="matrix(-1.00015 -0 -0 1 308.245 374.969)"/><path d="M-1.21136 0-1.21136-1.33646-2.54782-1.33646-2.54782 0Z" fill="#262626" transform="matrix(-1.00015 -0 -0 1 315.667 374.969)"/><path d="M-4.97054 0-3.7988 0-3.7988-7.47249C-3.51663-7.20423-3.1462-6.93527-2.68751-6.66561-2.22882-6.39596-1.81739-6.19372-1.45322-6.05889L-1.45322-7.19311C-2.10928-7.50168-2.68265-7.87489-3.17331-8.31273-3.66397-8.75196-4.01146-9.17799-4.21579-9.59081L-4.97054-9.59081Z" fill="#262626" transform="matrix(-1.00015 -0 -0 1 319.375 374.969)"/><path d="M-0.554599-2.50195-1.78472-2.6062C-1.87646-2.00712-2.08843-1.55607-2.42064-1.25306-2.75284-0.951436-3.15385-0.800624-3.62366-0.800624-4.18799-0.800624-4.66544-1.01329-5.05603-1.43862-5.44661-1.86534-5.6419-2.43037-5.6419-3.13369-5.6419-3.80227-5.45425-4.32977-5.07896-4.71618-4.70367-5.10398-4.21162-5.29788-3.60281-5.29788-3.22474-5.29788-2.8835-5.2117-2.57909-5.03935-2.27608-4.86838-2.0377-4.64598-1.86395-4.37216L-0.763095-4.51602-1.68673-9.42193-6.43835-9.42193-6.43835-8.30022-2.62496-8.30022-2.11206-5.73364C-2.68473-6.13395-3.2859-6.33411-3.91555-6.33411-4.74954-6.33411-5.45286-6.04499-6.02553-5.46676-6.59959-4.88853-6.88662-4.14559-6.88662-3.23794-6.88662-2.37338-6.63503-1.62627-6.13186-0.99661-5.51889-0.223786-4.68282 0.162627-3.62366 0.162627-2.75493 0.162627-2.04534-0.0806184-1.49492-0.567109-0.945876-1.0536-0.632438-1.69855-0.554599-2.50195Z" fill="#262626" transform="matrix(-1.00015 -0 -0 1 326.797 374.969)"/><path d="M0 0-8.00624 0" stroke="#262626" stroke-width="1.33437" stroke-linejoin="round" fill="none" transform="matrix(1.00015 0 -0 1 351.567 311.525)"/><path d="M-0.554599-4.70992C-0.554599-5.83997-0.670662-6.74901-0.902787-7.43705-1.13491-8.12648-1.47963-8.65744-1.93693-9.02996-2.39562-9.40386-2.97246-9.59081-3.66744-9.59081-4.18034-9.59081-4.63-9.48726-5.01641-9.28015-5.40282-9.07444-5.72182-8.77698-5.97341-8.38779-6.22638-7.99999-6.42445-7.5267-6.56762-6.96793-6.71079-6.41055-6.78237-5.65788-6.78237-4.70992-6.78237-3.5896-6.667-2.68543-6.43627-1.99739-6.20692-1.30935-5.86291-0.776995-5.40421-0.400312-4.94691-0.0250195-4.36799 0.162627-3.66744 0.162627-2.74728 0.162627-2.0245-0.167492-1.49909-0.827729-0.869428-1.62279-0.554599-2.91686-0.554599-4.70992ZM-1.75971-4.70992C-1.75971-3.14203-1.94318-2.09816-2.31013-1.57831-2.67709-1.05985-3.12952-0.800624-3.66744-0.800624-4.20675-0.800624-4.65988-1.06124-5.02684-1.58248-5.39379-2.10372-5.57727-3.1462-5.57727-4.70992-5.57727-6.28337-5.39379-7.32794-5.02684-7.84362-4.65988-8.36069-4.20258-8.61922-3.65493-8.61922-3.11701-8.61922-2.68682-8.39127-2.36434-7.93535-1.96125-7.35435-1.75971-6.2792-1.75971-4.70992Z" fill="#262626" transform="matrix(-1.00015 -0 -0 1 308.245 316.3)"/><path d="M-1.21136 0-1.21136-1.33646-2.54782-1.33646-2.54782 0Z" fill="#262626" transform="matrix(-1.00015 -0 -0 1 315.667 316.3)"/><path d="M-6.71774-1.12796-6.71774 0-0.404482 0C-0.396142-0.282164-0.441316-0.553904-0.540004-0.815219-0.701241-1.24472-0.958386-1.66797-1.31144-2.08496-1.66588-2.50195-2.17809-2.98427-2.84805-3.53192-3.88636-4.38258-4.5876-5.05672-4.95178-5.55433-5.31734-6.05194-5.50012-6.52245-5.50012-6.96585-5.50012-7.4301-5.33333-7.82138-4.99973-8.13968-4.66753-8.45937-4.23455-8.61922-3.7008-8.61922-3.13647-8.61922-2.68473-8.44964-2.34558-8.11049-2.00643-7.77273-1.83476-7.30431-1.83059-6.70523L-0.625488-6.82824C-0.707496-7.72755-1.01746-8.41281-1.55538-8.88401-2.09469-9.35521-2.81886-9.59081-3.72791-9.59081-4.6439-9.59081-5.36877-9.33645-5.90252-8.82772-6.43766-8.32038-6.70523-7.69072-6.70523-6.93874-6.70523-6.5565-6.62669-6.18051-6.46963-5.81078-6.31395-5.44244-6.05472-5.05394-5.69194-4.64529-5.32916-4.23664-4.7266-3.67648-3.88428-2.96481-3.17956-2.37407-2.72713-1.97307-2.52697-1.76179-2.3282-1.5519-2.16349-1.34063-2.03284-1.12796Z" fill="#262626" transform="matrix(-1.00015 -0 -0 1 319.375 316.3)"/><path d="M-0.554599-4.70992C-0.554599-5.83997-0.670662-6.74901-0.902787-7.43705-1.13491-8.12648-1.47963-8.65744-1.93693-9.02996-2.39562-9.40386-2.97246-9.59081-3.66744-9.59081-4.18034-9.59081-4.63-9.48726-5.01641-9.28015-5.40282-9.07444-5.72182-8.77698-5.97341-8.38779-6.22638-7.99999-6.42445-7.5267-6.56762-6.96793-6.71079-6.41055-6.78237-5.65788-6.78237-4.70992-6.78237-3.5896-6.667-2.68543-6.43627-1.99739-6.20692-1.30935-5.86291-0.776995-5.40421-0.400312-4.94691-0.0250195-4.36799 0.162627-3.66744 0.162627-2.74728 0.162627-2.0245-0.167492-1.49909-0.827729-0.869428-1.62279-0.554599-2.91686-0.554599-4.70992ZM-1.75971-4.70992C-1.75971-3.14203-1.94318-2.09816-2.31013-1.57831-2.67709-1.05985-3.12952-0.800624-3.66744-0.800624-4.20675-0.800624-4.65988-1.06124-5.02684-1.58248-5.39379-2.10372-5.57727-3.1462-5.57727-4.70992-5.57727-6.28337-5.39379-7.32794-5.02684-7.84362-4.65988-8.36069-4.20258-8.61922-3.65493-8.61922-3.11701-8.61922-2.68682-8.39127-2.36434-7.93535-1.96125-7.35435-1.75971-6.2792-1.75971-4.70992Z" fill="#262626" transform="matrix(-1.00015 -0 -0 1 326.797 316.3)"/><path d="M0 0-8.00624 0" stroke="#262626" stroke-width="1.33437" stroke-linejoin="round" fill="none" transform="matrix(1.00015 0 -0 1 351.567 252.855)"/><path d="M-0.554599-4.70992C-0.554599-5.83997-0.670662-6.74901-0.902787-7.43705-1.13491-8.12648-1.47963-8.65744-1.93693-9.02996-2.39562-9.40386-2.97246-9.59081-3.66744-9.59081-4.18034-9.59081-4.63-9.48726-5.01641-9.28015-5.40282-9.07444-5.72182-8.77698-5.97341-8.38779-6.22638-7.99999-6.42445-7.5267-6.56762-6.96793-6.71079-6.41055-6.78237-5.65788-6.78237-4.70992-6.78237-3.5896-6.667-2.68543-6.43627-1.99739-6.20692-1.30935-5.86291-0.776995-5.40421-0.400312-4.94691-0.0250195-4.36799 0.162627-3.66744 0.162627-2.74728 0.162627-2.0245-0.167492-1.49909-0.827729-0.869428-1.62279-0.554599-2.91686-0.554599-4.70992ZM-1.75971-4.70992C-1.75971-3.14203-1.94318-2.09816-2.31013-1.57831-2.67709-1.05985-3.12952-0.800624-3.66744-0.800624-4.20675-0.800624-4.65988-1.06124-5.02684-1.58248-5.39379-2.10372-5.57727-3.1462-5.57727-4.70992-5.57727-6.28337-5.39379-7.32794-5.02684-7.84362-4.65988-8.36069-4.20258-8.61922-3.65493-8.61922-3.11701-8.61922-2.68682-8.39127-2.36434-7.93535-1.96125-7.35435-1.75971-6.2792-1.75971-4.70992Z" fill="#262626" transform="matrix(-1.00015 -0 -0 1 308.245 257.631)"/><path d="M-1.21136 0-1.21136-1.33646-2.54782-1.33646-2.54782 0Z" fill="#262626" transform="matrix(-1.00015 -0 -0 1 315.667 257.631)"/><path d="M-6.71774-1.12796-6.71774 0-0.404482 0C-0.396142-0.282164-0.441316-0.553904-0.540004-0.815219-0.701241-1.24472-0.958386-1.66797-1.31144-2.08496-1.66588-2.50195-2.17809-2.98427-2.84805-3.53192-3.88636-4.38258-4.5876-5.05672-4.95178-5.55433-5.31734-6.05194-5.50012-6.52245-5.50012-6.96585-5.50012-7.4301-5.33333-7.82138-4.99973-8.13968-4.66753-8.45937-4.23455-8.61922-3.7008-8.61922-3.13647-8.61922-2.68473-8.44964-2.34558-8.11049-2.00643-7.77273-1.83476-7.30431-1.83059-6.70523L-0.625488-6.82824C-0.707496-7.72755-1.01746-8.41281-1.55538-8.88401-2.09469-9.35521-2.81886-9.59081-3.72791-9.59081-4.6439-9.59081-5.36877-9.33645-5.90252-8.82772-6.43766-8.32038-6.70523-7.69072-6.70523-6.93874-6.70523-6.5565-6.62669-6.18051-6.46963-5.81078-6.31395-5.44244-6.05472-5.05394-5.69194-4.64529-5.32916-4.23664-4.7266-3.67648-3.88428-2.96481-3.17956-2.37407-2.72713-1.97307-2.52697-1.76179-2.3282-1.5519-2.16349-1.34063-2.03284-1.12796Z" fill="#262626" transform="matrix(-1.00015 -0 -0 1 319.375 257.631)"/><path d="M-0.554599-2.50195-1.78472-2.6062C-1.87646-2.00712-2.08843-1.55607-2.42064-1.25306-2.75284-0.951436-3.15385-0.800624-3.62366-0.800624-4.18799-0.800624-4.66544-1.01329-5.05603-1.43862-5.44661-1.86534-5.6419-2.43037-5.6419-3.13369-5.6419-3.80227-5.45425-4.32977-5.07896-4.71618-4.70367-5.10398-4.21162-5.29788-3.60281-5.29788-3.22474-5.29788-2.8835-5.2117-2.57909-5.03935-2.27608-4.86838-2.0377-4.64598-1.86395-4.37216L-0.763095-4.51602-1.68673-9.42193-6.43835-9.42193-6.43835-8.30022-2.62496-8.30022-2.11206-5.73364C-2.68473-6.13395-3.2859-6.33411-3.91555-6.33411-4.74954-6.33411-5.45286-6.04499-6.02553-5.46676-6.59959-4.88853-6.88662-4.14559-6.88662-3.23794-6.88662-2.37338-6.63503-1.62627-6.13186-0.99661-5.51889-0.223786-4.68282 0.162627-3.62366 0.162627-2.75493 0.162627-2.04534-0.0806184-1.49492-0.567109-0.945876-1.0536-0.632438-1.69855-0.554599-2.50195Z" fill="#262626" transform="matrix(-1.00015 -0 -0 1 326.797 257.631)"/><path d="M0 0-8.00624 0" stroke="#262626" stroke-width="1.33437" stroke-linejoin="round" fill="none" transform="matrix(1.00015 0 -0 1 351.567 194.186)"/><path d="M-0.554599-4.70992C-0.554599-5.83997-0.670662-6.74901-0.902787-7.43705-1.13491-8.12648-1.47963-8.65744-1.93693-9.02996-2.39562-9.40386-2.97246-9.59081-3.66744-9.59081-4.18034-9.59081-4.63-9.48726-5.01641-9.28015-5.40282-9.07444-5.72182-8.77698-5.97341-8.38779-6.22638-7.99999-6.42445-7.5267-6.56762-6.96793-6.71079-6.41055-6.78237-5.65788-6.78237-4.70992-6.78237-3.5896-6.667-2.68543-6.43627-1.99739-6.20692-1.30935-5.86291-0.776995-5.40421-0.400312-4.94691-0.0250195-4.36799 0.162627-3.66744 0.162627-2.74728 0.162627-2.0245-0.167492-1.49909-0.827729-0.869428-1.62279-0.554599-2.91686-0.554599-4.70992ZM-1.75971-4.70992C-1.75971-3.14203-1.94318-2.09816-2.31013-1.57831-2.67709-1.05985-3.12952-0.800624-3.66744-0.800624-4.20675-0.800624-4.65988-1.06124-5.02684-1.58248-5.39379-2.10372-5.57727-3.1462-5.57727-4.70992-5.57727-6.28337-5.39379-7.32794-5.02684-7.84362-4.65988-8.36069-4.20258-8.61922-3.65493-8.61922-3.11701-8.61922-2.68682-8.39127-2.36434-7.93535-1.96125-7.35435-1.75971-6.2792-1.75971-4.70992Z" fill="#262626" transform="matrix(-1.00015 -0 -0 1 308.245 198.962)"/><path d="M-1.21136 0-1.21136-1.33646-2.54782-1.33646-2.54782 0Z" fill="#262626" transform="matrix(-1.00015 -0 -0 1 315.667 198.962)"/><path d="M-0.560854-2.52072-1.7326-2.67709C-1.86743-2.01268-2.09677-1.53383-2.42064-1.24055-2.7445-0.947266-3.13856-0.800624-3.60281-0.800624-4.15463-0.800624-4.62027-0.991746-4.99973-1.37399-5.38058-1.75623-5.57101-2.23021-5.57101-2.79593-5.57101-3.33385-5.39518-3.77725-5.04352-4.12613-4.69185-4.47641-4.24428-4.65154-3.7008-4.65154-3.4798-4.65154-3.20389-4.60845-2.87307-4.52228L-3.00443-5.55225C-3.08226-5.54252-3.14481-5.53765-3.19207-5.53765-3.69246-5.53765-4.14212-5.66761-4.54104-5.92754-4.94135-6.18885-5.14151-6.59125-5.14151-7.13473-5.14151-7.56423-4.99556-7.92006-4.70367-8.20223-4.41316-8.48578-4.03787-8.62756-3.57779-8.62756-3.12188-8.62756-2.74172-8.4837-2.43732-8.19597-2.13291-7.90964-1.93762-7.48014-1.85144-6.90747L-0.677612-7.11597C-0.820779-7.9013-1.14603-8.51011-1.65337-8.94239-2.1621-9.37467-2.79454-9.59081-3.55069-9.59081-4.07193-9.59081-4.55147-9.47892-4.98931-9.25513-5.42854-9.03135-5.76422-8.72625-5.99634-8.33984-6.22986-7.95342-6.34662-7.54269-6.34662-7.10763-6.34662-6.69619-6.23542-6.3209-6.01302-5.98175-5.79202-5.64259-5.46468-5.37294-5.03101-5.17278-5.59534-5.04352-6.03387-4.77317-6.34662-4.36173-6.65936-3.95169-6.81573-3.4381-6.81573-2.82095-6.81573-1.98697-6.51133-1.28016-5.90252-0.700546-5.2951-0.120928-4.52645 0.168882-3.59655 0.168882-2.7584 0.168882-2.06202-0.0806184-1.50743-0.579619-0.954216-1.08001-0.638692-1.72704-0.560854-2.52072Z" fill="#262626" transform="matrix(-1.00015 -0 -0 1 319.375 198.962)"/><path d="M-0.554599-4.70992C-0.554599-5.83997-0.670662-6.74901-0.902787-7.43705-1.13491-8.12648-1.47963-8.65744-1.93693-9.02996-2.39562-9.40386-2.97246-9.59081-3.66744-9.59081-4.18034-9.59081-4.63-9.48726-5.01641-9.28015-5.40282-9.07444-5.72182-8.77698-5.97341-8.38779-6.22638-7.99999-6.42445-7.5267-6.56762-6.96793-6.71079-6.41055-6.78237-5.65788-6.78237-4.70992-6.78237-3.5896-6.667-2.68543-6.43627-1.99739-6.20692-1.30935-5.86291-0.776995-5.40421-0.400312-4.94691-0.0250195-4.36799 0.162627-3.66744 0.162627-2.74728 0.162627-2.0245-0.167492-1.49909-0.827729-0.869428-1.62279-0.554599-2.91686-0.554599-4.70992ZM-1.75971-4.70992C-1.75971-3.14203-1.94318-2.09816-2.31013-1.57831-2.67709-1.05985-3.12952-0.800624-3.66744-0.800624-4.20675-0.800624-4.65988-1.06124-5.02684-1.58248-5.39379-2.10372-5.57727-3.1462-5.57727-4.70992-5.57727-6.28337-5.39379-7.32794-5.02684-7.84362-4.65988-8.36069-4.20258-8.61922-3.65493-8.61922-3.11701-8.61922-2.68682-8.39127-2.36434-7.93535-1.96125-7.35435-1.75971-6.2792-1.75971-4.70992Z" fill="#262626" transform="matrix(-1.00015 -0 -0 1 326.797 198.962)"/><path d="M2.96773 0 0.178889 10.5063 1.60542 10.5063 3.20396 3.61907C3.3752 2.8974 3.52351 2.18108 3.64889 1.4701 3.91646 2.59237 4.07394 3.23989 4.12134 3.41266L6.12123 10.5063 7.79775 10.5063 9.30225 5.19009C9.67991 3.87059 9.95283 2.63059 10.121 1.4701 10.254 2.13368 10.4283 2.89587 10.6439 3.75668L12.2906 10.5063 13.6896 10.5063 10.8091 0 9.46738 0 7.2542 8.00645C7.06766 8.67461 6.95758 9.08514 6.92394 9.23804 6.81386 8.75641 6.71065 8.34588 6.61432 8.00645L4.38738 0Z" fill="#262626" transform="matrix(-4.37114e-08 -1 -1.00015 4.37179e-08 299.817 381.172)"/><path d="M6.17857 2.4517 7.51107 2.28657C7.3016 1.50833 6.91247 0.903621 6.3437 0.472452 5.77492 0.0428112 5.04866-0.172009 4.16491-0.172009 3.05182-0.172009 2.16884 0.17048 1.51597 0.855459 0.863104 1.54197 0.536669 2.50369 0.536669 3.74063 0.536669 5.0219 0.866162 6.01573 1.52515 6.72212 2.18566 7.43003 3.04112 7.78399 4.09152 7.78399 5.10982 7.78399 5.94158 7.43767 6.5868 6.74505 7.23203 6.05243 7.55464 5.07771 7.55464 3.8209 7.55464 3.74445 7.55235 3.62978 7.54776 3.47688L1.87146 3.47688C1.91886 2.64053 2.15508 1.99989 2.58014 1.55496 3.00519 1.11156 3.53574 0.889861 4.17179 0.889861 4.64425 0.889861 5.04789 1.01371 5.38274 1.2614 5.71758 1.51062 5.98286 1.90739 6.17857 2.4517ZM1.94256 4.53645 6.19233 4.53645C6.13576 5.17709 5.97369 5.65719 5.70612 5.97674 5.29482 6.47366 4.76198 6.72212 4.10758 6.72212 3.51434 6.72212 3.01589 6.52412 2.61225 6.12811 2.2086 5.73211 1.98537 5.20156 1.94256 4.53645Z" fill="#262626" transform="matrix(-4.37114e-08 -1 -1.00015 4.37179e-08 299.817 367.575)"/><path d="M0.974718 9.02245 0.974718 10.5063 2.26593 10.5063 2.26593 9.02245ZM0.974718 0 0.974718 7.61198 2.26593 7.61198 2.26593 0Z" fill="#262626" transform="matrix(-4.37114e-08 -1 -1.00015 4.37179e-08 299.817 359.412)"/><path d="M0.731612-0.6307 1.98613-0.81647C2.03812-1.2033 2.18337-1.48539 2.42189-1.66276 2.74297-1.90127 3.18026-2.02053 3.73375-2.02053 4.33157-2.02053 4.79256-1.90127 5.1167-1.66276 5.44237-1.42424 5.66254-1.09016 5.77721-0.660515 5.84449-0.397532 5.87507 0.154426 5.86895 0.99536 5.30629 0.331787 4.60449 0 3.76356 0 2.71622 0 1.90586 0.377656 1.3325 1.13297 0.759134 1.88828 0.472452 2.79343 0.472452 3.84842 0.472452 4.57468 0.603943 5.24437 0.866926 5.85748 1.12991 6.47213 1.51062 6.94688 2.00907 7.28172 2.50904 7.61656 3.09616 7.78399 3.77044 7.78399 4.66795 7.78399 5.40873 7.42086 5.9928 6.6946L5.9928 7.61198 7.18081 7.61198 7.18081 1.03205C7.18081-0.152897 7.06002-0.992302 6.81844-1.48616 6.57839-1.98155 6.19615-2.3722 5.67171-2.65811 5.14881-2.94556 4.50511-3.08928 3.74063-3.08928 2.83395-3.08928 2.10081-2.88517 1.5412-2.47693 0.981599-2.0687 0.711736-1.45329 0.731612-0.6307ZM1.79807 3.94245C1.79807 2.94403 1.99607 2.21548 2.39207 1.75679 2.78961 1.2981 3.28729 1.06875 3.88511 1.06875 4.47682 1.06875 4.97298 1.29657 5.37357 1.7522 5.77568 2.20936 5.97674 2.92492 5.97674 3.89887 5.97674 4.83002 5.77033 5.53181 5.35751 6.00427 4.94469 6.47825 4.44625 6.71524 3.86218 6.71524 3.28881 6.71524 2.80107 6.48207 2.39895 6.01573 1.99836 5.55093 1.79807 4.85983 1.79807 3.94245Z" fill="#262626" transform="matrix(-4.37114e-08 -1 -1.00015 4.37179e-08 299.817 356.151)"/><path d="M0.967838 0 0.967838 10.5063 2.25676 10.5063 2.25676 6.73817C2.85917 7.43538 3.61907 7.78399 4.53645 7.78399 5.10064 7.78399 5.59068 7.67237 6.00656 7.44914 6.42244 7.22744 6.71982 6.92088 6.89871 6.52947 7.0776 6.13805 7.16705 5.56927 7.16705 4.82314L7.16705 0 5.87813 0 5.87813 4.82314C5.87813 5.46836 5.73822 5.93776 5.45842 6.23132 5.17862 6.52488 4.78338 6.67166 4.27271 6.67166 3.89046 6.67166 3.53039 6.57228 3.19249 6.37351 2.85612 6.17627 2.61607 5.90794 2.47234 5.56851 2.32862 5.22908 2.25676 4.76121 2.25676 4.16491L2.25676 0Z" fill="#262626" transform="matrix(-4.37114e-08 -1 -1.00015 4.37179e-08 299.817 347.988)"/><path d="M3.7842 1.15361 3.96997 0.0137607C3.6076-0.0626878 3.2827-0.100912 2.99525-0.100912 2.52739-0.100912 2.16426-0.026757 1.90586 0.121553 1.64899 0.269863 1.46781 0.464807 1.36231 0.706384 1.25681 0.947962 1.20406 1.45558 1.20406 2.22924L1.20406 6.60744 0.25916 6.60744 0.25916 7.61198 1.20406 7.61198 1.20406 9.4972 2.48611 10.2701 2.48611 7.61198 3.7842 7.61198 3.7842 6.60744 2.48611 6.60744 2.48611 2.15814C2.48611 1.78966 2.50904 1.55267 2.55491 1.44717 2.60078 1.3432 2.67493 1.25987 2.77737 1.19718 2.87982 1.1345 3.0266 1.10315 3.21772 1.10315 3.36144 1.10315 3.55027 1.11997 3.7842 1.15361Z" fill="#262626" transform="matrix(-4.37114e-08 -1 -1.00015 4.37179e-08 299.817 339.824)"/><g clip-path="url(#clip3)"><path d="M0-4.67031-4.67031 4.67031 4.67031 4.67031Z" stroke="#4682B4" stroke-width="0.400312" stroke-linejoin="round" fill="#4682B4" transform="matrix(1.00015 0 -0 1 378.646 335.814)"/><path d="M0-4.67031-4.67031 4.67031 4.67031 4.67031Z" stroke="#4682B4" stroke-width="0.400312" stroke-linejoin="round" fill="#4682B4" transform="matrix(1.00015 0 -0 1 468.912 436.138)"/><path d="M0-4.67031-4.67031 4.67031 4.67031 4.67031Z" stroke="#4682B4" stroke-width="0.400312" stroke-linejoin="round" fill="#4682B4" transform="matrix(1.00015 0 -0 1 559.177 319.856)"/><path d="M0-4.67031-4.67031 4.67031 4.67031 4.67031Z" stroke="#4682B4" stroke-width="0.400312" stroke-linejoin="round" fill="#4682B4" transform="matrix(1.00015 0 -0 1 649.443 442.005)"/><path d="M0-4.67031-4.67031 4.67031 4.67031 4.67031Z" stroke="#4682B4" stroke-width="0.400312" stroke-linejoin="round" fill="#4682B4" transform="matrix(1.00015 0 -0 1 739.709 349.542)"/><path d="M0-4.67031-4.67031 4.67031 4.67031 4.67031Z" stroke="#4682B4" stroke-width="0.400312" stroke-linejoin="round" fill="#4682B4" transform="matrix(1.00015 0 -0 1 829.974 356.7)"/><path d="M0-4.67031-4.67031 4.67031 4.67031 4.67031Z" stroke="#4682B4" stroke-width="0.400312" stroke-linejoin="round" fill="#4682B4" transform="matrix(1.00015 0 -0 1 920.24 409.972)"/></g><g clip-path="url(#clip4)"><path d="M0-4.67031-4.67031 4.67031 4.67031 4.67031Z" stroke="#808080" stroke-width="0.400312" stroke-linejoin="round" fill="#808080" transform="matrix(1.00015 0 -0 1 378.646 546.202)"/><path d="M0-4.67031-4.67031 4.67031 4.67031 4.67031Z" stroke="#808080" stroke-width="0.400312" stroke-linejoin="round" fill="#808080" transform="matrix(1.00015 0 -0 1 413.414 94.2406)"/><path d="M0-4.67031-4.67031 4.67031 4.67031 4.67031Z" stroke="#808080" stroke-width="0.400312" stroke-linejoin="round" fill="#808080" transform="matrix(1.00015 0 -0 1 524.409 94.2406)"/><path d="M0-4.67031-4.67031 4.67031 4.67031 4.67031Z" stroke="#808080" stroke-width="0.400312" stroke-linejoin="round" fill="#808080" transform="matrix(1.00015 0 -0 1 559.177 546.202)"/><path d="M0-4.67031-4.67031 4.67031 4.67031 4.67031Z" stroke="#808080" stroke-width="0.400312" stroke-linejoin="round" fill="#808080" transform="matrix(1.00015 0 -0 1 649.443 546.202)"/><path d="M0-4.67031-4.67031 4.67031 4.67031 4.67031Z" stroke="#808080" stroke-width="0.400312" stroke-linejoin="round" fill="#808080" transform="matrix(1.00015 0 -0 1 739.709 546.202)"/><path d="M0-4.67031-4.67031 4.67031 4.67031 4.67031Z" stroke="#808080" stroke-width="0.400312" stroke-linejoin="round" fill="#808080" transform="matrix(1.00015 0 -0 1 829.974 546.202)"/><path d="M0-4.67031-4.67031 4.67031 4.67031 4.67031Z" stroke="#808080" stroke-width="0.400312" stroke-linejoin="round" fill="#808080" transform="matrix(1.00015 0 -0 1 920.24 546.202)"/></g><g clip-path="url(#clip5)"><path d="M0-4.67031-4.67031 4.67031 4.67031 4.67031Z" stroke="#4169E1" stroke-width="0.400312" stroke-linejoin="round" fill="#4169E1" transform="matrix(1.00015 0 -0 1 378.646 382.514)"/><path d="M0-4.67031-4.67031 4.67031 4.67031 4.67031Z" stroke="#4169E1" stroke-width="0.400312" stroke-linejoin="round" fill="#4169E1" transform="matrix(1.00015 0 -0 1 468.912 413.374)"/><path d="M0-4.67031-4.67031 4.67031 4.67031 4.67031Z" stroke="#4169E1" stroke-width="0.400312" stroke-linejoin="round" fill="#4169E1" transform="matrix(1.00015 0 -0 1 559.177 436.725)"/><path d="M0-4.67031-4.67031 4.67031 4.67031 4.67031Z" stroke="#4169E1" stroke-width="0.400312" stroke-linejoin="round" fill="#4169E1" transform="matrix(1.00015 0 -0 1 649.443 387.795)"/><path d="M0-4.67031-4.67031 4.67031 4.67031 4.67031Z" stroke="#4169E1" stroke-width="0.400312" stroke-linejoin="round" fill="#4169E1" transform="matrix(1.00015 0 -0 1 739.709 336.987)"/><path d="M0-4.67031-4.67031 4.67031 4.67031 4.67031Z" stroke="#4169E1" stroke-width="0.400312" stroke-linejoin="round" fill="#4169E1" transform="matrix(1.00015 0 -0 1 829.974 340.273)"/><path d="M0-4.67031-4.67031 4.67031 4.67031 4.67031Z" stroke="#4169E1" stroke-width="0.400312" stroke-linejoin="round" fill="#4169E1" transform="matrix(1.00015 0 -0 1 920.24 352.358)"/></g><g clip-path="url(#clip6)"><path d="M0-4.67031-4.67031 4.67031 4.67031 4.67031Z" stroke="#DAA520" stroke-width="0.400312" stroke-linejoin="round" fill="#DAA520" transform="matrix(1.00015 0 -0 1 378.646 390.443)"/><path d="M0-4.67031-4.67031 4.67031 4.67031 4.67031Z" stroke="#DAA520" stroke-width="0.400312" stroke-linejoin="round" fill="#DAA520" transform="matrix(1.00015 0 -0 1 468.912 411.21)"/><path d="M0-4.67031-4.67031 4.67031 4.67031 4.67031Z" stroke="#DAA520" stroke-width="0.400312" stroke-linejoin="round" fill="#DAA520" transform="matrix(1.00015 0 -0 1 559.177 431.978)"/><path d="M0-4.67031-4.67031 4.67031 4.67031 4.67031Z" stroke="#DAA520" stroke-width="0.400312" stroke-linejoin="round" fill="#DAA520" transform="matrix(1.00015 0 -0 1 649.443 390.443)"/><path d="M0-4.67031-4.67031 4.67031 4.67031 4.67031Z" stroke="#DAA520" stroke-width="0.400312" stroke-linejoin="round" fill="#DAA520" transform="matrix(1.00015 0 -0 1 739.709 338.523)"/><path d="M0-4.67031-4.67031 4.67031 4.67031 4.67031Z" stroke="#DAA520" stroke-width="0.400312" stroke-linejoin="round" fill="#DAA520" transform="matrix(1.00015 0 -0 1 829.974 338.523)"/><path d="M0-4.67031-4.67031 4.67031 4.67031 4.67031Z" stroke="#DAA520" stroke-width="0.400312" stroke-linejoin="round" fill="#DAA520" transform="matrix(1.00015 0 -0 1 920.24 348.907)"/></g><g clip-path="url(#clip7)"><path d="M0-4.67031-4.67031 4.67031 4.67031 4.67031Z" stroke="#DC143C" stroke-width="0.400312" stroke-linejoin="round" fill="#DC143C" transform="matrix(1.00015 0 -0 1 378.646 537.988)"/><path d="M0-4.67031-4.67031 4.67031 4.67031 4.67031Z" stroke="#DC143C" stroke-width="0.400312" stroke-linejoin="round" fill="#DC143C" transform="matrix(1.00015 0 -0 1 468.912 518.392)"/><path d="M0-4.67031-4.67031 4.67031 4.67031 4.67031Z" stroke="#DC143C" stroke-width="0.400312" stroke-linejoin="round" fill="#DC143C" transform="matrix(1.00015 0 -0 1 559.177 511.704)"/><path d="M0-4.67031-4.67031 4.67031 4.67031 4.67031Z" stroke="#DC143C" stroke-width="0.400312" stroke-linejoin="round" fill="#DC143C" transform="matrix(1.00015 0 -0 1 649.443 431.562)"/><path d="M0-4.67031-4.67031 4.67031 4.67031 4.67031Z" stroke="#DC143C" stroke-width="0.400312" stroke-linejoin="round" fill="#DC143C" transform="matrix(1.00015 0 -0 1 739.709 189.023)"/><path d="M0-4.67031-4.67031 4.67031 4.67031 4.67031Z" stroke="#DC143C" stroke-width="0.400312" stroke-linejoin="round" fill="#DC143C" transform="matrix(1.00015 0 -0 1 829.974 257.079)"/><path d="M0-4.67031-4.67031 4.67031 4.67031 4.67031Z" stroke="#DC143C" stroke-width="0.400312" stroke-linejoin="round" fill="#DC143C" transform="matrix(1.00015 0 -0 1 920.24 204.277)"/></g><g clip-path="url(#clip8)"><path d="M123.151 240.239 213.403 340.563 303.655 224.281 393.907 346.43 484.159 253.967 574.411 261.125 664.664 314.397" stroke="#4682B4" stroke-width="2.33515" stroke-linecap="round" stroke-linejoin="round" stroke-opacity="0.2" fill="none" transform="matrix(1.00015 0 -0 1 255.477 95.575)"/></g><g clip-path="url(#clip9)"><path d="M123.151 450.627 157.914-1.33437M268.892-1.33437 303.655 450.627 393.907 450.627 484.159 450.627 574.411 450.627 664.664 450.627" stroke="#808080" stroke-width="2.33515" stroke-linecap="round" stroke-linejoin="round" stroke-opacity="0.2" fill="none" transform="matrix(1.00015 0 -0 1 255.477 95.575)"/></g><g clip-path="url(#clip10)"><path d="M123.151 286.939 213.403 317.799 303.655 341.15 393.907 292.22 484.159 241.412 574.411 244.698 664.664 256.783" stroke="#4169E1" stroke-width="2.33515" stroke-linecap="round" stroke-linejoin="round" stroke-opacity="0.2" fill="none" transform="matrix(1.00015 0 -0 1 255.477 95.575)"/></g><g clip-path="url(#clip11)"><path d="M123.151 294.868 213.403 315.635 303.655 336.403 393.907 294.868 484.159 242.948 574.411 242.948 664.664 253.332" stroke="#DAA520" stroke-width="2.33515" stroke-linecap="round" stroke-linejoin="round" stroke-opacity="0.2" fill="none" transform="matrix(1.00015 0 -0 1 255.477 95.575)"/></g><g clip-path="url(#clip12)"><path d="M123.151 442.413 213.403 422.817 303.655 416.129 393.907 335.987 484.159 93.4481 574.411 161.504 664.664 108.702" stroke="#DC143C" stroke-width="2.33515" stroke-linecap="round" stroke-linejoin="round" stroke-opacity="0.2" fill="none" transform="matrix(1.00015 0 -0 1 255.477 95.575)"/></g><path d="M96.0749 462.361 96.0749 63.4094" stroke="#262626" stroke-width="1.66797" stroke-linecap="square" fill="none" transform="matrix(1.00015 0 -0 1 255.477 95.575)"/><path d="M691.739 462.361 691.739 63.4094" stroke="#262626" stroke-width="1.66797" stroke-linecap="square" fill="none" transform="matrix(1.00015 0 -0 1 255.477 95.575)"/><path d="M96.0749 462.361 691.739 462.361" stroke="#262626" stroke-width="1.66797" stroke-linecap="square" fill="none" transform="matrix(1.00015 0 -0 1 255.477 95.575)"/><path d="M96.0749 63.4094 691.739 63.4094" stroke="#262626" stroke-width="1.66797" stroke-linecap="square" fill="none" transform="matrix(1.00015 0 -0 1 255.477 95.575)"/><path d="M0-4.67031-4.67031 4.67031 4.67031 4.67031Z" stroke="#4682B4" stroke-width="0.400312" stroke-linejoin="round" fill="#4682B4" transform="matrix(1.00015 0 -0 1 809.555 444.323)"/><path d="M-1.02997 0-1.02997-9.5512-4.32003-9.5512C-5.06228-9.5512-5.62939-9.50602-6.02136-9.41568-6.56762-9.28919-7.03396-9.06123-7.42037-8.73181-7.92493-8.30509-8.30161-7.76022-8.55042-7.0972-8.80061-6.43557-8.92571-5.67943-8.92571-4.82877-8.92571-4.1032-8.84092-3.46034-8.67134-2.90018-8.50316-2.34002-8.28632-1.87577-8.02084-1.50743-7.75535-1.14047-7.46485-0.851358-7.14932-0.640082-6.83519-0.430197-6.45573-0.271045-6.01094-0.162627-5.56615-0.0542089-5.05464 0-4.47641 0ZM-2.29345-1.12796-4.33254-1.12796C-4.9622-1.12796-5.45634-1.18634-5.81495-1.3031-6.17356-1.41986-6.4592-1.58526-6.67187-1.79932-6.9721-2.09816-7.20562-2.50056-7.37242-3.00651-7.53921-3.51246-7.62261-4.12613-7.62261-4.84753-7.62261-5.84692-7.45859-6.61488-7.13056-7.15141-6.80253-7.68794-6.4043-8.04725-5.93588-8.22933-5.59672-8.35999-5.05186-8.42532-4.30127-8.42532L-2.29345-8.42532Z" fill="#262626" transform="matrix(-1.00015 -0 -0 1 833.577 447.826)"/><path d="M-1.05499 0-1.05499-9.5512-7.96246-9.5512-7.96246-8.42532-2.32056-8.42532-2.32056-5.50012-7.60385-5.50012-7.60385-4.37841-2.32056-4.37841-2.32056-1.12796-8.18346-1.12796-8.18346 0Z" fill="#262626" transform="matrix(-1.00015 -0 -0 1 843.215 447.826)"/><path d="M-7.8457-3.34844-9.10919-3.02945C-8.8437-1.99114-8.36694-1.19955-7.6789-0.654677-6.99087-0.109808-6.14924 0.162627-5.15402 0.162627-4.12405 0.162627-3.28659-0.0465641-2.64164-0.464946-1.9967-0.884718-1.50604-1.49214-1.16966-2.2872-0.833289-3.08226-0.665102-3.93571-0.665102-4.84753-0.665102-5.84275-0.854833-6.71009-1.2343-7.44956-1.61515-8.19041-2.15585-8.75266-2.85639-9.13629-3.55833-9.52131-4.33046-9.71382-5.17278-9.71382-6.12909-9.71382-6.93249-9.47058-7.583-8.98409-8.23489-8.4976-8.68941-7.81373-8.94656-6.93249L-7.70184-6.63851C-7.47944-7.3335-7.15766-7.83945-6.7365-8.15636-6.31534-8.47466-5.78576-8.63382-5.14776-8.63382-4.41386-8.63382-3.80019-8.45729-3.30675-8.10424-2.8133-7.75257-2.46651-7.27998-2.26635-6.68646-2.06758-6.09434-1.9682-5.48344-1.9682-4.85378-1.9682-4.04204-2.08635-3.33315-2.32264-2.72713-2.55894-2.1211-2.92659-1.66797-3.42559-1.36773-3.92598-1.06889-4.46737-0.919467-5.04977-0.919467-5.75727-0.919467-6.35635-1.1231-6.84701-1.53036-7.33906-1.93901-7.67195-2.54504-7.8457-3.34844Z" fill="#262626" transform="matrix(-1.00015 -0 -0 1 852.116 447.826)"/><path d="M-1.24472 0-1.24472-9.5512-2.50821-9.5512-2.50821 0Z" fill="#262626" transform="matrix(-1.00015 -0 -0 1 861.754 447.826)"/><path d="M-0.600468-3.06906-1.79098-3.17331C-1.84797-2.69516-1.97932-2.30318-2.18504-1.99739-2.39214-1.6916-2.71253-1.44418-3.1462-1.25515-3.58126-1.06611-4.07054-0.971591-4.61401-0.971591-5.09494-0.971591-5.52028-1.04317-5.89001-1.18634-6.25974-1.32951-6.53426-1.5255-6.71357-1.7743-6.89426-2.0245-6.98461-2.29762-6.98461-2.59369-6.98461-2.89253-6.89774-3.15385-6.72399-3.37763-6.55025-3.60142-6.26391-3.78976-5.86499-3.94266-5.60785-4.04274-5.04074-4.19772-4.16366-4.4076-3.28659-4.61888-2.67222-4.81765-2.32056-5.0039-1.86326-5.24298-1.52272-5.53904-1.29893-5.89209-1.07653-6.24654-0.965336-6.64337-0.965336-7.08261-0.965336-7.56493-1.10155-8.01528-1.37399-8.43366-1.64781-8.85343-2.04743-9.17173-2.57284-9.38857-3.09964-9.60541-3.68412-9.71382-4.32629-9.71382-5.03379-9.71382-5.65788-9.59985-6.19858-9.37189-6.74067-9.14394-7.15697-8.80826-7.44747-8.36486-7.73798-7.92284-7.89435-7.42176-7.91659-6.8616L-6.70523-6.76986C-6.6399-7.37311-6.41889-7.82902-6.04221-8.1376-5.66692-8.44617-5.11232-8.60046-4.37841-8.60046-3.61393-8.60046-3.05655-8.46007-2.70628-8.17929-2.35739-7.89991-2.18295-7.56284-2.18295-7.16809-2.18295-6.82477-2.30666-6.54191-2.55407-6.31951-2.79732-6.09851-3.43254-5.87194-4.45973-5.63981-5.48692-5.40769-6.19163-5.20475-6.57388-5.03101-7.12987-4.77386-7.53991-4.44861-7.804-4.05525-8.06949-3.66327-8.20223-3.21084-8.20223-2.69794-8.20223-2.18921-8.05698-1.70967-7.76647-1.25932-7.47597-0.810354-7.05759-0.460776-6.51133-0.210581-5.96646 0.0382243-5.35348 0.162627-4.67239 0.162627-3.80783 0.162627-3.08296 0.0368343-2.49778-0.214751-1.91399-0.466336-1.456-0.845103-1.12379-1.35105-0.791589-1.85839-0.617148-2.43106-0.600468-3.06906Z" fill="#262626" transform="matrix(-1.00015 -0 -0 1 865.462 447.826)"/><path d="M-1.24472 0-1.24472-9.5512-2.50821-9.5512-2.50821 0Z" fill="#262626" transform="matrix(-1.00015 -0 -0 1 874.363 447.826)"/><path d="M-0.644252-4.65154C-0.644252-6.2375-1.06958-7.47875-1.92025-8.37528-2.7723-9.2732-3.87177-9.72216-5.21865-9.72216-6.10128-9.72216-6.89635-9.51089-7.60385-9.08834-8.31134-8.66718-8.85065-8.07991-9.22177-7.32655-9.59429-6.57318-9.78054-5.71835-9.78054-4.76205-9.78054-3.79463-9.58456-2.92867-9.19258-2.16419-8.802-1.3997-8.2481-0.820779-7.53087-0.427417-6.81504-0.0340543-6.04221 0.162627-5.2124 0.162627-4.31309 0.162627-3.50899-0.0542089-2.8001-0.48788-2.0926-0.922942-1.55607-1.51577-1.19051-2.26635-0.826339-3.01833-0.644252-3.81339-0.644252-4.65154ZM-1.94735-4.63278C-1.94735-3.48188-2.25662-2.57492-2.87516-1.91191-3.49509-1.25028-4.27208-0.919467-5.20614-0.919467-6.15688-0.919467-6.93944-1.25376-7.55381-1.92233-8.16956-2.59091-8.47744-3.54026-8.47744-4.77039-8.47744-5.54738-8.34609-6.22569-8.08339-6.80531-7.82068-7.38492-7.43566-7.83458-6.92832-8.15427-6.42237-8.47397-5.85457-8.63382-5.22491-8.63382-4.33115-8.63382-3.56111-8.32594-2.91477-7.71018-2.26983-7.09581-1.94735-6.07001-1.94735-4.63278Z" fill="#262626" transform="matrix(-1.00015 -0 -0 1 878.071 447.826)"/><path d="M-1.01746 0-1.01746-9.5512-2.31222-9.5512-7.33072-2.0516-7.33072-9.5512-8.54208-9.5512-8.54208 0-7.24523 0-2.22882-7.50585-2.22882 0Z" fill="#262626" transform="matrix(-1.00015 -0 -0 1 888.452 447.826)"/><path d="M0-4.67031-4.67031 4.67031 4.67031 4.67031Z" stroke="#808080" stroke-width="0.400312" stroke-linejoin="round" fill="#808080" transform="matrix(1.00015 0 -0 1 809.555 463.198)"/><path d="M-1.02997 0-1.02997-9.5512-4.32003-9.5512C-5.06228-9.5512-5.62939-9.50602-6.02136-9.41568-6.56762-9.28919-7.03396-9.06123-7.42037-8.73181-7.92493-8.30509-8.30161-7.76022-8.55042-7.0972-8.80061-6.43557-8.92571-5.67943-8.92571-4.82877-8.92571-4.1032-8.84092-3.46034-8.67134-2.90018-8.50316-2.34002-8.28632-1.87577-8.02084-1.50743-7.75535-1.14047-7.46485-0.851358-7.14932-0.640082-6.83519-0.430197-6.45573-0.271045-6.01094-0.162627-5.56615-0.0542089-5.05464 0-4.47641 0ZM-2.29345-1.12796-4.33254-1.12796C-4.9622-1.12796-5.45634-1.18634-5.81495-1.3031-6.17356-1.41986-6.4592-1.58526-6.67187-1.79932-6.9721-2.09816-7.20562-2.50056-7.37242-3.00651-7.53921-3.51246-7.62261-4.12613-7.62261-4.84753-7.62261-5.84692-7.45859-6.61488-7.13056-7.15141-6.80253-7.68794-6.4043-8.04725-5.93588-8.22933-5.59672-8.35999-5.05186-8.42532-4.30127-8.42532L-2.29345-8.42532Z" fill="#262626" transform="matrix(-1.00015 -0 -0 1 833.577 466.701)"/><path d="M0.0187646 0-3.64868-9.5512-5.01016-9.5512-8.91945 0-7.48083 0-6.36538-2.89392-2.37268-2.89392-1.32186 0ZM-2.73755-3.92181-5.97549-3.92181-4.97888-6.56762C-4.67448-7.37103-4.44861-8.03126-4.30127-8.54833-4.17895-7.93535-4.00729-7.32724-3.78629-6.72399Z" fill="#262626" transform="matrix(-1.00015 -0 -0 1 843.215 466.701)"/><path d="M-3.45895 0-3.45895-8.42532-0.312744-8.42532-0.312744-9.5512-7.88323-9.5512-7.88323-8.42532-4.72452-8.42532-4.72452 0Z" fill="#262626" transform="matrix(-1.00015 -0 -0 1 851.132 466.701)"/><path d="M-1.05499 0-1.05499-9.5512-7.96246-9.5512-7.96246-8.42532-2.32056-8.42532-2.32056-5.50012-7.60385-5.50012-7.60385-4.37841-2.32056-4.37841-2.32056-1.12796-8.18346-1.12796-8.18346 0Z" fill="#262626" transform="matrix(-1.00015 -0 -0 1 859.284 466.701)"/><path d="M0-4.67031-4.67031 4.67031 4.67031 4.67031Z" stroke="#4169E1" stroke-width="0.400312" stroke-linejoin="round" fill="#4169E1" transform="matrix(1.00015 0 -0 1 809.555 482.074)"/><path d="M-1.06958 0-1.06958-9.5512-2.33307-9.5512-2.33307-5.62939-7.29736-5.62939-7.29736-9.5512-8.56084-9.5512-8.56084 0-7.29736 0-7.29736-4.50143-2.33307-4.50143-2.33307 0Z" fill="#262626" transform="matrix(-1.00015 -0 -0 1 833.577 485.576)"/><path d="M-0.423247-2.86682-0.423247-4.04691-4.02606-4.04691-4.02606-2.86682Z" fill="#262626" transform="matrix(-1.00015 -0 -0 1 843.215 485.576)"/><path d="M-0.410737-2.06619-1.56997-2.24759C-1.6353-1.78333-1.81669-1.4275-2.11415-1.18009-2.4116-0.932672-2.8279-0.808964-3.36304-0.808964-3.90096-0.808964-4.29988-0.918077-4.55981-1.1363-4.82112-1.35592-4.95178-1.61376-4.95178-1.90982-4.95178-2.17392-4.83641-2.38241-4.60567-2.53531-4.44583-2.63956-4.04621-2.77161-3.40682-2.93145-2.54782-3.14968-1.95222-3.33802-1.62001-3.49648-1.28781-3.65493-1.03553-3.87385-0.863173-4.15324-0.692206-4.43401-0.606723-4.74398-0.606723-5.08313-0.606723-5.39031-0.676917-5.67526-0.817304-5.93796-0.959081-6.20206-1.15159-6.42098-1.39484-6.59473-1.57692-6.72816-1.82503-6.84145-2.13917-6.93457-2.45469-7.02909-2.79315-7.07635-3.15454-7.07635-3.69663-7.07635-4.1727-6.99782-4.58274-6.84075-4.99417-6.68507-5.29719-6.4731-5.49178-6.20484-5.68777-5.93796-5.8226-5.58144-5.89626-5.13525L-4.74954-4.97888C-4.69811-5.33472-4.5473-5.61201-4.2971-5.81078-4.04691-6.01094-3.69385-6.11101-3.23794-6.11101-2.70002-6.11101-2.31569-6.02206-2.08496-5.84414-1.85422-5.66622-1.73886-5.45773-1.73886-5.21865-1.73886-5.06715-1.78681-4.93023-1.88272-4.80792-1.97863-4.68282-2.12874-4.57857-2.33307-4.49517-2.44983-4.45208-2.79523-4.3527-3.36929-4.19702-4.19911-3.97463-4.77734-3.79254-5.10398-3.65076-5.43201-3.51038-5.68916-3.30536-5.87541-3.0357-6.06306-2.76744-6.15688-2.43315-6.15688-2.03284-6.15688-1.64225-6.04291-1.27391-5.81495-0.927807-5.587-0.583094-5.25757-0.316219-4.82668-0.127182-4.39718 0.0618538-3.91138 0.156372-3.36929 0.156372-2.46998 0.156372-1.78472-0.0305794-1.31352-0.404482-0.842323-0.778385-0.541394-1.33229-0.410737-2.06619Z" fill="#262626" transform="matrix(-1.00015 -0 -0 1 847.659 485.576)"/><path d="M-5.39587-2.53531-6.54886-2.38519C-6.42237-1.59013-6.0992-0.967421-5.57935-0.51707-5.06089-0.0681087-4.42359 0.156372-3.66744 0.156372-2.72087 0.156372-1.95986-0.152897-1.38441-0.771435-0.808964-1.39136-0.52124-2.27886-0.52124-3.43393-0.52124-4.18034-0.644947-4.83363-0.892362-5.39379-1.13978-5.95534-1.51646-6.3758-2.02241-6.65519-2.52836-6.93596-3.07948-7.07635-3.67578-7.07635-4.42637-7.07635-5.04074-6.88592-5.51889-6.50507-5.99704-6.12561-6.30353-5.5863-6.43835-4.88714L-5.29788-4.70992C-5.18946-5.17556-4.99695-5.52514-4.72035-5.75866-4.44513-5.99356-4.11154-6.11101-3.71957-6.11101-3.12883-6.11101-2.64859-5.89904-2.27886-5.4751-1.91052-5.05255-1.72635-4.38328-1.72635-3.46729-1.72635-2.5374-1.90426-1.86187-2.2601-1.44071-2.61732-1.01954-3.08226-0.808964-3.65493-0.808964-4.11501-0.808964-4.49934-0.950046-4.80792-1.23221-5.11649-1.51438-5.31248-1.94874-5.39587-2.53531Z" fill="#262626" transform="matrix(-1.00015 -0 -0 1 854.332 485.576)"/><path d="M-0.444096-3.45895C-0.444096-4.7405-0.799929-5.68985-1.5116-6.307-2.1065-6.8199-2.83207-7.07635-3.68829-7.07635-4.63903-7.07635-5.41603-6.7643-6.01928-6.1402-6.62391-5.5175-6.92623-4.65641-6.92623-3.55694-6.92623-2.66736-6.7928-1.96681-6.52592-1.4553-6.25905-0.945181-5.86985-0.549039-5.35835-0.266875-4.84822 0.0152897-4.29154 0.156372-3.68829 0.156372-2.71948 0.156372-1.93623-0.154287-1.33854-0.775605-0.742245-1.39692-0.444096-2.29137-0.444096-3.45895ZM-1.6492-3.45895C-1.6492-2.57353-1.84241-1.91052-2.22882-1.4699-2.61523-1.02927-3.10172-0.808964-3.68829-0.808964-4.27069-0.808964-4.7551-1.02997-5.14151-1.47198-5.52792-1.91538-5.72113-2.59091-5.72113-3.49856-5.72113-4.35478-5.52653-5.00321-5.13734-5.44383-4.74815-5.88445-4.26513-6.10476-3.68829-6.10476-3.10172-6.10476-2.61523-5.88514-2.22882-5.44591-1.84241-5.00807-1.6492-4.34575-1.6492-3.45895Z" fill="#262626" transform="matrix(-1.00015 -0 -0 1 861.005 485.576)"/><path d="M-0.867343 0-0.867343-6.91998-1.92233-6.91998-1.92233-5.87124C-2.19199-6.36191-2.44079-6.68507-2.66875-6.84075-2.8967-6.99782-3.14759-7.07635-3.42142-7.07635-3.81617-7.07635-4.21787-6.95056-4.62652-6.69897L-4.22204-5.61062C-3.93571-5.7802-3.64937-5.86499-3.36304-5.86499-3.10589-5.86499-2.87516-5.78785-2.67083-5.63356-2.46651-5.47927-2.32125-5.26522-2.23508-4.99139-2.10442-4.5744-2.03909-4.11849-2.03909-3.62366L-2.03909 0Z" fill="#262626" transform="matrix(-1.00015 -0 -0 1 868.427 485.576)"/><path d="M-5.61688-2.22882-6.82824-2.0787C-6.63781-1.37121-6.28407-0.821474-5.767-0.429502-5.24993-0.0389192-4.58969 0.156372-3.78629 0.156372-2.77439 0.156372-1.97168-0.154982-1.37816-0.77769-0.78464-1.40179-0.48788-2.27608-0.48788-3.40057-0.48788-4.56537-0.787419-5.46885-1.3865-6.11101-1.98697-6.75457-2.76466-7.07635-3.71957-7.07635-4.64529-7.07635-5.40143-6.76152-5.988-6.13186-6.57457-5.50221-6.86786-4.6161-6.86786-3.47354-6.86786-3.40404-6.86577-3.2998-6.8616-3.1608L-1.70133-3.1608C-1.74442-2.40048-1.95917-1.81808-2.34558-1.4136-2.73199-1.01051-3.21431-0.808964-3.79254-0.808964-4.22204-0.808964-4.58899-0.921552-4.8934-1.14673-5.1978-1.37329-5.43896-1.73399-5.61688-2.22882ZM-1.76596-4.12405-5.62939-4.12405C-5.57796-4.70645-5.43062-5.1429-5.18738-5.4334-4.81348-5.88514-4.32907-6.11101-3.73416-6.11101-3.19485-6.11101-2.74172-5.93101-2.37477-5.57101-2.00782-5.21101-1.80488-4.72869-1.76596-4.12405Z" fill="#262626" transform="matrix(-1.00015 -0 -0 1 872.871 485.576)"/><path d="M0-4.67031-4.67031 4.67031 4.67031 4.67031Z" stroke="#DAA520" stroke-width="0.400312" stroke-linejoin="round" fill="#DAA520" transform="matrix(1.00015 0 -0 1 809.555 500.949)"/><path d="M-0.990356 0-0.990356-9.5512-2.89392-9.5512-5.15402-2.78968C-5.36251-2.15863-5.51472-1.68673-5.61062-1.37399-5.71904-1.72148-5.88792-2.2323-6.11727-2.90643L-8.40447-9.5512-10.1058-9.5512-10.1058 0-8.88818 0-8.88818-7.99373-6.11101 0-4.97054 0-2.20797-8.13134-2.20797 0Z" fill="#262626" transform="matrix(-1.00015 -0 -0 1 833.577 504.451)"/><path d="M-7.8457-3.34844-9.10919-3.02945C-8.8437-1.99114-8.36694-1.19955-7.6789-0.654677-6.99087-0.109808-6.14924 0.162627-5.15402 0.162627-4.12405 0.162627-3.28659-0.0465641-2.64164-0.464946-1.9967-0.884718-1.50604-1.49214-1.16966-2.2872-0.833289-3.08226-0.665102-3.93571-0.665102-4.84753-0.665102-5.84275-0.854833-6.71009-1.2343-7.44956-1.61515-8.19041-2.15585-8.75266-2.85639-9.13629-3.55833-9.52131-4.33046-9.71382-5.17278-9.71382-6.12909-9.71382-6.93249-9.47058-7.583-8.98409-8.23489-8.4976-8.68941-7.81373-8.94656-6.93249L-7.70184-6.63851C-7.47944-7.3335-7.15766-7.83945-6.7365-8.15636-6.31534-8.47466-5.78576-8.63382-5.14776-8.63382-4.41386-8.63382-3.80019-8.45729-3.30675-8.10424-2.8133-7.75257-2.46651-7.27998-2.26635-6.68646-2.06758-6.09434-1.9682-5.48344-1.9682-4.85378-1.9682-4.04204-2.08635-3.33315-2.32264-2.72713-2.55894-2.1211-2.92659-1.66797-3.42559-1.36773-3.92598-1.06889-4.46737-0.919467-5.04977-0.919467-5.75727-0.919467-6.35635-1.1231-6.84701-1.53036-7.33906-1.93901-7.67195-2.54504-7.8457-3.34844Z" fill="#262626" transform="matrix(-1.00015 -0 -0 1 844.694 504.451)"/><path d="M-2.69794 0-0.162627-9.5512-1.45947-9.5512-2.91269-3.29007C-3.06836-2.634-3.20319-1.9828-3.31717-1.33646-3.56042-2.3567-3.70358-2.94535-3.74667-3.10242L-5.56476-9.5512-7.08886-9.5512-8.45659-4.71826C-8.79992-3.51872-9.04803-2.39145-9.20092-1.33646-9.32185-1.93971-9.48031-2.63261-9.6763-3.41516L-11.1733-9.5512-12.4451-9.5512-9.82641 0-8.60671 0-6.59473-7.27859C-6.42515-7.88601-6.32507-8.25922-6.29449-8.39822-6.19441-7.96037-6.10059-7.58717-6.01302-7.27859L-3.98853 0Z" fill="#262626" transform="matrix(-1.00015 -0 -0 1 854.332 504.451)"/><path d="M0-4.67031-4.67031 4.67031 4.67031 4.67031Z" stroke="#DC143C" stroke-width="0.400312" stroke-linejoin="round" fill="#DC143C" transform="matrix(1.00015 0 -0 1 809.555 519.824)"/><path d="M-1.06958 0-1.06958-9.5512-2.33307-9.5512-2.33307-5.62939-7.29736-5.62939-7.29736-9.5512-8.56084-9.5512-8.56084 0-7.29736 0-7.29736-4.50143-2.33307-4.50143-2.33307 0Z" fill="#262626" transform="matrix(-1.00015 -0 -0 1 833.577 523.327)"/><path d="M-0.423247-2.86682-0.423247-4.04691-4.02606-4.04691-4.02606-2.86682Z" fill="#262626" transform="matrix(-1.00015 -0 -0 1 843.215 523.327)"/><path d="M-5.61688-2.22882-6.82824-2.0787C-6.63781-1.37121-6.28407-0.821474-5.767-0.429502-5.24993-0.0389192-4.58969 0.156372-3.78629 0.156372-2.77439 0.156372-1.97168-0.154982-1.37816-0.77769-0.78464-1.40179-0.48788-2.27608-0.48788-3.40057-0.48788-4.56537-0.787419-5.46885-1.3865-6.11101-1.98697-6.75457-2.76466-7.07635-3.71957-7.07635-4.64529-7.07635-5.40143-6.76152-5.988-6.13186-6.57457-5.50221-6.86786-4.6161-6.86786-3.47354-6.86786-3.40404-6.86577-3.2998-6.8616-3.1608L-1.70133-3.1608C-1.74442-2.40048-1.95917-1.81808-2.34558-1.4136-2.73199-1.01051-3.21431-0.808964-3.79254-0.808964-4.22204-0.808964-4.58899-0.921552-4.8934-1.14673-5.1978-1.37329-5.43896-1.73399-5.61688-2.22882ZM-1.76596-4.12405-5.62939-4.12405C-5.57796-4.70645-5.43062-5.1429-5.18738-5.4334-4.81348-5.88514-4.32907-6.11101-3.73416-6.11101-3.19485-6.11101-2.74172-5.93101-2.37477-5.57101-2.00782-5.21101-1.80488-4.72869-1.76596-4.12405Z" fill="#262626" transform="matrix(-1.00015 -0 -0 1 847.659 523.327)"/><path d="M-0.879853 0-0.879853-6.91998-1.93484-6.91998-1.93484-5.93588C-2.44357-6.69619-3.17748-7.07635-4.13656-7.07635-4.55355-7.07635-4.93718-7.00129-5.28746-6.85118-5.63773-6.70106-5.89974-6.50438-6.07349-6.26113-6.24723-6.01789-6.36885-5.72947-6.43835-5.39587-6.48144-5.17765-6.50299-4.79749-6.50299-4.2554L-6.50299 0-5.32916 0-5.32916-4.20953C-5.32916-4.68768-5.28329-5.04491-5.19155-5.2812-5.1012-5.5175-4.93996-5.70584-4.70784-5.84623-4.47571-5.988-4.20328-6.05889-3.89053-6.05889-3.39014-6.05889-2.95856-5.90043-2.59577-5.58352-2.23299-5.26661-2.0516-4.66544-2.0516-3.78003L-2.0516 0Z" fill="#262626" transform="matrix(-1.00015 -0 -0 1 855.081 523.327)"/><path d="M-0.410737-2.06619-1.56997-2.24759C-1.6353-1.78333-1.81669-1.4275-2.11415-1.18009-2.4116-0.932672-2.8279-0.808964-3.36304-0.808964-3.90096-0.808964-4.29988-0.918077-4.55981-1.1363-4.82112-1.35592-4.95178-1.61376-4.95178-1.90982-4.95178-2.17392-4.83641-2.38241-4.60567-2.53531-4.44583-2.63956-4.04621-2.77161-3.40682-2.93145-2.54782-3.14968-1.95222-3.33802-1.62001-3.49648-1.28781-3.65493-1.03553-3.87385-0.863173-4.15324-0.692206-4.43401-0.606723-4.74398-0.606723-5.08313-0.606723-5.39031-0.676917-5.67526-0.817304-5.93796-0.959081-6.20206-1.15159-6.42098-1.39484-6.59473-1.57692-6.72816-1.82503-6.84145-2.13917-6.93457-2.45469-7.02909-2.79315-7.07635-3.15454-7.07635-3.69663-7.07635-4.1727-6.99782-4.58274-6.84075-4.99417-6.68507-5.29719-6.4731-5.49178-6.20484-5.68777-5.93796-5.8226-5.58144-5.89626-5.13525L-4.74954-4.97888C-4.69811-5.33472-4.5473-5.61201-4.2971-5.81078-4.04691-6.01094-3.69385-6.11101-3.23794-6.11101-2.70002-6.11101-2.31569-6.02206-2.08496-5.84414-1.85422-5.66622-1.73886-5.45773-1.73886-5.21865-1.73886-5.06715-1.78681-4.93023-1.88272-4.80792-1.97863-4.68282-2.12874-4.57857-2.33307-4.49517-2.44983-4.45208-2.79523-4.3527-3.36929-4.19702-4.19911-3.97463-4.77734-3.79254-5.10398-3.65076-5.43201-3.51038-5.68916-3.30536-5.87541-3.0357-6.06306-2.76744-6.15688-2.43315-6.15688-2.03284-6.15688-1.64225-6.04291-1.27391-5.81495-0.927807-5.587-0.583094-5.25757-0.316219-4.82668-0.127182-4.39718 0.0618538-3.91138 0.156372-3.36929 0.156372-2.46998 0.156372-1.78472-0.0305794-1.31352-0.404482-0.842323-0.778385-0.541394-1.33229-0.410737-2.06619Z" fill="#262626" transform="matrix(-1.00015 -0 -0 1 862.504 523.327)"/><path d="M-5.61688-2.22882-6.82824-2.0787C-6.63781-1.37121-6.28407-0.821474-5.767-0.429502-5.24993-0.0389192-4.58969 0.156372-3.78629 0.156372-2.77439 0.156372-1.97168-0.154982-1.37816-0.77769-0.78464-1.40179-0.48788-2.27608-0.48788-3.40057-0.48788-4.56537-0.787419-5.46885-1.3865-6.11101-1.98697-6.75457-2.76466-7.07635-3.71957-7.07635-4.64529-7.07635-5.40143-6.76152-5.988-6.13186-6.57457-5.50221-6.86786-4.6161-6.86786-3.47354-6.86786-3.40404-6.86577-3.2998-6.8616-3.1608L-1.70133-3.1608C-1.74442-2.40048-1.95917-1.81808-2.34558-1.4136-2.73199-1.01051-3.21431-0.808964-3.79254-0.808964-4.22204-0.808964-4.58899-0.921552-4.8934-1.14673-5.1978-1.37329-5.43896-1.73399-5.61688-2.22882ZM-1.76596-4.12405-5.62939-4.12405C-5.57796-4.70645-5.43062-5.1429-5.18738-5.4334-4.81348-5.88514-4.32907-6.11101-3.73416-6.11101-3.19485-6.11101-2.74172-5.93101-2.37477-5.57101-2.00782-5.21101-1.80488-4.72869-1.76596-4.12405Z" fill="#262626" transform="matrix(-1.00015 -0 -0 1 869.176 523.327)"/><path d="M-0.879853 0-0.879853-6.91998-1.92859-6.91998-1.92859-5.94839C-2.14542-6.28754-2.43384-6.55998-2.79385-6.76569-3.15524-6.9728-3.56598-7.07635-4.02606-7.07635-4.53896-7.07635-4.95942-6.97002-5.28746-6.75735-5.61549-6.54469-5.84692-6.24723-5.98175-5.86499-6.5294-6.67256-7.24176-7.07635-8.11883-7.07635-8.80548-7.07635-9.33297-6.88592-9.70131-6.50507-10.071-6.12561-10.2559-5.54043-10.2559-4.74954L-10.2559 0-9.08834 0-9.08834-4.35965C-9.08834-4.82807-9.05011-5.16514-8.97366-5.37085-8.89861-5.57796-8.761-5.74406-8.56084-5.86916-8.36208-5.99565-8.12786-6.05889-7.85821-6.05889-7.37172-6.05889-6.96724-5.89696-6.64476-5.5731-6.32368-5.25062-6.16314-4.73286-6.16314-4.0198L-6.16314 0-4.99139 0-4.99139-4.49517C-4.99139-5.01641-4.89548-5.40699-4.70367-5.66692-4.51324-5.92823-4.2005-6.05889-3.76544-6.05889-3.43601-6.05889-3.13091-5.97202-2.85014-5.79827-2.57075-5.62452-2.36782-5.37016-2.24133-5.03518-2.11484-4.70158-2.0516-4.21996-2.0516-3.5903L-2.0516 0Z" fill="#262626" transform="matrix(-1.00015 -0 -0 1 876.599 523.327)"/><path d="M-1.96195 0-0.873598 0-0.873598-9.5512-2.04534-9.5512-2.04534-6.14437C-2.54157-6.76569-3.174-7.07635-3.94266-7.07635-4.36799-7.07635-4.77039-6.99017-5.14985-6.81782-5.5307-6.64685-5.84345-6.40569-6.08808-6.09434-6.33411-5.78437-6.52662-5.40977-6.66561-4.97054-6.80461-4.5327-6.87411-4.06359-6.87411-3.56319-6.87411-2.37755-6.58083-1.46086-5.99426-0.813134-5.40769-0.166797-4.70436 0.156372-3.88428 0.156372-3.06697 0.156372-2.4262-0.184866-1.96195-0.867343ZM-1.94735-3.51107C-1.94735-2.68265-2.06063-2.08357-2.2872-1.71384-2.65693-1.11059-3.15663-0.808964-3.78629-0.808964-4.2978-0.808964-4.7405-1.03136-5.1144-1.47615-5.48831-1.92094-5.67526-2.58465-5.67526-3.46729-5.67526-4.37077-5.49595-5.03726-5.13734-5.46676-4.77873-5.89626-4.34575-6.11101-3.83841-6.11101-3.32551-6.11101-2.88211-5.88862-2.50821-5.44383-2.1343-4.99904-1.94735-4.35478-1.94735-3.51107Z" fill="#262626" transform="matrix(-1.00015 -0 -0 1 887.716 523.327)"/><path d="M-0.852748 0-0.852748-9.5512-2.02658-9.5512-2.02658 0Z" fill="#262626" transform="matrix(-1.00015 -0 -0 1 895.138 523.327)"/><path d="M-5.61688-2.22882-6.82824-2.0787C-6.63781-1.37121-6.28407-0.821474-5.767-0.429502-5.24993-0.0389192-4.58969 0.156372-3.78629 0.156372-2.77439 0.156372-1.97168-0.154982-1.37816-0.77769-0.78464-1.40179-0.48788-2.27608-0.48788-3.40057-0.48788-4.56537-0.787419-5.46885-1.3865-6.11101-1.98697-6.75457-2.76466-7.07635-3.71957-7.07635-4.64529-7.07635-5.40143-6.76152-5.988-6.13186-6.57457-5.50221-6.86786-4.6161-6.86786-3.47354-6.86786-3.40404-6.86577-3.2998-6.8616-3.1608L-1.70133-3.1608C-1.74442-2.40048-1.95917-1.81808-2.34558-1.4136-2.73199-1.01051-3.21431-0.808964-3.79254-0.808964-4.22204-0.808964-4.58899-0.921552-4.8934-1.14673-5.1978-1.37329-5.43896-1.73399-5.61688-2.22882ZM-1.76596-4.12405-5.62939-4.12405C-5.57796-4.70645-5.43062-5.1429-5.18738-5.4334-4.81348-5.88514-4.32907-6.11101-3.73416-6.11101-3.19485-6.11101-2.74172-5.93101-2.37477-5.57101-2.00782-5.21101-1.80488-4.72869-1.76596-4.12405Z" fill="#262626" transform="matrix(-1.00015 -0 -0 1 898.103 523.327)"/></g></g></g></svg>